<svg width="129" height="129" viewBox="0 0 129 129" fill="none" xmlns="http://www.w3.org/2000/svg">
<path d="M64.0943 128.189C99.4927 128.189 128.189 99.4927 128.189 64.0943C128.189 28.696 99.4927 0 64.0943 0C28.696 0 0 28.696 0 64.0943C0 99.4927 28.696 128.189 64.0943 128.189Z" fill="url(#paint0_linear_45_519)"/>
<path d="M64.094 0C64.0195 0 64.0195 0 64.094 0C64.0195 0 64.0195 0 64.094 0C64.0195 0 64.0195 0 64.0195 0C63.8705 0 63.7959 0 63.6469 0C63.6469 0 63.6469 0 63.5723 0C63.5723 0 63.5723 0 63.4978 0C62.2308 0 60.9638 0.0745283 59.6969 0.223585C59.6969 0.223585 59.6969 0.223585 59.6223 0.223585C59.3242 0.223585 59.0261 0.298113 58.6535 0.298113L58.9516 3.50283C61.0384 3.27925 63.1997 3.20472 65.361 3.20472V0H64.094ZM50.7535 1.41604C49.4865 1.71415 48.294 2.01226 47.0271 2.31038C47.0271 2.31038 47.0271 2.31038 46.9525 2.31038C46.2072 2.53396 45.462 2.75755 44.7167 2.98113L45.6855 6.03679C47.6978 5.36604 49.7846 4.84434 51.8714 4.39717L50.7535 1.41604ZM37.9346 5.58962C35.8478 6.48396 33.9101 7.52736 31.9723 8.64528L33.612 11.4028C35.4752 10.3594 37.3384 9.39057 39.2761 8.49623L37.9346 5.58962ZM26.3082 12.2972C25.9355 12.5953 25.5629 12.8189 25.1903 13.117C25.1903 13.117 25.1157 13.117 25.1157 13.1915C25.1157 13.1915 25.0412 13.1915 25.0412 13.266C24.9667 13.3406 24.9667 13.3406 24.8921 13.4151C23.7742 14.3094 22.7308 15.2038 21.6874 16.0981L23.8487 18.483C25.4138 17.067 27.128 15.7255 28.8421 14.4585L26.3082 12.2972ZM16.3959 21.3151C14.9054 22.9547 13.5638 24.6689 12.2969 26.383C12.2969 26.383 12.2969 26.383 12.2969 26.4575L12.2223 26.5321L14.8308 28.3953C16.0978 26.6811 17.4393 24.967 18.8554 23.4019L16.3959 21.3151ZM8.49592 32.1962C7.75063 33.4632 7.07988 34.8047 6.40912 36.2208C6.40912 36.2953 6.3346 36.2953 6.3346 36.3698V36.4443C6.11101 36.8915 5.88743 37.3387 5.73837 37.7859L8.64497 39.0528C9.53931 37.1151 10.5082 35.1774 11.5516 33.3887L8.49592 32.1962ZM3.05535 44.4934C3.05535 44.5679 3.05535 44.5679 3.05535 44.4934C3.05535 44.5679 3.05535 44.5679 3.05535 44.5679C2.98082 44.717 2.98082 44.7915 2.98082 44.7915C2.98082 44.7915 2.98082 44.7915 2.98082 44.866C2.3846 46.8038 1.8629 48.816 1.41573 50.9028L4.47139 51.6481C4.91856 49.5613 5.44026 47.4745 6.11101 45.4623L3.05535 44.4934ZM0.297804 57.6104C0.148747 58.7283 0.0742188 59.8462 0.0742188 61.0387C0.0742188 61.0387 0.0742188 61.0387 0.0742188 61.1132C0.0742188 61.1132 0.0742188 61.1132 0.0742188 61.1877C0.0742188 61.2623 0.0742188 61.4113 0.0742188 61.4858C0.0742188 61.4858 0.0742188 61.4858 0.0742188 61.5604C0.0742188 61.6349 0.0742188 61.6349 0.0742188 61.7094H3.27894V61.4858C3.27894 59.4736 3.35346 57.3868 3.57705 55.3745L0.297804 57.6104ZM3.57705 70.7274L0.372332 71.1C0.372332 71.1745 0.372332 71.3236 0.372332 71.3981C0.521389 72.6651 0.744973 74.0066 0.968558 75.2736C0.968558 75.3481 0.968558 75.3481 0.968558 75.4226C1.04309 76.0189 1.19214 76.5406 1.3412 77.1368L4.47139 76.466C4.09875 74.9755 3.80063 72.8141 3.57705 70.7274ZM6.26007 83.1736L3.20441 84.217C3.27894 84.366 3.35346 84.5896 3.35346 84.7387C3.87516 86.3783 4.54592 87.9434 5.21667 89.434C5.2912 89.583 5.2912 89.6575 5.36573 89.8066L8.27233 88.4651C7.67611 87.1981 6.93082 85.1858 6.26007 83.1736ZM11.5516 94.8L8.79403 96.4396C9.16667 97.1104 9.61384 97.7811 10.061 98.4519C10.061 98.5264 10.1355 98.5264 10.1355 98.6009C10.1355 98.6009 10.1355 98.6009 10.1355 98.6755C10.1355 98.6755 10.1355 98.6755 10.1355 98.75L10.2101 98.8245C10.2846 98.8991 10.2846 98.9736 10.3591 98.9736C10.3591 99.0481 10.4337 99.0481 10.4337 99.1226C10.5082 99.1972 10.5082 99.2717 10.5827 99.3462C10.6572 99.4208 10.7318 99.4953 10.7318 99.5698C11.0299 100.017 11.4025 100.464 11.7006 100.911L14.3091 99.0481C13.7874 98.4519 12.595 96.6632 11.5516 94.8ZM19.0789 105.085L16.694 107.246C16.9921 107.544 17.2157 107.842 17.5138 108.141C17.5138 108.141 17.5138 108.141 17.5138 108.215C18.7063 109.482 19.9733 110.675 21.2403 111.792L23.4016 109.408C22.0601 108.215 20.495 106.65 19.0789 105.085ZM28.6186 113.581L26.7554 116.19C28.4695 117.457 30.2582 118.575 32.1214 119.618C32.1959 119.618 32.1959 119.692 32.2704 119.692L33.8355 116.935C32.1214 115.966 30.3327 114.848 28.6186 113.581ZM39.7233 119.916L38.4563 122.823C38.8289 122.972 39.2016 123.121 39.5742 123.27C41.1393 123.866 42.7044 124.462 44.2695 124.984L45.2384 121.928C43.6733 121.481 41.661 120.736 39.7233 119.916ZM51.8714 123.792L51.2006 126.922C52.7657 127.22 54.3308 127.518 55.8959 127.667C56.5667 127.742 57.1629 127.816 57.8337 127.891L58.1318 124.686C56.045 124.462 53.9582 124.164 51.8714 123.792ZM70.9506 124.611C68.8638 124.835 66.7025 124.984 64.5412 124.984V128.189C66.7771 128.189 69.0129 128.04 71.2487 127.816L70.9506 124.611ZM83.3969 121.854C81.3846 122.525 79.2978 123.121 77.211 123.568L77.8818 126.698H77.9563H78.0308C78.1054 126.698 78.1054 126.698 78.1799 126.698C78.2544 126.698 78.3289 126.624 78.478 126.624C79.5959 126.325 80.6393 126.027 81.6827 125.655C81.7572 125.655 81.7572 125.655 81.8318 125.58L83.3969 121.854ZM95.0233 116.562C93.1601 117.68 91.2969 118.649 89.3591 119.543L90.7006 122.45C92.4148 121.705 94.0544 120.81 95.694 119.916C95.694 119.916 95.694 119.916 95.7686 119.916C95.7686 119.916 95.7686 119.916 95.8431 119.916C95.9176 119.916 95.9176 119.842 95.9921 119.842C95.9921 119.842 95.9921 119.842 96.0667 119.842C96.0667 119.842 96.1412 119.842 96.1412 119.767C96.1412 119.767 96.1412 119.767 96.2157 119.767C96.2157 119.767 96.2903 119.767 96.2903 119.692L95.0233 116.562ZM105.308 108.96C103.743 110.376 102.103 111.792 100.389 113.059L102.327 115.668C104.116 114.326 105.83 112.91 107.544 111.345L105.308 108.96ZM113.73 99.3462C112.463 101.06 111.196 102.775 109.78 104.34L112.165 106.426C113.357 105.01 114.55 103.594 115.668 102.104C115.668 102.029 115.742 102.029 115.742 101.955C115.742 101.955 115.742 101.955 115.742 101.88C115.742 101.88 115.742 101.806 115.817 101.806L113.73 99.3462ZM119.99 88.2415C119.17 90.1792 118.202 92.117 117.158 93.9802L119.916 95.5453C120.065 95.2472 120.214 95.0236 120.363 94.7255C121.183 93.1604 122.003 91.5953 122.673 89.9557L119.99 88.2415ZM123.791 76.0934C123.344 78.1802 122.822 80.267 122.226 82.2792L125.282 83.2481C125.505 82.4283 125.803 81.6085 126.027 80.7141C126.325 79.5962 126.549 78.4038 126.847 77.2858L123.791 76.0934ZM128.188 63.3491L124.984 63.4236C124.984 63.6472 124.984 63.9453 124.984 64.1689C124.984 66.0321 124.909 67.9698 124.76 69.833L127.965 70.1311C128.039 69.0877 128.114 68.1189 128.188 67.0755C128.188 67.0755 128.188 67.0755 128.188 67.0009C128.188 66.9264 128.188 66.8519 128.188 66.8519C128.188 66.7774 128.188 66.7774 128.188 66.7028C128.188 66.6283 128.188 66.6283 128.188 66.5538V66.4792V66.4047C128.188 66.4047 128.188 66.4047 128.188 66.3302C128.188 66.3302 128.188 66.3302 128.188 66.2557C128.188 66.2557 128.188 66.2557 128.188 66.1811C128.188 63.7217 128.188 63.4981 128.188 63.3491ZM126.623 50.0085L123.493 50.6792C123.94 52.766 124.313 54.8528 124.536 57.0141L127.741 56.6415V56.567C127.592 55.2255 127.369 53.884 127.145 52.5425C127.145 52.4679 127.145 52.4679 127.145 52.3934C127.145 52.3189 127.145 52.3189 127.145 52.2443C127.145 52.1698 127.145 52.1698 127.145 52.0953C126.698 50.2321 126.623 50.083 126.623 50.0085ZM122.301 37.2641L119.394 38.6057C120.288 40.5434 121.108 42.5557 121.779 44.5679L124.835 43.5245C124.313 41.8849 123.642 40.3198 122.971 38.7547V38.6802C122.971 38.6802 122.971 38.6802 122.971 38.6057C122.524 37.7113 122.45 37.4877 122.301 37.2641ZM115.444 25.7123L112.91 27.65C114.177 29.3641 115.37 31.1528 116.487 32.9415L119.245 31.3019C119.17 31.1528 119.021 31.0038 118.947 30.8547C118.947 30.7802 118.872 30.7802 118.872 30.7057C118.872 30.6311 118.798 30.6311 118.798 30.6311C118.798 30.6311 118.798 30.6311 118.798 30.5566C118.127 29.5132 117.456 28.4698 116.711 27.4264C116.711 27.4264 116.711 27.3519 116.636 27.3519C115.891 26.383 115.668 26.0104 115.444 25.7123ZM106.277 15.8745L104.19 18.2594C105.755 19.6755 107.32 21.166 108.736 22.7311L111.121 20.5698C109.631 18.9302 107.991 17.3651 106.277 15.8745ZM95.3214 8.12358L93.7563 10.9557C95.6195 11.9991 97.4082 13.117 99.1969 14.384L101.06 11.7755C99.3459 10.583 97.5572 9.46509 95.7686 8.4217C95.694 8.4217 95.694 8.34717 95.6195 8.34717C95.3959 8.12358 95.3959 8.12358 95.3214 8.12358C95.3959 8.12358 95.3959 8.12358 95.3214 8.12358C95.3959 8.12358 95.3959 8.12358 95.3214 8.12358C95.3959 8.12358 95.3959 8.12358 95.3214 8.12358ZM82.9497 2.83208L81.9808 5.88774C83.9931 6.48396 86.0054 7.22924 87.9431 8.12358L89.2101 5.14245C87.9431 4.62075 86.6761 4.09906 85.4091 3.65189H85.3346C85.3346 3.65189 85.2601 3.65189 85.2601 3.57736C84.1422 3.20472 83.5459 2.98113 82.9497 2.83208ZM69.7582 0.223585L69.4601 3.4283C71.5469 3.65189 73.7082 3.95 75.795 4.32264L76.3912 1.19245C75.1242 0.968868 73.8572 0.745283 72.5903 0.596226C72.5903 0.596226 72.5903 0.596226 72.5157 0.596226C72.5157 0.596226 72.5157 0.596226 72.4412 0.596226C71.1742 0.372642 70.5035 0.298113 69.7582 0.223585Z" fill="white"/>
<path d="M100.726 64.9347C100.313 65.8409 99.5681 66.3113 98.6599 66.6627C95.202 68.0029 91.7614 69.3929 88.313 70.7619C88.1172 70.8387 87.9175 70.9021 87.6641 70.9904V57.7231C87.8964 57.8057 88.1076 57.8748 88.3149 57.9574C91.7633 59.3263 95.2039 60.7145 98.6619 62.0566C99.57 62.408 100.317 62.8764 100.728 63.7846V64.9347H100.726Z" fill="white"/>
<path d="M27 63.7847C27.4013 62.9053 28.1117 62.4291 29.0006 62.0855C32.4816 60.7376 35.9453 59.3437 39.4148 57.969C39.6106 57.8922 39.8084 57.8211 40.0618 57.7271V70.9962C39.8295 70.9098 39.6202 70.8349 39.4148 70.7524C35.9453 69.3757 32.4816 67.9818 29.0006 66.634C28.1117 66.2903 27.4013 65.8141 27 64.9347V63.7847Z" fill="white"/>
<path d="M52.4896 52.8008C52.4896 54.8494 52.5088 56.7867 52.4819 58.7259C52.4666 59.8626 52.9447 60.6152 53.9661 61.1163C56.848 62.5275 59.7204 63.9579 62.5793 65.4171C63.4452 65.8587 64.2401 65.8837 65.1079 65.444C67.9918 63.9829 70.8833 62.5371 73.7825 61.1106C74.8039 60.6075 75.2647 59.8395 75.2474 58.7048C75.2186 56.7675 75.2398 54.8302 75.2398 52.8181C75.4779 52.8891 75.6602 52.9294 75.8292 52.9966C78.1447 53.9125 80.4545 54.8398 82.7758 55.7422C83.1675 55.8939 83.3153 56.0898 83.3134 56.5218C83.298 61.7422 83.298 66.9627 83.3134 72.1832C83.3134 72.6037 83.1944 72.8149 82.7912 72.9743C76.6471 75.4031 70.5108 77.853 64.3629 80.2741C64.0711 80.3893 63.6506 80.3778 63.3549 80.2607C57.2301 77.8453 51.1168 75.4012 44.992 72.9877C44.5254 72.8034 44.4122 72.5653 44.4141 72.0949C44.4314 66.9474 44.4314 61.7979 44.4141 56.6504C44.4141 56.1474 44.5466 55.9035 45.0381 55.7153C47.296 54.8513 49.5347 53.9374 51.7811 53.0427C51.977 52.9659 52.1786 52.9064 52.4896 52.8008Z" fill="white"/>
<path d="M83.3009 77.4209V78.1908C83.3009 82.9812 83.3028 87.7697 83.3009 92.5601C83.299 96.3022 80.8836 98.7118 77.1339 98.7137C68.2807 98.7137 59.4276 98.7157 50.5744 98.7137C46.8343 98.7137 44.4227 96.2945 44.4227 92.5467C44.4208 87.7563 44.4227 82.9678 44.4227 78.1774C44.4227 77.947 44.4227 77.7166 44.4227 77.3921C45.2234 77.7108 45.9299 77.9931 46.6346 78.2734C51.9971 80.4027 57.3636 82.5223 62.7204 84.6689C63.5076 84.9838 64.2295 84.9838 65.0129 84.6689C70.8612 82.3323 76.7153 80.0129 82.5675 77.6897C82.7844 77.6033 83.0072 77.5284 83.3028 77.419L83.3009 77.4209ZM63.8551 89.2308C63.4481 89.2308 63.041 89.2136 62.6359 89.2347C61.4647 89.2961 60.5585 90.2331 60.5527 91.3716C60.5469 92.5121 61.4436 93.4779 62.6129 93.5297C63.4481 93.5662 64.2871 93.5681 65.1223 93.5297C66.2877 93.4741 67.1825 92.4987 67.1709 91.362C67.1575 90.2216 66.2513 89.2923 65.0743 89.2366C64.6692 89.2174 64.2621 89.2328 63.8551 89.2347V89.2308Z" fill="white"/>
<path d="M44.4248 51.2317C44.4248 47.0269 44.4152 42.8604 44.4306 38.694C44.4344 37.3558 44.3653 35.9964 44.5688 34.6851C44.9855 31.9932 47.3336 30.0271 50.0677 30.0194C59.2569 29.9945 68.4479 29.9926 77.6371 30.0194C80.6995 30.0271 83.2493 32.4867 83.2819 35.5087C83.3395 40.6812 83.3011 45.8556 83.2992 51.0281C83.2992 51.0953 83.2723 51.1606 83.2512 51.2662C83.0592 51.2067 82.8768 51.1606 82.704 51.0915C80.4115 50.1814 78.1228 49.2617 75.8265 48.3632C75.431 48.2077 75.2102 48.0387 75.2236 47.5529C75.2467 46.6621 74.7993 45.9939 74.0025 45.5945C70.9632 44.07 67.918 42.5571 64.8748 41.0384C64.1798 40.6908 63.4982 40.7158 62.805 41.0614C59.806 42.5628 56.8031 44.0547 53.8021 45.5523C52.9535 45.9766 52.5215 46.6544 52.4716 47.6086C52.4601 47.8352 52.293 48.175 52.1087 48.2499C49.6281 49.2694 47.132 50.2505 44.6399 51.2374C44.6015 51.2528 44.5477 51.2355 44.4229 51.2278L44.4248 51.2317Z" fill="white"/>
<path d="M61.6994 60.1441C60.0578 59.3242 58.5256 58.562 56.9992 57.7844C56.9032 57.7345 56.8149 57.5636 56.813 57.4465C56.8015 55.3537 56.8053 53.2589 56.8053 51.0317C58.4488 51.8535 59.9829 52.6138 61.5074 53.3914C61.6034 53.4413 61.6898 53.6161 61.6898 53.7332C61.7013 55.826 61.6975 57.9207 61.6975 60.1441H61.6994Z" fill="white"/>
<path d="M70.9201 51.0415C70.9201 53.2687 70.924 55.3634 70.9125 57.4582C70.9125 57.5734 70.8222 57.7462 70.7243 57.7961C69.1998 58.5737 67.6657 59.334 66.028 60.1538C66.028 57.9209 66.0241 55.8242 66.0356 53.7295C66.0356 53.6143 66.1297 53.4454 66.2276 53.3954C67.7521 52.6197 69.2843 51.8594 70.9201 51.0415Z" fill="white"/>
<path d="M68.2363 47.5454C66.7521 48.2884 65.3947 48.9738 64.0315 49.6401C63.9278 49.69 63.7473 49.6554 63.6321 49.5998C62.3054 48.9489 60.9825 48.2865 59.5156 47.5569C60.0609 47.2746 60.4871 47.0404 60.9211 46.8292C61.906 46.3473 62.8987 45.5025 63.8856 45.5044C64.8744 45.5063 65.8632 46.3588 66.8481 46.8407C67.2686 47.0481 67.6852 47.265 68.2363 47.5454Z" fill="white"/>
<defs>
<linearGradient id="paint0_linear_45_519" x1="0" y1="0" x2="150.5" y2="7.54511" gradientUnits="userSpaceOnUse">
<stop stop-color="#2B8F27"/>
<stop offset="1" stop-color="#2500FF"/>
</linearGradient>
</defs>
</svg>
