<svg width="129" height="129" viewBox="0 0 129 129" fill="none" xmlns="http://www.w3.org/2000/svg">
<path d="M64.0943 128.189C99.4927 128.189 128.189 99.4927 128.189 64.0943C128.189 28.696 99.4927 0 64.0943 0C28.696 0 0 28.696 0 64.0943C0 99.4927 28.696 128.189 64.0943 128.189Z" fill="url(#paint0_linear_44_483)"/>
<path d="M71.6099 65.099C71.544 69.6091 70.8129 73.9418 68.5402 77.8945C65.8428 82.5842 61.731 85.1756 56.5134 85.9426C52.1063 86.5922 47.8423 86.0555 43.9439 83.6991C39.6935 81.1308 37.339 77.139 36.2446 72.3985C34.9141 66.6238 35.0481 60.8537 37.1301 55.2403C39.605 48.5696 45.4969 44.405 52.5264 44.2207C57.8552 44.0802 62.6187 45.4346 66.3673 49.491C69.2304 52.5914 70.6336 56.392 71.2262 60.5244C71.4419 62.0354 71.4873 63.5718 71.6099 65.0967V65.099ZM65.5931 65.2187C65.45 63.7353 65.3751 62.2381 65.139 60.7708C64.9641 59.6836 64.644 58.6079 64.2785 57.5691C62.5847 52.7687 58.7725 49.8019 54.1906 49.6637C48.7846 49.5002 44.8861 51.8934 42.9017 56.9471C40.6358 62.7149 40.7311 68.5748 43.2287 74.2435C45.0201 78.3091 48.2737 80.548 52.7148 80.8014C57.5215 81.0755 61.1088 79.0393 63.427 74.7595C65.0323 71.795 65.5227 68.5633 65.5931 65.2233V65.2187Z" fill="white"/>
<path d="M104.129 55.5651C102.288 55.5651 100.592 55.5812 98.898 55.5444C98.6823 55.5398 98.3304 55.2772 98.2827 55.0768C97.1452 50.2557 92.3613 48.9773 88.3902 49.5601C87.0823 49.7513 85.7337 50.2511 84.6007 50.9398C81.556 52.7941 80.7091 58.1081 85.1002 60.0084C87.4751 61.0358 90.0453 61.5909 92.5247 62.3694C94.4297 62.9683 96.3778 63.4613 98.2259 64.2099C102.122 65.7877 104.558 68.6048 104.756 73.0136C104.963 77.6089 103.369 81.3635 99.3839 83.8028C95.8919 85.9427 92.0184 86.4149 88.0314 86.1039C84.5712 85.8344 81.3493 84.8624 78.7065 82.4507C76.4768 80.4145 75.2712 77.8669 75.1055 74.6237C76.9695 74.6237 78.7292 74.6121 80.4888 74.6421C80.6478 74.6444 80.9043 74.8678 80.9452 75.0337C81.9419 79.0094 84.9276 80.3615 88.4901 80.9051C90.8605 81.2667 93.1627 80.9535 95.322 79.8547C98.0579 78.4635 99.3544 75.6487 98.5007 73.002C97.9262 71.2215 96.6003 70.0997 94.9723 69.5077C92.6746 68.6716 90.2883 68.0819 87.9429 67.3771C86.1741 66.845 84.36 66.4212 82.6549 65.7278C78.761 64.1477 76.3452 61.3145 76.0886 56.9287C75.8184 52.2758 77.5145 48.4982 81.6286 46.3077C87.2481 43.3155 93.0197 43.2925 98.6256 46.4482C101.666 48.1596 103.434 50.9053 104.052 54.3858C104.111 54.7175 104.1 55.063 104.129 55.5674V55.5651Z" fill="white"/>
<path d="M30.1892 85.2328C28.4432 85.2328 26.7925 85.2558 25.1442 85.2028C24.9421 85.1959 24.631 84.8159 24.5856 84.5671C24.4948 84.0857 24.5538 83.5766 24.5561 83.0791C24.5902 74.2754 24.6424 65.4694 24.6333 56.6657C24.6333 55.5393 24.9784 55.1777 26.0501 55.2514C27.1013 55.3228 28.1639 55.2721 29.2197 55.2353C29.8918 55.2123 30.2187 55.4702 30.1483 56.1728C30.1324 56.3248 30.1483 56.4791 30.1483 56.6312C30.162 65.7044 30.1779 74.7752 30.1915 83.8484C30.1915 84.2607 30.1915 84.673 30.1915 85.2305L30.1892 85.2328Z" fill="white"/>
<path d="M30.8739 45.8833C30.8739 47.9173 29.3822 49.4536 27.3955 49.4675C25.4179 49.4813 23.7355 47.8021 23.7741 45.8511C23.8127 43.9162 25.4452 42.2324 27.3138 42.1979C29.2551 42.161 30.8762 43.8379 30.8762 45.881L30.8739 45.8833Z" fill="white"/>
<path d="M64.0815 0C64.0751 0 64.0623 0 64.0559 0C64.0495 0 64.0495 0 64.0431 0C64.0367 0 64.0303 0 64.0303 0C64.0238 0 64.0174 0 64.011 0H64.0046C63.9982 0 63.9918 0 63.9918 0C63.9854 0 63.9854 0 63.979 0C63.9726 0 63.9662 0 63.9662 0C63.9597 0 63.9597 0 63.9533 0C63.9469 0 63.9469 0 63.9405 0C63.9341 0 63.9341 0 63.9277 0C63.9213 0 63.9213 0 63.9149 0C63.9085 0 63.9085 0 63.9021 0C63.8956 0 63.8956 0 63.8892 0C63.8828 0 63.8828 0 63.8764 0C63.87 0 63.87 0 63.8636 0C63.8572 0 63.8572 0 63.8508 0C63.8444 0 63.8444 0 63.838 0C63.8316 0 63.8316 0 63.8251 0H63.8123C63.8059 0 63.8059 0 63.7995 0C63.7931 0 63.7931 0 63.7867 0C63.7803 0 63.7803 0 63.7739 0C63.7675 0 63.7675 0 63.7611 0C63.7546 0 63.7546 0 63.7482 0C63.7418 0 63.7418 0 63.7354 0C63.729 0 63.729 0 63.7226 0C63.7162 0 63.7162 0 63.7098 0C63.7034 0 63.7034 0 63.697 0C63.6905 0 63.6905 0 63.6841 0C63.6777 0 63.6777 0 63.6713 0C63.6649 0 63.6649 0 63.6585 0C63.6521 0 63.6521 0 63.6457 0C63.6393 0 63.6393 0 63.6329 0C63.6265 0 63.6265 0 63.62 0C63.6136 0 63.6136 0 63.6072 0C63.6008 0 63.6008 0 63.5944 0C63.588 0 63.588 0 63.5816 0C63.5752 0 63.5752 0 63.5688 0C63.5624 0 63.5624 0 63.5559 0C63.5495 0 63.5495 0 63.5431 0C63.5367 0 63.5367 0 63.5303 0C63.5239 0 63.5175 0 63.5175 0C63.5111 0 63.5111 0 63.5047 0C63.4983 0 63.4919 0 63.4919 0C63.4854 0 63.4854 0 63.479 0C63.4726 0 63.4662 0 63.4662 0C63.4598 0 63.4598 0 63.4534 0C63.447 0 63.447 0 63.4406 0C63.4342 0 63.4342 0 63.4278 0C63.4213 0 63.4149 0 63.4149 0C63.4085 0 63.4085 0 63.4021 0C63.3957 0 63.3893 0 63.3893 0C63.3893 0 63.3829 0 63.3765 0C63.3701 0 63.3637 0 63.3637 0C63.3637 0 63.3573 0 63.3508 0C63.3444 0 63.338 0 63.338 0C63.338 0 63.3316 0 63.3252 0C63.3188 0 63.3124 0 63.3124 0C63.3124 0 63.306 0 63.2996 0C63.2932 0 63.2868 0 63.2803 0C63.2803 0 63.2739 0 63.2675 0C63.2611 0 63.2547 0 63.2547 0C63.2483 0 63.2483 0 63.2419 0C63.2355 0 63.2291 0 63.2227 0C63.2162 0 63.2162 0 63.2162 0C63.2098 0 63.2034 0 63.197 0C63.1906 0 63.1906 0 63.1906 0C63.1842 0 63.1778 0 63.1714 0C63.165 0 63.165 0 63.165 0C63.1586 0 63.1522 0 63.1457 0C63.1393 0 63.1393 0 63.1393 0C63.1329 0 63.1265 0 63.1201 0C63.1201 0 63.1201 0 63.1137 0C63.1073 0 63.0945 0 63.0881 0C63.0688 0 63.056 0 63.0368 0H63.0304C63.024 0 63.0176 0 63.0111 0C63.0047 0 63.0047 0 63.0047 0C62.9983 0 62.9919 0 62.9855 0C62.9791 0 62.9791 0 62.9791 0C62.9727 0 62.9663 0 62.9599 0C62.9535 0 62.9535 0 62.9535 0C62.9471 0 62.9406 0 62.9342 0C62.9278 0 62.9278 0 62.9214 0C62.915 0 62.9086 0 62.9022 0C62.8958 0 62.8958 0 62.8958 0C62.8894 0 62.883 0 62.8765 0C62.8701 0 62.8701 0 62.8701 0C62.8637 0 62.8573 0 62.8509 0H62.8445C62.8381 0 62.8317 0 62.8253 0C62.8189 0 62.8189 0 62.8125 0C62.806 0 62.7996 0 62.7996 0C62.7996 0 62.7932 0 62.7868 0C62.7804 0 62.774 0 62.774 0C62.774 0 62.7676 0 62.7612 0C62.7548 0 62.7484 0 62.7484 0C62.7484 0 62.742 0 62.7355 0C62.7291 0 62.7227 0 62.7227 0C62.7227 0 62.7163 0 62.7099 0C62.7035 0 62.6971 0 62.6971 0C62.6971 0 62.6907 0 62.6843 0C62.6779 0 62.6714 0 62.665 0C62.665 0 62.6586 0 62.6522 0C62.6458 0 62.6394 0 62.633 0C62.6266 0 62.6266 0 62.6202 0C62.6138 0 62.6074 0 62.6074 0C62.6009 0 62.6009 0 62.5945 0C62.5881 0 62.5817 0 62.5817 0C62.5753 0 62.5753 0 62.5689 0C62.5625 0 62.5561 0 62.5497 0C62.5433 0 62.5433 0 62.5433 0C62.5368 0 62.5304 0 62.524 0C62.5176 0 62.5176 0 62.5112 0C62.5048 0 62.4984 0 62.4984 0C62.492 0 62.492 0 62.4856 0C62.4792 0 62.4728 0 62.4663 0C62.4599 0 62.4599 0 62.4535 0C62.4471 0 62.4407 0 62.4343 0C62.4279 0 62.4279 0 62.4279 0C62.4215 0 62.4151 0 62.4087 0H62.4022C62.3958 0 62.3894 0 62.383 0C62.383 0 62.3766 0 62.3702 0C62.3638 0 62.3574 0 62.3574 0C62.3574 0 62.351 0 62.3446 0C62.3382 0 62.3317 0 62.3253 0H62.3189C62.3125 0 62.3061 0 62.2997 0H62.2933C62.2869 0 62.2805 0 62.2741 0H62.2677C62.2612 0 62.2548 0 62.2484 0H62.242C62.2356 0 62.2292 0 62.2228 0H62.2164C62.21 0 62.2036 0 62.1907 0H62.1843C62.1779 0 62.1715 0 62.1651 0H62.1587C62.1523 0 62.1459 0 62.1395 0C62.1395 0 62.1395 0 62.1331 0C62.0177 0.00640943 61.9023 0.00640943 61.7934 0.0128189C61.7869 0.0128189 61.7741 0.0128189 61.7677 0.0128189C61.7613 0.0128189 61.7485 0.0128189 61.7421 0.0128189H61.7357C61.7293 0.0128189 61.7229 0.0128189 61.71 0.0128189C61.7036 0.0128189 61.6972 0.0128189 61.6844 0.0128189C61.6844 0.0128189 61.6844 0.0128189 61.678 0.0128189C61.6716 0.0128189 61.6652 0.0128189 61.6523 0.0128189C61.6459 0.0128189 61.6395 0.0128189 61.6267 0.0128189C61.6267 0.0128189 61.6267 0.0128189 61.6203 0.0128189C61.6139 0.0128189 61.6075 0.0128189 61.5947 0.0128189C61.5883 0.0128189 61.5754 0.0128189 61.569 0.0128189C61.5626 0.0128189 61.5498 0.0128189 61.5434 0.0128189C61.537 0.0128189 61.5306 0.0128189 61.5177 0.0128189H61.5113C61.5049 0.0128189 61.4985 0.0128189 61.4857 0.0128189C61.4793 0.0128189 61.4729 0.0128189 61.4601 0.0128189C61.4537 0.0128189 61.4408 0.0128189 61.4344 0.0128189C61.428 0.0128189 61.4152 0.0128189 61.4088 0.0128189C61.4024 0.0128189 61.3896 0.0128189 61.3832 0.0128189C61.3767 0.0128189 61.3639 0.0128189 61.3575 0.0128189C61.3511 0.0128189 61.3383 0.0128189 61.3319 0.0128189C61.3255 0.0128189 61.3126 0.0128189 61.3062 0.0128189C59.9731 0.0705038 58.6527 0.166645 57.3388 0.301243L57.6721 3.48673C59.7808 3.26881 61.928 3.15344 64.0559 3.15344V0H64.0815ZM50.7179 1.39726C50.7114 1.39726 50.705 1.39726 50.6986 1.40367C50.6922 1.40367 50.6858 1.40367 50.6794 1.41008C50.6794 1.41008 50.6794 1.41008 50.673 1.41008C50.6666 1.41008 50.6602 1.41008 50.6538 1.41648C50.6538 1.41648 50.6538 1.41648 50.6474 1.41648C50.6409 1.41648 50.6345 1.41648 50.6281 1.42289H50.6217C50.6153 1.42289 50.6089 1.42289 50.6025 1.4293H50.5961C50.5897 1.4293 50.5833 1.4293 50.5833 1.4293C50.5768 1.4293 50.5768 1.4293 50.5704 1.4293C50.564 1.4293 50.5576 1.4293 50.5576 1.4293C50.5512 1.4293 50.5512 1.4293 50.5448 1.4293C50.5384 1.4293 50.5384 1.4293 50.532 1.4293C50.5256 1.4293 50.5256 1.4293 50.5192 1.4293C50.5128 1.4293 50.5128 1.4293 50.5063 1.4293C50.4999 1.4293 50.4999 1.4293 50.4935 1.4293C50.4871 1.4293 50.4871 1.4293 50.4807 1.4293C50.4743 1.4293 50.4679 1.4293 50.4615 1.43571C50.4551 1.43571 50.4551 1.43571 50.4551 1.43571C50.423 1.44212 50.3846 1.44853 50.3525 1.45494C50.3461 1.45494 50.3397 1.46135 50.3269 1.46135H50.3205C50.3141 1.46135 50.3076 1.46135 50.3012 1.46776C50.3012 1.46776 50.3012 1.46776 50.2948 1.46776C50.2884 1.46776 50.282 1.46776 50.2756 1.47417C50.2692 1.47417 50.2628 1.48058 50.25 1.48058C50.2436 1.48058 50.2371 1.48699 50.2243 1.48699C50.2179 1.48699 50.2115 1.4934 50.1987 1.4934C50.1923 1.4934 50.1795 1.49981 50.173 1.49981C49.5385 1.64081 48.904 1.78823 48.2759 1.94847C48.2695 1.94847 48.263 1.95488 48.2502 1.95488H48.2438C48.2374 1.95488 48.231 1.96129 48.2246 1.96129H48.2182C48.2118 1.96129 48.2054 1.96129 48.1989 1.9677H48.1925C48.1861 1.9677 48.1797 1.9677 48.1733 1.97411H48.1669C48.1605 1.97411 48.1541 1.97411 48.1477 1.98051C48.1413 1.98051 48.1413 1.98051 48.1413 1.98051C48.1348 1.98051 48.1284 1.98052 48.1284 1.98692C48.122 1.98692 48.122 1.98692 48.122 1.98692C48.1156 1.98692 48.1092 1.98692 48.1028 1.99333H48.0964C48.09 1.99333 48.0836 1.99333 48.0836 1.99974H48.0772C48.0708 1.99974 48.0643 1.99974 48.0643 2.00615C48.0643 2.00615 48.0579 2.00615 48.0515 2.00615C48.0451 2.00615 48.0451 2.00615 48.0387 2.01256C48.0323 2.01256 48.0323 2.01256 48.0259 2.01256C48.0195 2.01256 48.0195 2.01256 48.0131 2.01897C48.0067 2.01897 48.0067 2.01897 48.0003 2.01897C47.9938 2.01897 47.9938 2.01897 47.9874 2.02538C47.981 2.02538 47.981 2.02538 47.9746 2.02538H47.9682C47.9426 2.03179 47.9105 2.0382 47.8849 2.04461H47.8785C47.8721 2.04461 47.8657 2.05102 47.8528 2.05102C47.8464 2.05102 47.84 2.05743 47.8336 2.05743C47.8336 2.05743 47.8336 2.05743 47.8272 2.05743C47.8208 2.05743 47.8144 2.06384 47.808 2.06384C47.808 2.06384 47.808 2.06384 47.8016 2.06384C47.7952 2.06384 47.7887 2.07025 47.7823 2.07025H47.7759C47.7695 2.07025 47.7631 2.07025 47.7567 2.07666C47.7567 2.07666 47.7567 2.07666 47.7503 2.07666C47.7439 2.07666 47.7375 2.08307 47.7311 2.08307C47.7246 2.08307 47.7182 2.08948 47.7118 2.08948C47.7054 2.08948 47.699 2.09588 47.6926 2.09588C46.5261 2.40354 45.3724 2.74324 44.2379 3.11498L45.2314 6.15947C47.2504 5.5057 49.327 4.94808 51.4037 4.50583L50.7179 1.39726ZM37.9439 5.55698C35.8864 6.47353 33.8931 7.49904 31.9574 8.62069L33.5662 11.3896C35.4057 10.3256 37.3157 9.34495 39.2514 8.47968L37.9439 5.55698ZM26.3235 12.2997C26.112 12.4535 25.9005 12.6138 25.689 12.7676C25.6826 12.774 25.6762 12.7804 25.6698 12.7804C25.6634 12.7868 25.657 12.7868 25.6506 12.7932C25.6441 12.7932 25.6506 12.7932 25.6441 12.7996C25.6377 12.806 25.6313 12.806 25.6313 12.8125L25.6249 12.8189C25.6185 12.8253 25.6185 12.8253 25.6121 12.8317L25.6057 12.8381C25.5993 12.8445 25.5993 12.8445 25.5929 12.8509C25.5865 12.8509 25.5865 12.8509 25.5865 12.8573C25.5801 12.8573 25.5801 12.8637 25.5736 12.8637L25.5672 12.8701L25.5608 12.8766C25.5416 12.8894 25.5288 12.9022 25.5095 12.915C25.5031 12.9214 25.4967 12.9214 25.4903 12.9278C25.4839 12.9342 25.4775 12.9342 25.4711 12.9406C25.4711 12.9406 25.4711 12.9406 25.4647 12.9406C25.4583 12.9471 25.4519 12.9471 25.4455 12.9535C25.439 12.9599 25.4326 12.9599 25.4262 12.9663C24.0802 13.9854 22.7855 15.0493 21.5229 16.171C21.5165 16.1774 21.5101 16.1838 21.5037 16.1838C21.4972 16.1902 21.4908 16.1902 21.4908 16.1966C21.4908 16.1966 21.4908 16.1966 21.4844 16.203C21.478 16.2095 21.478 16.2095 21.4716 16.2159C21.4652 16.2223 21.4652 16.2223 21.4588 16.2287C21.4588 16.2287 21.4588 16.2287 21.4524 16.2351C21.446 16.2415 21.4396 16.2415 21.4396 16.2479C21.4396 16.2479 21.4396 16.2479 21.4331 16.2543C21.4267 16.2607 21.4203 16.2607 21.4203 16.2671C21.4203 16.2671 21.4203 16.2671 21.4139 16.2736C21.4011 16.2864 21.3883 16.2992 21.3755 16.3056C21.3691 16.312 21.3691 16.312 21.3626 16.3184C21.3626 16.3184 21.3626 16.3184 21.3562 16.3248C21.3498 16.3312 21.3498 16.3312 21.3434 16.3376L21.337 16.3441C21.3306 16.3505 21.3306 16.3505 21.3242 16.3569C21.3242 16.3569 21.3242 16.3569 21.3178 16.3633C21.3114 16.3697 21.305 16.3697 21.305 16.3761C21.305 16.3761 21.305 16.3761 21.2985 16.3761C21.2921 16.3825 21.2857 16.3889 21.2793 16.3889C21.2729 16.3953 21.2665 16.4017 21.2601 16.4017C21.2088 16.4466 21.1575 16.4979 21.1063 16.5427L23.2534 18.9206C24.8301 17.4978 26.4966 16.139 28.2143 14.8891L26.3235 12.2997ZM16.3569 21.3114C14.8571 22.9778 13.447 24.7276 12.1331 26.5479L14.7289 28.4258C15.9723 26.7081 17.3247 25.0352 18.7412 23.4521L16.3569 21.3114ZM8.47968 32.1946C7.63364 33.6688 6.83887 35.1814 6.10819 36.7261C6.10178 36.7325 6.10178 36.7389 6.10178 36.7453C6.10178 36.7453 6.10178 36.7453 6.10178 36.7517C6.09537 36.7581 6.09537 36.7645 6.09537 36.7709C6.09537 36.7709 6.09537 36.7709 6.09537 36.7773C6.09537 36.7837 6.08896 36.7901 6.08896 36.7966V36.803C6.08896 36.8094 6.08255 36.8158 6.08255 36.8222V36.8286C6.08255 36.835 6.07614 36.8414 6.07614 36.8414C6.07614 36.8414 6.07614 36.8478 6.06973 36.8478C6.06973 36.8542 6.06333 36.8606 6.06333 36.8606V36.8671C6.06333 36.8735 6.05692 36.8799 6.05692 36.8863V36.8927C6.05692 36.8991 6.05051 36.9055 6.05051 36.9119C6.0441 36.9183 6.0441 36.9247 6.0441 36.9312C6.0441 36.9312 6.0441 36.9312 6.0441 36.9376C6.03769 36.9504 6.03128 36.9632 6.03128 36.9696C6.03128 36.9696 6.03128 36.976 6.02487 36.976C6.02487 36.9824 6.01846 36.9824 6.01846 36.9888C6.01846 36.9952 6.01846 36.9953 6.01205 37.0017C6.01205 37.0081 6.00564 37.0081 6.00564 37.0145C6.00564 37.0209 5.99923 37.0209 5.99923 37.0273C5.99923 37.0273 5.99282 37.0337 5.99282 37.0401C5.99282 37.0465 5.98641 37.0465 5.98641 37.0529C5.98641 37.0593 5.98 37.0593 5.98 37.0658C5.98 37.0722 5.97359 37.0722 5.97359 37.0786C5.97359 37.085 5.97359 37.085 5.96718 37.0914C5.96718 37.0978 5.96077 37.0978 5.96077 37.1042C5.96077 37.1106 5.96077 37.1106 5.95436 37.1106C5.95436 37.117 5.94796 37.1234 5.94796 37.1234C5.94796 37.1298 5.94796 37.1298 5.94155 37.1298C5.94155 37.1363 5.93514 37.1427 5.93514 37.1427C5.93514 37.1427 5.93514 37.1491 5.92873 37.1491C5.92873 37.1555 5.92232 37.1619 5.92232 37.1683V37.1747C5.92232 37.1811 5.91591 37.1875 5.91591 37.1939C5.89668 37.2324 5.87745 37.2709 5.85822 37.3157C5.85181 37.3221 5.85181 37.3285 5.8454 37.3414C5.83899 37.3478 5.83899 37.3542 5.83259 37.367C5.82618 37.3734 5.82618 37.3798 5.81977 37.3926C5.81336 37.399 5.81336 37.4055 5.80695 37.4183C5.80054 37.4247 5.80054 37.4311 5.79413 37.4439C5.67876 37.7003 5.56339 37.9567 5.44802 38.213L8.37713 39.5078C9.23599 37.5657 10.2102 35.6493 11.2678 33.8098L8.47968 32.1946ZM3.04448 44.4815C3.04448 44.4879 3.04448 44.4879 3.04448 44.4879C3.04448 44.4943 3.04448 44.4943 3.03807 44.5007C3.03807 44.5071 3.03807 44.5071 3.03166 44.5135C3.03166 44.5199 3.03166 44.5199 3.02525 44.5263C3.02525 44.5327 3.02525 44.5327 3.01884 44.5392C3.01884 44.5456 3.01884 44.5456 3.01243 44.552C3.01243 44.5584 3.01243 44.5584 3.00602 44.5648C3.00602 44.5712 3.00602 44.5712 2.99962 44.5776C2.99962 44.584 2.99962 44.584 2.99321 44.5904C2.99321 44.5968 2.99321 44.5968 2.9868 44.6032C2.9868 44.6097 2.9868 44.6097 2.98039 44.6161C2.98039 44.6225 2.98039 44.6225 2.97398 44.6289C2.97398 44.6353 2.97398 44.6353 2.96757 44.6417C2.96757 44.6481 2.96757 44.6481 2.96757 44.6545C2.96757 44.6609 2.96757 44.6609 2.96116 44.6673C2.96116 44.6738 2.96116 44.6737 2.96116 44.6802C2.96116 44.6866 2.96116 44.693 2.95475 44.693C2.95475 44.693 2.95475 44.693 2.95475 44.6994C2.95475 44.7058 2.94834 44.7122 2.94834 44.7186C2.94834 44.7186 2.94834 44.7186 2.94834 44.725C2.93552 44.7699 2.9227 44.8148 2.90347 44.8596C2.89706 44.8724 2.89706 44.8917 2.89065 44.9045C2.89065 44.9109 2.88425 44.9173 2.88425 44.9237C2.88425 44.9301 2.87784 44.9365 2.87784 44.9429C2.87784 44.9429 2.87784 44.9429 2.87784 44.9494C2.87784 44.9558 2.87143 44.9622 2.87143 44.9686C2.87143 44.975 2.86502 44.9814 2.86502 44.9878C2.86502 44.9942 2.85861 45.0006 2.85861 45.0135C2.85861 45.0199 2.8522 45.0263 2.8522 45.0391C2.35867 46.6286 1.92283 48.2502 1.55108 49.891C1.55108 49.8974 1.54467 49.9038 1.54467 49.9167C1.54467 49.9231 1.53826 49.9295 1.53826 49.9423C1.53826 49.9487 1.53826 49.9551 1.53185 49.9615C1.53185 49.9615 1.53185 49.9615 1.53185 49.9679C1.53185 49.9743 1.53185 49.9808 1.52545 49.9872V49.9936C1.52545 50 1.52545 50.0064 1.51904 50.0128V50.0192C1.51904 50.0256 1.51904 50.032 1.51263 50.0384V50.0449C1.51263 50.0513 1.51263 50.0577 1.50622 50.0641V50.0705C1.50622 50.0769 1.50622 50.0833 1.49981 50.0897C1.49981 50.0961 1.49981 50.0961 1.49981 50.1025C1.49981 50.109 1.49981 50.109 1.49981 50.1154C1.4934 50.1346 1.4934 50.1474 1.48699 50.1666V50.173C1.48699 50.1795 1.48699 50.1859 1.48058 50.1923C1.48058 50.1923 1.48058 50.1923 1.48058 50.1987C1.48058 50.2051 1.47417 50.2115 1.47417 50.2243C1.47417 50.2307 1.46776 50.2435 1.46776 50.25C1.46776 50.2564 1.46135 50.2692 1.46135 50.2756C1.41008 50.5192 1.3588 50.7563 1.30752 50.9999L4.44815 51.6536C4.87758 49.577 5.42879 47.4939 6.07614 45.4749L3.04448 44.4815ZM0.307653 57.6336C0.134598 59.3578 0.0320472 61.1075 0 62.8701C0 62.8765 0 62.8829 0 62.8958C0 62.9022 0 62.9086 0 62.9214C0 62.9278 0 62.9342 0 62.947C0 62.9535 0 62.9599 0 62.9663C0 62.9663 0 62.9663 0 62.9727C0 62.9791 0 62.9855 0 62.9919C0 62.9919 0 62.9919 0 62.9983C0 63.0047 0 63.0111 0 63.0176C0 63.0176 0 63.0175 0 63.024C0 63.0304 0 63.0368 0 63.0432C0 63.0432 0 63.0432 0 63.0496C0 63.056 0 63.0624 0 63.0688V63.0752C0 63.0816 0 63.0881 0 63.0945C0 63.0945 0 63.0945 0 63.1009C0 63.1073 0 63.1137 0 63.1201V63.1265C0 63.1329 0 63.1393 0 63.1457V63.1521C0 63.1586 0 63.165 0 63.1714V63.1778C0 63.1842 0 63.1906 0 63.197C0 63.2034 0 63.197 0 63.2034C0 63.2098 0 63.2162 0 63.2227C0 63.2291 0 63.2291 0 63.2291C0 63.2355 0 63.2419 0 63.2483V63.2547C0 63.2611 0 63.2675 0 63.2739C0 63.2803 0 63.2803 0 63.2803C0 63.2867 0 63.2932 0 63.2996V63.306C0 63.3124 0 63.3188 0 63.3252V63.3316C0 63.338 0 63.3444 0 63.3508V63.3573C0 63.3637 0 63.3701 0 63.3765V63.3829C0 63.3893 0 63.3957 0 63.4021V63.4085C0 63.4149 0 63.4213 0 63.4278V63.4342C0 63.4406 0 63.447 0 63.4534V63.4598C0 63.4662 0 63.4726 0 63.479C0 63.479 0 63.4854 0 63.4918C0 63.4983 0 63.5047 0 63.5047V63.5111C0 63.5175 0 63.5239 0 63.5239C0 63.5239 0 63.5303 0 63.5367C0 63.5431 0 63.5495 0 63.5495V63.5559C0 63.5624 0 63.5688 0 63.5688C0 63.5688 0 63.5752 0 63.5816C0 63.588 0 63.5944 0 63.5944C0 63.5944 0 63.6008 0 63.6072C0 63.6136 0 63.62 0 63.62C0 63.62 0 63.6264 0 63.6329C0 63.6393 0 63.6457 0 63.6457C0 63.6457 0 63.6521 0 63.6585C0 63.6649 0 63.6713 0 63.6713C0 63.6777 0 63.6777 0 63.6841C0 63.6905 0 63.6905 0 63.6969C0 63.7034 0 63.7034 0 63.7098C0 63.7162 0 63.7162 0 63.7226C0 63.729 0 63.729 0 63.7354C0 63.7418 0 63.7418 0 63.7482C0 63.7546 0 63.7546 0 63.761C0 63.7675 0 63.7675 0 63.7739C0 63.7803 0 63.7803 0 63.7867C0 63.7931 0 63.7931 0 63.7995C0 63.8059 0 63.8123 0 63.8123C0 63.8187 0 63.8187 0 63.8251C0 63.8315 0 63.838 0 63.838C0 63.8444 0 63.8444 0 63.8508C0 63.8572 0 63.8572 0 63.8636C0 63.87 0 63.87 0 63.8764C0 63.8828 0 63.8892 0 63.8892C0 63.8956 0 63.8956 0 63.9021C0 63.9085 0 63.9085 0 63.9149C0 63.9213 0 63.9213 0 63.9277C0 63.9341 0 63.9405 0 63.9405C0 63.9469 0 63.9469 0 63.9533C0 63.9597 0 63.9597 0 63.9661C0 63.9726 0 63.9726 0 63.979C0 63.9854 0 63.9918 0 63.9918C0 63.9982 0 63.9982 0 64.0046C0 64.011 0 64.011 0 64.0174C0 64.0238 0 64.0238 0 64.0302C0 64.0367 0 64.0431 0 64.0431C0 64.0495 0 64.0495 0 64.0559C0 64.0623 0 64.0751 0 64.0815C0 64.0943 0 64.1007 0 64.1136V64.12C0 64.1264 0 64.1328 0 64.1392C0 64.1456 0 64.1456 0 64.1456C0 64.152 0 64.1648 0 64.1712C0 64.2225 0 64.2802 0 64.3315L3.20472 64.3187C3.20472 64.2353 3.20472 64.152 3.20472 64.0751C3.20472 62.0241 3.30727 59.9603 3.51237 57.9349L0.307653 57.6336ZM3.55083 70.7217L0.365338 71.0678C0.416613 71.5613 0.474298 72.0484 0.544802 72.542C0.544802 72.5484 0.544802 72.5612 0.551211 72.5676C0.551211 72.574 0.551211 72.5868 0.557621 72.5932C0.557621 72.5932 0.557621 72.5932 0.557621 72.5996C0.557621 72.6061 0.557621 72.6125 0.557621 72.6253C0.557621 72.6317 0.557621 72.6381 0.557621 72.6445V72.6509C0.557621 72.6573 0.557621 72.6637 0.557621 72.6702C0.557621 72.6702 0.557621 72.6702 0.557621 72.6766C0.557621 72.683 0.557621 72.6894 0.557621 72.6958V72.7022C0.557621 72.7086 0.557621 72.715 0.557621 72.7214V72.7278C0.557621 72.7342 0.557621 72.7407 0.557621 72.7471V72.7535C0.557621 72.7599 0.557621 72.7663 0.557621 72.7727C0.557621 72.7727 0.557621 72.7727 0.557621 72.7791C0.557621 72.7855 0.557621 72.7919 0.557621 72.7983V72.8048C0.557621 72.8112 0.557621 72.8176 0.557621 72.824V72.8304C0.557621 72.8368 0.557621 72.8432 0.56403 72.856C0.57044 72.8881 0.57044 72.9265 0.576849 72.9586C0.576849 72.965 0.576849 72.9778 0.583259 72.9842C0.583259 72.9842 0.583259 72.9842 0.583259 72.9906C0.583259 72.997 0.583259 73.0034 0.583259 73.0099C0.583259 73.0163 0.583259 73.0099 0.583259 73.0163C0.583259 73.0227 0.583259 73.0291 0.583259 73.0355V73.0419C0.583259 73.0483 0.583259 73.0547 0.583259 73.0611V73.0675C0.583259 73.074 0.583259 73.0804 0.583259 73.0868V73.0932C0.583259 73.0996 0.583259 73.106 0.583259 73.1124C0.583259 73.1124 0.583259 73.1188 0.583259 73.1252C0.583259 73.1316 0.583259 73.138 0.583259 73.138C0.583259 73.1445 0.583259 73.1445 0.583259 73.1509C0.583259 73.1573 0.583259 73.1637 0.583259 73.1637C0.583259 73.1701 0.583259 73.1701 0.583259 73.1765C0.583259 73.1829 0.583259 73.1829 0.583259 73.1893C0.583259 73.1957 0.583259 73.1957 0.583259 73.2021C0.583259 73.2085 0.583259 73.215 0.583259 73.215C0.583259 73.2214 0.583259 73.2214 0.583259 73.2278C0.583259 73.2342 0.583259 73.2406 0.583259 73.2406C0.583259 73.247 0.583259 73.247 0.583259 73.247C0.583259 73.2534 0.583259 73.2598 0.583259 73.2598C0.583259 73.2662 0.583259 73.2662 0.583259 73.2726C0.583259 73.2791 0.583259 73.2855 0.583259 73.2855C0.583259 73.2855 0.583259 73.2919 0.583259 73.2983C0.583259 73.3047 0.583259 73.3111 0.583259 73.3111C0.583259 73.3111 0.583259 73.3175 0.583259 73.3239C0.583259 73.3303 0.583259 73.3367 0.583259 73.3431V73.3496C0.583259 73.356 0.583259 73.3624 0.583259 73.3688C0.583259 73.3752 0.583259 73.3752 0.583259 73.3752C0.583259 73.3816 0.583259 73.388 0.583259 73.3944C0.583259 73.4008 0.583259 73.4008 0.583259 73.4008C0.583259 73.4072 0.583259 73.4137 0.583259 73.4201C0.583259 73.4265 0.583259 73.4265 0.583259 73.4265C0.589668 73.4521 0.589668 73.4777 0.596077 73.5034C0.596077 73.5098 0.596077 73.5162 0.602487 73.529V73.5354C0.602487 73.5418 0.602487 73.5482 0.602487 73.5547C0.602487 73.5611 0.602487 73.5611 0.602487 73.5611C0.602487 73.5675 0.602487 73.5739 0.602487 73.5803C0.602487 73.5867 0.602487 73.5867 0.602487 73.5931C0.602487 73.5995 0.602487 73.6059 0.602487 73.6059V73.6123C0.602487 73.6188 0.602487 73.6252 0.602487 73.6316V73.638C0.602487 73.6444 0.602487 73.6508 0.602487 73.6572V73.6636C0.602487 73.67 0.602487 73.6764 0.602487 73.6828V73.6893C0.602487 73.6957 0.602487 73.7021 0.602487 73.7085V73.7149C0.602487 73.7213 0.602487 73.7277 0.602487 73.7341V73.7405C0.602487 73.7469 0.602487 73.7534 0.602487 73.7598V73.7662C0.602487 73.7726 0.602487 73.779 0.602487 73.7854V73.7918C0.602487 73.7982 0.602487 73.8046 0.602487 73.811V73.8174C0.602487 73.8239 0.602487 73.8303 0.602487 73.8367C0.602487 73.8367 0.602487 73.8367 0.602487 73.8431C0.602487 73.8495 0.602487 73.8559 0.608896 73.8623C0.608896 73.8623 0.608896 73.8623 0.608896 73.8687C0.608896 73.8751 0.608896 73.8815 0.615306 73.888C0.615306 73.888 0.615306 73.8879 0.615306 73.8944C0.615306 73.9008 0.615306 73.9072 0.621715 73.92C0.634534 74.0161 0.653762 74.1123 0.666581 74.2084C0.672991 74.2405 0.6794 74.2789 0.685809 74.311C0.871683 75.4519 1.08319 76.5863 1.32675 77.708L4.46097 77.0286C4.12127 74.9583 3.77516 72.8368 3.55083 70.7217ZM6.2492 83.1945L3.20472 84.2007C3.30727 84.5212 3.41623 84.8353 3.52519 85.1493C3.5316 85.1685 3.53801 85.1814 3.54442 85.2006C4.15331 86.944 4.83271 88.6553 5.58262 90.3217C5.58262 90.3281 5.58903 90.3346 5.58903 90.341V90.3474C5.58903 90.3538 5.59544 90.3602 5.59544 90.3666V90.373C5.59544 90.3794 5.60185 90.3858 5.60185 90.3922V90.3987C5.60185 90.4051 5.60825 90.4115 5.60825 90.4179C5.60825 90.4179 5.60826 90.4243 5.61466 90.4243C5.61466 90.4307 5.62107 90.4371 5.62107 90.4371C5.62107 90.4371 5.62107 90.4435 5.62748 90.4435C5.62748 90.4499 5.63389 90.4563 5.63389 90.4563V90.4627L8.55659 89.1424C7.69132 87.2132 6.90937 85.207 6.2492 83.1945ZM11.5049 94.8212L8.74247 96.4427C8.85143 96.6222 8.95398 96.8081 9.06294 96.9875C9.10781 97.0645 9.15267 97.135 9.19754 97.2119C9.20395 97.2183 9.20395 97.2247 9.21036 97.2311C9.21677 97.2375 9.21677 97.2439 9.22318 97.2503C9.22959 97.2567 9.22959 97.2632 9.236 97.2696C9.2424 97.276 9.2424 97.2824 9.24881 97.2888C9.27445 97.3337 9.30009 97.3785 9.33214 97.4234C9.33855 97.4298 9.33855 97.4362 9.34496 97.4426C9.35137 97.449 9.35136 97.4554 9.35777 97.4618C9.35777 97.4618 9.35777 97.4618 9.35777 97.4683C9.36418 97.4747 9.36418 97.4811 9.37059 97.4875V97.4939C9.377 97.5003 9.377 97.5067 9.38341 97.5067L9.38982 97.5131C9.38982 97.5195 9.39623 97.5259 9.39623 97.5259C9.39623 97.5259 9.39623 97.5323 9.40264 97.5323C9.40905 97.5388 9.40905 97.5452 9.41546 97.5452C9.41546 97.5452 9.41546 97.5516 9.42187 97.5516C9.42828 97.558 9.42828 97.5644 9.43469 97.5708C9.4411 97.5772 9.4411 97.5836 9.44751 97.59C9.46033 97.6093 9.47314 97.6349 9.48596 97.6541C9.48596 97.6541 9.48596 97.6605 9.49237 97.6605C9.49237 97.6669 9.49878 97.6734 9.49878 97.6734L9.50519 97.6798C9.50519 97.6862 9.5116 97.6862 9.5116 97.6926L9.51801 97.699C9.51801 97.7054 9.52442 97.7054 9.52442 97.7118C9.52442 97.7182 9.53083 97.7182 9.53083 97.7182C9.53083 97.7246 9.53724 97.7246 9.53724 97.731C9.53724 97.7375 9.54365 97.7374 9.54365 97.7374C9.54365 97.7439 9.55006 97.7439 9.55006 97.7503C9.55006 97.7567 9.55647 97.7567 9.55647 97.7567C9.55647 97.7631 9.56288 97.7631 9.56288 97.7695L9.56929 97.7759C9.56929 97.7823 9.5757 97.7823 9.5757 97.7887C9.5757 97.7951 9.5757 97.7951 9.5821 97.7951C9.5821 97.8016 9.58851 97.8015 9.58851 97.808C9.58851 97.8144 9.58851 97.8144 9.59492 97.8144C9.60133 97.8208 9.60133 97.8272 9.60774 97.8336C9.60774 97.8336 9.60774 97.84 9.61415 97.84C9.62056 97.8464 9.62056 97.8528 9.62697 97.8592C9.62697 97.8592 9.62697 97.8656 9.63338 97.8656C9.63979 97.872 9.63979 97.8785 9.6462 97.8849C9.6462 97.8913 9.6462 97.8913 9.65261 97.8913C9.65261 97.8977 9.65902 97.9041 9.65902 97.9041L9.66543 97.9105C9.66543 97.9169 9.67184 97.9169 9.67184 97.9233L9.67825 97.9297C9.67825 97.9361 9.68466 97.9361 9.68466 97.9426C9.68466 97.949 9.68466 97.949 9.69106 97.949C9.69106 97.9554 9.69747 97.9554 9.69747 97.9618C9.69747 97.9682 9.69747 97.9682 9.70388 97.9682C9.70388 97.9746 9.71029 97.9746 9.71029 97.981L9.7167 97.9874C9.7167 97.9938 9.72311 97.9938 9.72311 98.0002L9.72952 98.0066C9.72952 98.0131 9.73593 98.0131 9.73593 98.0195C9.73593 98.0259 9.73593 98.0259 9.74234 98.0259C9.74875 98.0323 9.74875 98.0387 9.75516 98.0387C9.75516 98.0387 9.75516 98.0451 9.76157 98.0451C9.76798 98.0515 9.76798 98.0579 9.77439 98.0643C9.7808 98.0707 9.7808 98.0772 9.78721 98.0836C9.78721 98.09 9.78721 98.09 9.79362 98.09C9.79362 98.0964 9.80003 98.0964 9.80003 98.1028C9.80003 98.1092 9.80643 98.1092 9.80643 98.1092C9.80643 98.1156 9.81284 98.1156 9.81284 98.122L9.81925 98.1284C9.81925 98.1348 9.82566 98.1348 9.82566 98.1412C9.82566 98.1477 9.83207 98.1477 9.83207 98.1477C9.83207 98.1541 9.83848 98.1541 9.83848 98.1605C9.83848 98.1669 9.84489 98.1669 9.84489 98.1733C9.84489 98.1797 9.8513 98.1797 9.8513 98.1861C9.8513 98.1925 9.85771 98.1925 9.85771 98.1989C9.85771 98.2053 9.86412 98.2053 9.86412 98.2118C9.86412 98.2182 9.87053 98.2182 9.87053 98.2246C9.87053 98.231 9.87694 98.231 9.87694 98.2374L9.88335 98.2438C9.88335 98.2502 9.88976 98.2502 9.88976 98.2566C9.88976 98.263 9.89617 98.263 9.89617 98.263C9.89617 98.2694 9.90258 98.2694 9.90258 98.2758C9.90258 98.2823 9.90258 98.2823 9.90899 98.2823C9.91539 98.2887 9.91539 98.2951 9.9218 98.3015C9.92821 98.3079 9.92821 98.3143 9.93462 98.3207C9.93462 98.3271 9.93462 98.3271 9.94103 98.3271C9.94103 98.3335 9.94744 98.3335 9.94744 98.3399C9.94744 98.3464 9.95385 98.3463 9.95385 98.3528C9.95385 98.3592 9.96026 98.3592 9.96026 98.3656L9.96667 98.372C9.96667 98.3784 9.97308 98.3784 9.97308 98.3848L9.97949 98.3912C9.97949 98.3976 9.9859 98.3976 9.9859 98.404C9.9859 98.4104 9.9859 98.4104 9.99231 98.4104C9.99231 98.4169 9.99872 98.4168 9.99872 98.4233C9.99872 98.4297 10.0051 98.4297 10.0051 98.4297C10.0051 98.4361 10.0115 98.4361 10.0115 98.4425C10.0115 98.4489 10.0179 98.4489 10.0179 98.4489C10.0179 98.4553 10.0244 98.4553 10.0244 98.4617L10.0308 98.4681C10.0308 98.4745 10.0372 98.4745 10.0372 98.4809C10.0372 98.4874 10.0372 98.4874 10.0436 98.4874C10.0436 98.4938 10.05 98.4938 10.05 98.5002C10.05 98.5066 10.05 98.5066 10.0564 98.5066C10.0692 98.5258 10.082 98.5515 10.0949 98.5707C10.1013 98.5771 10.1013 98.5835 10.1077 98.5899L10.1141 98.5963C10.1205 98.6027 10.1205 98.6091 10.1269 98.6091C10.1269 98.6091 10.1269 98.6155 10.1333 98.6155C10.1397 98.6219 10.1397 98.6284 10.1461 98.6284C10.1461 98.6284 10.1461 98.6348 10.1525 98.6348C10.1525 98.6412 10.159 98.6476 10.159 98.6476C10.159 98.654 10.159 98.654 10.1654 98.654C10.1654 98.6604 10.1718 98.6604 10.1718 98.6668C10.1718 98.6732 10.1718 98.6732 10.1782 98.6732C10.1782 98.6796 10.1846 98.6796 10.1846 98.686C10.1846 98.686 10.1846 98.6925 10.191 98.6925C10.1974 98.6989 10.1974 98.7053 10.2038 98.7053C10.2038 98.7053 10.2038 98.7117 10.2102 98.7117C10.2166 98.7181 10.2166 98.7245 10.223 98.7309C10.223 98.7309 10.223 98.7309 10.223 98.7373C10.2295 98.7437 10.2295 98.7501 10.2359 98.7566C10.2423 98.7694 10.2551 98.7822 10.2615 98.8014C10.2615 98.8014 10.2615 98.8014 10.2615 98.8078C10.2679 98.8142 10.2679 98.8206 10.2743 98.8271C10.2743 98.8271 10.2743 98.8335 10.2807 98.8335C10.2871 98.8399 10.2871 98.8463 10.2936 98.8463L10.3 98.8527C10.3064 98.8591 10.3064 98.8655 10.3128 98.8655C10.3128 98.8655 10.3128 98.8719 10.3192 98.8719C10.3256 98.8783 10.3256 98.8847 10.332 98.8847C10.332 98.8912 10.332 98.8847 10.3384 98.8912C10.3448 98.8976 10.3448 98.904 10.3512 98.904C10.3512 98.904 10.3512 98.9104 10.3576 98.9104C10.3641 98.9168 10.3641 98.9232 10.3705 98.9232C10.3705 98.9232 10.3705 98.9296 10.3769 98.9296C10.3833 98.936 10.3833 98.9424 10.3897 98.9488C10.3961 98.9552 10.3961 98.9617 10.4025 98.9681C10.4217 99.0001 10.441 99.0257 10.4602 99.0578C10.4666 99.0642 10.4666 99.0706 10.473 99.077C10.473 99.077 10.473 99.077 10.473 99.0834C10.4794 99.0898 10.4794 99.0962 10.4858 99.1027C10.4858 99.1027 10.4858 99.1027 10.4858 99.1091C10.4922 99.1155 10.4922 99.1219 10.4987 99.1283C10.4987 99.1283 10.4987 99.1283 10.4987 99.1347C10.5051 99.1411 10.5051 99.1475 10.5115 99.1539C10.5115 99.1539 10.5115 99.1539 10.5179 99.1603C10.5243 99.1668 10.5243 99.1732 10.5307 99.1796C10.5371 99.186 10.5371 99.1924 10.5435 99.1988C10.5692 99.2437 10.6012 99.2885 10.6268 99.327C10.6333 99.3334 10.6333 99.3398 10.6397 99.3462C10.6461 99.3526 10.6461 99.359 10.6525 99.3654C10.6589 99.3719 10.6589 99.3783 10.6653 99.3847C11.2421 100.25 11.8382 101.109 12.4535 101.942L15.0365 100.045C13.7546 98.4489 12.5753 96.6543 11.5049 94.8212ZM19.0745 105.102L16.7094 107.262C18.222 108.922 19.818 110.499 21.4972 111.992L23.6252 109.595C22.0292 108.185 20.5038 106.672 19.0745 105.102ZM28.6117 113.588L26.7402 116.19C27.1952 116.517 27.6503 116.838 28.1182 117.152C28.1246 117.158 28.131 117.158 28.1374 117.164C28.1887 117.196 28.24 117.235 28.2912 117.267C28.2977 117.273 28.3041 117.273 28.3105 117.28C28.3169 117.286 28.3233 117.286 28.3297 117.293C28.3297 117.293 28.3297 117.293 28.3361 117.293C28.3425 117.299 28.3489 117.299 28.3553 117.305C28.3553 117.305 28.3617 117.305 28.3617 117.312C28.3682 117.318 28.3746 117.318 28.3746 117.325L28.381 117.331C28.3874 117.337 28.3938 117.338 28.3938 117.344C28.3938 117.344 28.4002 117.344 28.4002 117.35C28.4066 117.357 28.413 117.357 28.413 117.363C28.4194 117.363 28.4194 117.363 28.4194 117.37C28.4258 117.376 28.4322 117.376 28.4322 117.382C28.4322 117.382 28.4387 117.382 28.4387 117.389C28.4451 117.389 28.4451 117.395 28.4515 117.395C28.4579 117.402 28.4643 117.402 28.4707 117.408L28.4771 117.414C28.4835 117.414 28.4835 117.421 28.4899 117.421L28.4963 117.427C28.5028 117.427 28.5028 117.434 28.5092 117.434C28.5156 117.434 28.5156 117.44 28.522 117.44C28.5284 117.446 28.5284 117.446 28.5348 117.446L28.5412 117.453C28.5476 117.453 28.5476 117.459 28.554 117.459C28.5604 117.459 28.5604 117.466 28.5668 117.466C28.5733 117.466 28.5733 117.472 28.5797 117.472L28.5861 117.479C28.5925 117.479 28.5989 117.485 28.5989 117.485L28.6053 117.491C28.6117 117.498 28.6117 117.498 28.6181 117.498C28.6181 117.498 28.6245 117.498 28.6245 117.504C28.6309 117.511 28.6374 117.511 28.6374 117.517C28.6374 117.517 28.6374 117.517 28.6438 117.517C28.6886 117.549 28.7335 117.581 28.7784 117.607C28.7848 117.613 28.7912 117.613 28.7976 117.62C28.804 117.626 28.8104 117.626 28.8168 117.632C28.8232 117.639 28.8296 117.639 28.836 117.645C29.9962 118.408 31.1819 119.139 32.3933 119.824L33.9764 117.043C32.1433 115.992 30.3359 114.831 28.6117 113.588ZM39.7 119.908L38.4181 122.843C40.4628 123.741 42.5651 124.529 44.7122 125.208L45.68 122.151C43.6547 121.516 41.6421 120.76 39.7 119.908ZM51.8651 123.76L51.2242 126.9C51.8203 127.022 52.4292 127.138 53.0317 127.24C53.0381 127.24 53.0445 127.24 53.0573 127.246C53.0637 127.246 53.0701 127.246 53.0829 127.253C53.0893 127.253 53.0958 127.253 53.1022 127.259C53.1022 127.259 53.1022 127.259 53.1086 127.259C53.115 127.259 53.1214 127.259 53.1278 127.266H53.1342C53.1406 127.266 53.147 127.266 53.1534 127.272C53.1598 127.272 53.1663 127.272 53.1791 127.279C53.1855 127.279 53.1919 127.279 53.2047 127.285C53.2111 127.285 53.2175 127.285 53.2304 127.291C53.2688 127.298 53.3073 127.304 53.3457 127.311H53.3521C53.3585 127.311 53.3649 127.311 53.3714 127.311H53.3778C53.3842 127.311 53.3842 127.311 53.3906 127.311C53.397 127.311 53.397 127.311 53.4034 127.311C53.4098 127.311 53.4098 127.311 53.4162 127.311C53.4226 127.311 53.4226 127.311 53.429 127.311C53.4355 127.311 53.4355 127.311 53.4419 127.311C53.4483 127.311 53.4483 127.311 53.4547 127.311C53.4547 127.311 53.4611 127.311 53.4675 127.311C53.4739 127.311 53.4739 127.311 53.4803 127.311C53.4803 127.311 53.4867 127.311 53.4931 127.311C53.4995 127.311 53.506 127.311 53.506 127.311C53.506 127.311 53.5124 127.311 53.5188 127.311C53.5252 127.311 53.5316 127.311 53.538 127.311H53.5444C53.5508 127.311 53.5572 127.311 53.5636 127.311C53.5701 127.311 53.57 127.311 53.57 127.311C53.5765 127.311 53.5829 127.311 53.5829 127.311C53.5893 127.311 53.5893 127.311 53.5957 127.311C53.6021 127.311 53.6085 127.311 53.6085 127.311C53.6149 127.311 53.6149 127.311 53.6149 127.311C53.6213 127.311 53.6277 127.311 53.6341 127.311H53.6406C53.647 127.311 53.6534 127.311 53.6598 127.311H53.6662C53.6726 127.311 53.679 127.311 53.6854 127.311H53.6918C53.6982 127.311 53.7047 127.311 53.7111 127.311C53.7111 127.311 53.7111 127.311 53.7175 127.311C53.7239 127.311 53.7303 127.311 53.7367 127.317C53.7431 127.317 53.7559 127.317 53.7623 127.323C53.7687 127.323 53.7816 127.323 53.788 127.33C55.134 127.548 56.4928 127.721 57.8708 127.855L58.1784 124.663C56.0633 124.497 53.9418 124.183 51.8651 123.76ZM70.9524 124.599C68.8501 124.837 66.703 124.965 64.5686 124.984L64.5943 128.189C66.421 128.176 68.2284 128.086 70.0103 127.919C70.0167 127.919 70.0295 127.919 70.0359 127.919C70.0423 127.919 70.0487 127.919 70.0615 127.919C70.0615 127.919 70.0615 127.919 70.0679 127.919C70.0743 127.919 70.0808 127.919 70.0872 127.919C70.0872 127.919 70.0872 127.919 70.0936 127.919C70.1 127.919 70.1064 127.919 70.1128 127.919C70.1128 127.919 70.1128 127.919 70.1192 127.919C70.1256 127.919 70.132 127.919 70.1384 127.919C70.1384 127.919 70.1384 127.919 70.1449 127.919C70.1513 127.919 70.1577 127.919 70.1641 127.919H70.1705C70.1769 127.919 70.1833 127.919 70.1897 127.919H70.1961C70.2025 127.919 70.2089 127.919 70.2154 127.919H70.2218C70.2282 127.919 70.2346 127.919 70.241 127.919H70.2474C70.2538 127.919 70.2602 127.919 70.2602 127.919C70.2666 127.919 70.2666 127.919 70.273 127.919C70.2794 127.919 70.2859 127.919 70.2859 127.919C70.2923 127.919 70.2923 127.919 70.2987 127.919C70.3051 127.919 70.3051 127.919 70.3115 127.919C70.3179 127.919 70.3179 127.919 70.3243 127.919C70.3307 127.919 70.3307 127.919 70.3371 127.919C70.3435 127.919 70.3435 127.919 70.35 127.919H70.3564C70.6768 127.887 70.9909 127.855 71.305 127.817L70.9524 124.599ZM83.4124 121.85C81.3998 122.523 79.3296 123.093 77.2529 123.555L77.9451 126.682C78.099 126.65 78.2528 126.612 78.4002 126.58H78.4066C78.413 126.58 78.413 126.58 78.4194 126.58C78.4258 126.58 78.4258 126.58 78.4323 126.58C78.4387 126.58 78.4387 126.58 78.4451 126.58C78.4515 126.58 78.4579 126.58 78.4579 126.573C78.4643 126.573 78.4643 126.573 78.4643 126.573C78.4707 126.573 78.4771 126.573 78.4835 126.567H78.4899C78.4963 126.567 78.5028 126.567 78.5092 126.561H78.5156C78.522 126.561 78.5284 126.561 78.5348 126.554H78.5412C78.5476 126.554 78.554 126.554 78.5604 126.548H78.5668C78.5733 126.548 78.5797 126.541 78.5861 126.541H78.5925C78.5989 126.541 78.6053 126.535 78.6117 126.535C79.9256 126.227 81.2204 125.888 82.5022 125.503C82.5087 125.503 82.5151 125.497 82.5215 125.497H82.5279C82.5343 125.497 82.5407 125.49 82.5471 125.49C82.5471 125.49 82.5471 125.49 82.5535 125.49C82.5599 125.49 82.5663 125.484 82.5727 125.484H82.5792C82.5856 125.484 82.592 125.477 82.5984 125.477H82.6048C82.6112 125.477 82.6176 125.471 82.624 125.471H82.6304C82.6368 125.471 82.6432 125.465 82.6497 125.465H82.6561C82.6625 125.465 82.6689 125.458 82.6753 125.458H82.6817C82.6881 125.458 82.6945 125.452 82.7009 125.452H82.7073C82.7138 125.452 82.7202 125.452 82.7202 125.445C82.7266 125.445 82.7266 125.445 82.733 125.445C82.7394 125.445 82.7458 125.445 82.7458 125.439C82.7522 125.439 82.7522 125.439 82.7522 125.439C82.7586 125.439 82.7586 125.439 82.765 125.433C82.7907 125.426 82.8163 125.413 82.8419 125.407C82.8419 125.407 82.8419 125.407 82.8484 125.407C82.8548 125.407 82.8612 125.401 82.8676 125.401C82.8676 125.401 82.8676 125.401 82.874 125.401C82.8804 125.401 82.8868 125.394 82.8932 125.394H82.8996C82.906 125.394 82.9124 125.388 82.9189 125.388C82.9189 125.388 82.9189 125.388 82.9253 125.388C82.9317 125.388 82.9381 125.381 82.9445 125.381H82.9509C82.9573 125.381 82.9637 125.375 82.9701 125.375C82.9701 125.375 82.9701 125.375 82.9765 125.375C82.9829 125.375 82.9894 125.369 82.9958 125.369C82.9958 125.369 82.9958 125.369 83.0022 125.369C83.0086 125.369 83.015 125.362 83.0214 125.362C83.0278 125.362 83.0342 125.356 83.0406 125.356C83.047 125.356 83.0535 125.349 83.0599 125.349C83.5149 125.208 83.97 125.061 84.4187 124.913L83.4124 121.85ZM95.0199 116.549C93.1932 117.632 91.2832 118.626 89.3539 119.504L90.6871 122.42C91.4562 122.068 92.2125 121.702 92.9624 121.324C92.9688 121.318 92.9753 121.318 92.9881 121.311C92.9945 121.305 93.0009 121.305 93.0137 121.299C93.0586 121.273 93.1099 121.254 93.1547 121.228C93.1611 121.222 93.1675 121.222 93.174 121.215C93.1804 121.209 93.1868 121.209 93.1932 121.202C93.1932 121.202 93.1996 121.202 93.1996 121.196C93.206 121.196 93.2124 121.19 93.2188 121.19H93.2252C93.2316 121.19 93.238 121.183 93.238 121.183C93.2445 121.183 93.2445 121.183 93.2445 121.177C93.2509 121.177 93.2573 121.17 93.2573 121.17C93.2637 121.17 93.2637 121.17 93.2637 121.164C93.2701 121.164 93.2701 121.158 93.2765 121.158C93.2829 121.158 93.2829 121.151 93.2893 121.151C93.2957 121.151 93.2957 121.145 93.3021 121.145C93.3085 121.145 93.3085 121.138 93.315 121.138C93.315 121.138 93.3214 121.138 93.3214 121.132C93.3278 121.132 93.3278 121.125 93.3342 121.125H93.3406C93.3726 121.106 93.4111 121.093 93.4431 121.074C93.4496 121.068 93.456 121.068 93.4624 121.061C93.4688 121.055 93.4752 121.055 93.4816 121.049C93.488 121.042 93.4944 121.042 93.5008 121.036C93.5072 121.029 93.5136 121.029 93.5201 121.023C93.5265 121.017 93.5329 121.017 93.5393 121.01C94.584 120.465 95.6159 119.895 96.6286 119.299L95.0199 116.549ZM105.269 108.941C103.705 110.377 102.045 111.748 100.34 113.018L102.25 115.588C102.679 115.267 103.102 114.947 103.525 114.613C103.576 114.575 103.621 114.537 103.673 114.498C103.679 114.492 103.685 114.485 103.692 114.485C103.698 114.479 103.705 114.479 103.711 114.472C103.711 114.472 103.711 114.472 103.717 114.472C103.724 114.466 103.73 114.466 103.737 114.46C103.737 114.46 103.737 114.46 103.743 114.453C103.75 114.447 103.756 114.447 103.756 114.44L103.762 114.434C103.769 114.428 103.775 114.428 103.775 114.421C103.775 114.421 103.782 114.421 103.782 114.415C103.788 114.408 103.794 114.408 103.801 114.402C103.82 114.383 103.839 114.37 103.858 114.351C103.858 114.351 103.858 114.351 103.865 114.344C103.871 114.338 103.878 114.338 103.878 114.331L103.884 114.325C103.891 114.319 103.891 114.319 103.897 114.312L103.903 114.306C103.91 114.306 103.91 114.299 103.916 114.299C103.916 114.299 103.923 114.293 103.929 114.293C103.935 114.293 103.935 114.287 103.942 114.287L103.948 114.28C103.955 114.28 103.955 114.274 103.961 114.274L103.967 114.267C103.974 114.267 103.974 114.261 103.98 114.261C103.98 114.261 103.987 114.255 103.993 114.255L103.999 114.248C104.006 114.242 104.006 114.242 104.012 114.242L104.019 114.235C104.025 114.229 104.025 114.229 104.032 114.223L104.038 114.216C104.057 114.197 104.083 114.184 104.102 114.165C104.102 114.165 104.108 114.165 104.108 114.158C104.115 114.152 104.115 114.152 104.121 114.146C104.121 114.146 104.128 114.146 104.128 114.139C104.134 114.133 104.134 114.133 104.14 114.126L104.147 114.12C104.153 114.114 104.153 114.114 104.16 114.107C104.16 114.107 104.166 114.107 104.166 114.101C104.173 114.094 104.173 114.094 104.179 114.088C104.179 114.088 104.185 114.088 104.185 114.082C104.192 114.075 104.192 114.075 104.198 114.069C104.198 114.069 104.198 114.069 104.205 114.062C104.211 114.056 104.217 114.056 104.217 114.049C104.275 114.005 104.326 113.96 104.384 113.915C105.172 113.274 105.948 112.614 106.711 111.941C106.717 111.934 106.723 111.934 106.73 111.928C106.736 111.922 106.736 111.922 106.743 111.915C106.743 111.915 106.743 111.915 106.749 111.909C106.756 111.902 106.756 111.902 106.762 111.896C106.762 111.896 106.762 111.896 106.768 111.889C106.775 111.883 106.775 111.883 106.781 111.877C106.781 111.877 106.781 111.877 106.788 111.87C106.794 111.864 106.8 111.864 106.8 111.857C106.807 111.851 106.813 111.851 106.813 111.845C106.832 111.825 106.858 111.806 106.877 111.787L106.884 111.781L106.89 111.774C106.897 111.774 106.897 111.768 106.897 111.768L106.903 111.761C106.909 111.761 106.909 111.755 106.916 111.755L106.922 111.748C106.929 111.748 106.929 111.742 106.935 111.742L106.941 111.736C106.948 111.729 106.948 111.729 106.954 111.723L106.961 111.716C106.967 111.71 106.967 111.71 106.973 111.704L106.98 111.697C106.986 111.691 106.986 111.691 106.993 111.684L106.999 111.678C107.006 111.672 107.012 111.665 107.018 111.665C107.025 111.659 107.031 111.652 107.038 111.646C107.063 111.62 107.089 111.601 107.114 111.575C107.121 111.569 107.127 111.563 107.134 111.556C107.23 111.466 107.326 111.377 107.422 111.293L105.269 108.941ZM113.723 99.3654C112.492 101.096 111.152 102.782 109.749 104.371L112.152 106.493C113.633 104.813 115.03 103.051 116.338 101.224L113.723 99.3654ZM119.991 88.2515C119.151 90.2 118.19 92.1228 117.145 93.9751L119.933 95.5518C120.414 94.6994 120.876 93.8341 121.318 92.9624C121.343 92.9111 121.375 92.8535 121.401 92.8022C121.408 92.7958 121.408 92.7894 121.414 92.783V92.7766C121.414 92.7701 121.42 92.7637 121.42 92.7573V92.7509C121.42 92.7445 121.427 92.7381 121.427 92.7381C121.427 92.7317 121.427 92.7317 121.433 92.7317C121.433 92.7253 121.44 92.7253 121.44 92.7189C121.44 92.7125 121.44 92.7125 121.446 92.706C121.446 92.6996 121.452 92.6996 121.452 92.6932C121.452 92.6868 121.459 92.6868 121.459 92.6804C121.459 92.674 121.465 92.674 121.465 92.6676C121.465 92.6612 121.472 92.6612 121.472 92.6548C121.472 92.6484 121.478 92.6484 121.478 92.642C121.478 92.6355 121.484 92.6355 121.484 92.6291C121.484 92.6227 121.484 92.6227 121.491 92.6227C121.491 92.6163 121.497 92.6163 121.497 92.6099C121.497 92.6099 121.497 92.6035 121.504 92.6035C121.504 92.5971 121.51 92.5907 121.51 92.5907C121.523 92.5586 121.536 92.533 121.555 92.5074C121.555 92.5009 121.561 92.4945 121.561 92.4881C121.561 92.4881 121.561 92.4881 121.561 92.4817C121.561 92.4753 121.568 92.4689 121.568 92.4625C121.568 92.4625 121.568 92.4625 121.568 92.4561C121.574 92.4497 121.574 92.4433 121.574 92.4368C121.574 92.4368 121.574 92.4369 121.574 92.4304C121.581 92.424 121.581 92.4176 121.581 92.4112C122.048 91.4626 122.491 90.5076 122.914 89.5334L119.991 88.2515ZM123.792 76.0736C123.375 78.1566 122.843 80.2397 122.215 82.2651L125.272 83.2201C125.272 83.2137 125.279 83.2073 125.279 83.2009C125.279 83.1944 125.285 83.188 125.285 83.1816C125.285 83.1816 125.285 83.1816 125.285 83.1752C125.285 83.1688 125.292 83.1624 125.292 83.156C125.292 83.156 125.292 83.156 125.292 83.1496C125.292 83.1432 125.298 83.1368 125.298 83.1304C125.298 83.1239 125.298 83.1304 125.298 83.1239C125.298 83.1175 125.304 83.1111 125.304 83.1047V83.0983C125.304 83.0919 125.311 83.0855 125.311 83.0791V83.0727C125.311 83.0663 125.317 83.0599 125.317 83.0534V83.047C125.317 83.0406 125.324 83.0342 125.324 83.0342V83.0278C125.324 83.0214 125.324 83.015 125.33 83.015C125.33 83.0086 125.33 83.0086 125.33 83.0022C125.33 82.9958 125.33 82.9958 125.336 82.9893C125.336 82.9829 125.336 82.9829 125.343 82.9765C125.343 82.9701 125.343 82.9701 125.349 82.9637C125.349 82.9573 125.349 82.9573 125.356 82.9509C125.356 82.9445 125.356 82.9445 125.356 82.9381C125.362 82.9188 125.369 82.8996 125.375 82.8804C125.375 82.874 125.381 82.8676 125.381 82.8612C125.381 82.8548 125.388 82.8483 125.388 82.8419C125.388 82.8419 125.388 82.8419 125.388 82.8355C125.388 82.8291 125.394 82.8227 125.394 82.8163V82.8099C125.394 82.8035 125.401 82.7971 125.401 82.7906V82.7842C125.401 82.7778 125.407 82.7714 125.407 82.765V82.7586C125.407 82.7522 125.413 82.7458 125.413 82.7394V82.733C125.413 82.7266 125.42 82.7201 125.42 82.7137C125.42 82.7137 125.42 82.7137 125.42 82.7073C125.42 82.7009 125.426 82.6945 125.426 82.6881C125.426 82.6881 125.426 82.6881 125.426 82.6817C125.426 82.6753 125.433 82.6689 125.433 82.6625C125.433 82.6561 125.439 82.6496 125.439 82.6432C125.445 82.6304 125.445 82.6112 125.452 82.5984C125.727 81.6882 125.984 80.7653 126.215 79.8359C126.215 79.8295 126.221 79.8231 126.221 79.8103C126.221 79.8039 126.227 79.7974 126.227 79.7846C126.227 79.7782 126.234 79.7718 126.234 79.759C126.234 79.7526 126.24 79.7462 126.24 79.7334C126.24 79.7269 126.247 79.7205 126.247 79.7077C126.266 79.618 126.291 79.5347 126.311 79.4449C126.311 79.4385 126.317 79.4321 126.317 79.4257C126.317 79.4193 126.324 79.4129 126.324 79.4065C126.324 79.4001 126.33 79.3937 126.33 79.3872C126.33 79.3872 126.33 79.3872 126.33 79.3808C126.33 79.3744 126.33 79.368 126.336 79.3616V79.3552C126.336 79.3488 126.336 79.3424 126.343 79.336C126.343 79.336 126.343 79.336 126.343 79.3296C126.343 79.3231 126.343 79.3167 126.349 79.3103C126.349 79.3103 126.349 79.3103 126.349 79.3039C126.349 79.2975 126.349 79.2911 126.356 79.2847C126.356 79.2783 126.362 79.2719 126.362 79.2591C126.375 79.195 126.394 79.1309 126.407 79.0668C126.407 79.0604 126.407 79.054 126.413 79.0475C126.413 79.0475 126.413 79.0475 126.413 79.0411C126.413 79.0347 126.413 79.0283 126.42 79.0219C126.42 79.0219 126.42 79.0219 126.42 79.0155C126.42 79.0091 126.42 79.0027 126.426 78.9963C126.426 78.9963 126.426 78.9963 126.426 78.9899C126.426 78.9835 126.426 78.977 126.433 78.9706V78.9642C126.433 78.9578 126.433 78.9514 126.439 78.945V78.9386C126.439 78.9322 126.439 78.9258 126.445 78.9194V78.9129C126.445 78.9065 126.445 78.9001 126.452 78.8937V78.8873C126.452 78.8809 126.452 78.8745 126.458 78.8681V78.8617C126.458 78.8553 126.458 78.8488 126.465 78.8424V78.836C126.465 78.8296 126.465 78.8232 126.471 78.8168C126.471 78.8168 126.471 78.8168 126.471 78.8104C126.471 78.804 126.477 78.7976 126.477 78.7912C126.49 78.7463 126.497 78.695 126.509 78.6502V78.6437C126.509 78.6373 126.509 78.6309 126.516 78.6245V78.6181C126.516 78.6117 126.516 78.6053 126.522 78.5989V78.5925C126.522 78.5861 126.522 78.5861 126.529 78.5797C126.529 78.5732 126.529 78.5732 126.529 78.5732C126.529 78.5668 126.529 78.5604 126.535 78.5604V78.554C126.535 78.5476 126.535 78.5412 126.541 78.5348V78.5284C126.541 78.522 126.541 78.5156 126.548 78.5092V78.5027C126.548 78.4963 126.548 78.4899 126.554 78.4835V78.4771C126.554 78.4707 126.554 78.4643 126.561 78.4579V78.4515C126.561 78.4451 126.561 78.4386 126.567 78.4322V78.4258C126.567 78.4194 126.567 78.413 126.574 78.4066V78.4002C126.574 78.3938 126.574 78.3874 126.58 78.381C126.58 78.381 126.58 78.381 126.58 78.3746C126.593 78.3169 126.606 78.2656 126.618 78.2079C126.618 78.2015 126.618 78.1951 126.625 78.1887V78.1823C126.625 78.1759 126.625 78.1694 126.631 78.163V78.1566C126.631 78.1502 126.631 78.1438 126.638 78.1374V78.131C126.638 78.1246 126.638 78.1182 126.644 78.1118V78.1054C126.644 78.0989 126.644 78.0925 126.65 78.0861V78.0797C126.65 78.0733 126.65 78.0669 126.657 78.0605V78.0541C126.657 78.0477 126.657 78.0413 126.663 78.0349V78.0284C126.663 78.022 126.663 78.0156 126.67 78.0092V78.0028C126.67 77.9964 126.67 77.99 126.676 77.9836C126.676 77.9836 126.676 77.9836 126.676 77.9772C126.676 77.9708 126.676 77.9644 126.682 77.9579C126.702 77.8746 126.721 77.7977 126.734 77.7144C126.734 77.708 126.734 77.7016 126.74 77.6887C126.74 77.6823 126.74 77.6759 126.747 77.6695C126.747 77.6695 126.747 77.6695 126.747 77.6631C126.747 77.6567 126.747 77.6503 126.753 77.6439C126.753 77.6375 126.753 77.6311 126.759 77.6246C126.759 77.6182 126.759 77.6118 126.766 77.599C126.83 77.2978 126.894 77.0029 126.952 76.7017L123.792 76.0736ZM128.169 63.3188L124.965 63.3573C124.965 63.6008 124.971 63.8508 124.971 64.0943C124.971 65.9787 124.881 67.8823 124.715 69.7475L127.907 70.0423C128.035 68.6258 128.125 67.1901 128.157 65.748C128.157 65.7416 128.157 65.7287 128.157 65.7223C128.157 65.6454 128.163 65.5685 128.163 65.4916C128.163 65.4852 128.163 65.4788 128.163 65.466C128.163 65.4595 128.163 65.4531 128.163 65.4403C128.163 65.389 128.163 65.3378 128.163 65.2865C128.163 65.2801 128.163 65.2737 128.163 65.2608C128.163 65.2608 128.163 65.2608 128.163 65.2544C128.163 65.248 128.163 65.2416 128.163 65.2352C128.163 65.2352 128.163 65.2352 128.163 65.2288C128.163 65.2224 128.163 65.216 128.163 65.2096C128.163 65.2032 128.163 65.1968 128.163 65.1839C128.163 65.1775 128.163 65.1711 128.163 65.1583C128.163 65.1519 128.163 65.1455 128.163 65.1327C128.163 65.1134 128.163 65.1006 128.163 65.0814C128.163 65.075 128.163 65.0686 128.163 65.0557V65.0493C128.163 65.0429 128.163 65.0365 128.163 65.0301V65.0237C128.163 65.0173 128.163 65.0109 128.163 65.0045V64.9981C128.163 64.9917 128.163 64.9852 128.163 64.9788V64.9724C128.163 64.966 128.163 64.9596 128.163 64.9532V64.9468C128.163 64.9404 128.163 64.934 128.163 64.9276V64.9212C128.163 64.9147 128.163 64.9083 128.163 64.9019V64.8955C128.163 64.8891 128.163 64.8827 128.163 64.8699C128.163 64.8506 128.163 64.8378 128.163 64.8186V64.8122C128.163 64.8058 128.163 64.7994 128.163 64.793V64.7866C128.163 64.7801 128.163 64.7737 128.163 64.7673V64.7609C128.163 64.7545 128.163 64.7481 128.163 64.7417V64.7353C128.163 64.7289 128.163 64.7225 128.163 64.7225C128.163 64.716 128.163 64.716 128.163 64.7096C128.163 64.7032 128.163 64.6968 128.163 64.6968V64.6904C128.163 64.684 128.163 64.6776 128.163 64.6712V64.6648C128.163 64.6584 128.163 64.652 128.163 64.6455V64.6391C128.163 64.6327 128.163 64.6263 128.163 64.6135C128.163 64.6071 128.163 64.5943 128.163 64.5879C128.163 64.5815 128.163 64.575 128.163 64.5622V64.5558C128.163 64.5494 128.163 64.543 128.163 64.5366V64.5302C128.163 64.5238 128.163 64.5174 128.163 64.5174C128.163 64.5109 128.163 64.5109 128.163 64.5045C128.163 64.4981 128.163 64.4917 128.163 64.4917V64.4853C128.163 64.4789 128.163 64.4725 128.163 64.4661V64.4597C128.163 64.4533 128.163 64.4469 128.163 64.4404V64.434C128.163 64.4276 128.163 64.4212 128.163 64.4148V64.4084C128.163 64.402 128.163 64.3956 128.163 64.3892V64.3828C128.163 64.3764 128.163 64.3699 128.163 64.3635C128.163 64.3635 128.163 64.3635 128.163 64.3571C128.163 64.3507 128.163 64.3379 128.163 64.3315V64.3251C128.163 64.3187 128.163 64.3123 128.163 64.3058V64.2994C128.163 64.293 128.163 64.2866 128.163 64.2802V64.2738C128.163 64.2674 128.163 64.261 128.163 64.261C128.163 64.2546 128.163 64.2546 128.163 64.2482C128.163 64.2418 128.163 64.2353 128.163 64.2353C128.163 64.2289 128.163 64.2289 128.163 64.2225C128.163 64.2161 128.163 64.2097 128.163 64.2097C128.163 64.2033 128.163 64.2033 128.163 64.1969C128.163 64.1905 128.163 64.1841 128.163 64.1841V64.1777C128.163 64.1712 128.163 64.1648 128.163 64.1584V64.152C128.163 64.1456 128.163 64.1392 128.163 64.1328V64.1264C128.163 64.12 128.163 64.1136 128.163 64.1007C128.163 64.0943 128.163 64.0815 128.163 64.0751V64.0687C128.163 64.0623 128.163 64.0559 128.163 64.0495V64.0431C128.163 64.0367 128.163 64.0302 128.163 64.0238V64.0174C128.163 64.011 128.163 64.0046 128.163 63.9982V63.9918C128.163 63.9854 128.163 63.979 128.163 63.9726V63.9661C128.163 63.9597 128.163 63.9533 128.163 63.9469V63.9405C128.163 63.9341 128.163 63.9277 128.163 63.9277V63.9213C128.163 63.9149 128.163 63.9085 128.163 63.9021V63.8956C128.163 63.8892 128.163 63.8828 128.163 63.8764V63.87C128.163 63.8636 128.163 63.8572 128.163 63.8508V63.8444C128.163 63.838 128.163 63.8315 128.163 63.8251V63.8187C128.163 63.8123 128.163 63.8059 128.163 63.7995V63.7931C128.163 63.7867 128.163 63.7803 128.163 63.7739V63.7675C128.163 63.761 128.163 63.7546 128.163 63.7482V63.7418C128.163 63.7354 128.163 63.729 128.163 63.7162C128.163 63.7098 128.163 63.7034 128.163 63.6969C128.163 63.6905 128.163 63.6905 128.163 63.6905C128.163 63.6841 128.163 63.6777 128.163 63.6713V63.6649C128.163 63.6585 128.163 63.6521 128.163 63.6457V63.6393C128.163 63.6329 128.163 63.6264 128.163 63.62V63.6136C128.163 63.6072 128.163 63.6008 128.163 63.5944C128.163 63.588 128.163 63.5816 128.163 63.5752C128.176 63.479 128.169 63.4021 128.169 63.3188ZM126.618 49.9744L123.491 50.6794C123.958 52.7496 124.317 54.8647 124.561 56.9799L127.746 56.6081C127.676 56.0313 127.605 55.4544 127.522 54.8776C127.522 54.8712 127.522 54.8647 127.516 54.8519C127.516 54.8455 127.516 54.8391 127.509 54.8263C127.509 54.8263 127.509 54.8263 127.509 54.8199C127.509 54.8135 127.509 54.8071 127.509 54.8007C127.509 54.8007 127.509 54.8007 127.509 54.7942C127.509 54.7878 127.509 54.7814 127.509 54.775V54.7686C127.509 54.7622 127.509 54.7558 127.509 54.7494V54.743C127.509 54.7366 127.509 54.7302 127.509 54.7237C127.509 54.7173 127.509 54.7173 127.509 54.7173C127.509 54.7109 127.509 54.7045 127.509 54.6981C127.509 54.6917 127.509 54.6917 127.509 54.6917C127.509 54.6853 127.509 54.6789 127.509 54.6725V54.6661C127.509 54.6596 127.509 54.6532 127.509 54.6468V54.6404C127.509 54.634 127.509 54.6276 127.509 54.6212V54.6148C127.509 54.6084 127.509 54.602 127.509 54.5956V54.5891C127.509 54.5827 127.509 54.5763 127.509 54.5699V54.5635C127.509 54.5571 127.509 54.5507 127.509 54.5443V54.5379C127.509 54.5315 127.509 54.525 127.509 54.5186C127.509 54.5122 127.509 54.5122 127.509 54.5122C127.509 54.5058 127.509 54.4994 127.509 54.493V54.4866C127.509 54.4802 127.509 54.4674 127.503 54.461C127.503 54.4417 127.496 54.4289 127.496 54.4097C127.496 54.4033 127.496 54.4033 127.496 54.3969C127.496 54.3905 127.496 54.384 127.496 54.3776C127.496 54.3712 127.496 54.3712 127.496 54.3712C127.496 54.3648 127.496 54.3584 127.496 54.352C127.496 54.3456 127.496 54.3456 127.496 54.3456C127.496 54.3392 127.496 54.3328 127.496 54.3264V54.32C127.496 54.3135 127.496 54.3071 127.496 54.3071C127.496 54.3007 127.496 54.3007 127.496 54.2943C127.496 54.2879 127.496 54.2879 127.496 54.2815C127.496 54.2751 127.496 54.2751 127.496 54.2687C127.496 54.2623 127.496 54.2623 127.496 54.2559C127.496 54.2494 127.496 54.2494 127.496 54.243C127.496 54.2366 127.496 54.2366 127.496 54.2302C127.496 54.2238 127.496 54.2238 127.496 54.2174C127.496 54.211 127.496 54.211 127.496 54.2046C127.496 54.1982 127.496 54.1982 127.496 54.1918C127.496 54.1854 127.496 54.1853 127.496 54.1789C127.496 54.1725 127.496 54.1725 127.496 54.1661C127.496 54.1597 127.496 54.1597 127.496 54.1533C127.496 54.1469 127.496 54.1405 127.496 54.1405C127.496 54.1341 127.496 54.1341 127.496 54.1277C127.496 54.1213 127.496 54.1148 127.496 54.1148V54.1084C127.496 54.102 127.496 54.0956 127.496 54.0892V54.0828C127.496 54.0764 127.496 54.07 127.496 54.0636V54.0572C127.496 54.0508 127.496 54.0443 127.496 54.0379V54.0315C127.496 54.0251 127.496 54.0187 127.496 54.0123V54.0059C127.496 53.9995 127.496 53.9931 127.496 53.9867C127.496 53.9867 127.496 53.9867 127.496 53.9803C127.496 53.9738 127.496 53.9674 127.49 53.961C127.49 53.961 127.49 53.961 127.49 53.9546C127.484 53.9162 127.477 53.8777 127.471 53.8392C127.471 53.8328 127.471 53.8264 127.464 53.82C127.464 53.82 127.464 53.82 127.464 53.8136C127.464 53.8072 127.464 53.8008 127.458 53.7944V53.788C127.458 53.7816 127.458 53.7752 127.452 53.7687V53.7623C127.452 53.7559 127.452 53.7495 127.452 53.7431V53.7367C127.452 53.7303 127.452 53.7239 127.452 53.7175V53.7111C127.452 53.7046 127.452 53.6982 127.452 53.6918V53.6854C127.452 53.679 127.452 53.6726 127.452 53.6662V53.6598C127.452 53.6534 127.452 53.647 127.452 53.6405V53.6341C127.452 53.6277 127.452 53.6213 127.452 53.6149V53.6085C127.452 53.6021 127.452 53.5957 127.452 53.5893V53.5829C127.452 53.5765 127.452 53.57 127.452 53.5636V53.5572C127.452 53.5508 127.452 53.5444 127.452 53.538V53.5316C127.452 53.5252 127.452 53.5188 127.452 53.5124V53.506C127.452 53.4995 127.452 53.4931 127.452 53.4867V53.4803C127.452 53.4739 127.452 53.4675 127.445 53.4611C127.445 53.4547 127.445 53.4483 127.439 53.4419C127.426 53.3778 127.42 53.3137 127.407 53.2496C127.407 53.2496 127.407 53.2496 127.407 53.2432C127.407 53.2368 127.407 53.2303 127.4 53.2239C127.4 53.2239 127.4 53.2239 127.4 53.2175C127.4 53.2111 127.4 53.2047 127.394 53.1983V53.1919C127.394 53.1855 127.394 53.1791 127.394 53.1727V53.1663C127.394 53.1598 127.394 53.1534 127.394 53.147V53.1406C127.394 53.1342 127.394 53.1278 127.394 53.1214V53.115C127.394 53.1086 127.394 53.1022 127.394 53.0957V53.0893C127.394 53.0829 127.394 53.0765 127.394 53.0701V53.0637C127.394 53.0573 127.394 53.0509 127.394 53.0445V53.0381C127.394 53.0317 127.394 53.0252 127.394 53.0188V53.0124C127.394 53.006 127.394 52.9996 127.394 52.9932V52.9868C127.394 52.9804 127.394 52.974 127.394 52.9676V52.9611C127.394 52.9547 127.394 52.9483 127.394 52.9419V52.9355C127.394 52.9291 127.394 52.9227 127.394 52.9163V52.9099C127.394 52.9035 127.394 52.8971 127.394 52.8906V52.8842C127.394 52.8778 127.394 52.8714 127.388 52.865C127.388 52.865 127.388 52.865 127.388 52.8586C127.381 52.833 127.375 52.8009 127.375 52.7753V52.7689C127.375 52.7625 127.375 52.7625 127.375 52.756C127.375 52.7496 127.375 52.7496 127.375 52.7432C127.375 52.7368 127.375 52.7368 127.375 52.7304C127.375 52.724 127.375 52.724 127.375 52.7176C127.375 52.7112 127.375 52.7112 127.375 52.7048C127.375 52.6984 127.375 52.6984 127.375 52.692C127.375 52.6855 127.375 52.6855 127.375 52.6791C127.375 52.6727 127.375 52.6727 127.375 52.6663C127.375 52.6599 127.375 52.6599 127.375 52.6535C127.375 52.6471 127.375 52.6471 127.375 52.6407C127.375 52.6343 127.375 52.6343 127.375 52.6279C127.375 52.6214 127.375 52.6215 127.375 52.615C127.375 52.6086 127.375 52.6086 127.375 52.6022C127.375 52.5958 127.375 52.5958 127.375 52.5894C127.375 52.583 127.375 52.583 127.375 52.5766C127.375 52.5702 127.375 52.5702 127.375 52.5638C127.375 52.5574 127.375 52.5574 127.375 52.5509C127.375 52.5445 127.375 52.5381 127.375 52.5381C127.375 52.5317 127.375 52.5317 127.375 52.5253C127.375 52.5189 127.375 52.5189 127.375 52.5125C127.375 52.5061 127.375 52.5061 127.375 52.4997C127.375 52.4933 127.375 52.4869 127.375 52.4869C127.375 52.4804 127.375 52.4804 127.375 52.474C127.375 52.4676 127.375 52.4676 127.375 52.4612C127.375 52.4548 127.375 52.4548 127.375 52.4484C127.375 52.442 127.375 52.442 127.375 52.4356C127.375 52.4292 127.375 52.4292 127.375 52.4228C127.375 52.4163 127.375 52.4163 127.375 52.4099C127.375 52.4099 127.375 52.4035 127.375 52.3971C127.375 52.3907 127.375 52.3843 127.375 52.3843C127.375 52.3779 127.375 52.3779 127.375 52.3715C127.375 52.3651 127.375 52.3587 127.368 52.3523V52.3458C127.368 52.3394 127.368 52.333 127.362 52.3266V52.3202C127.355 52.2882 127.349 52.2497 127.343 52.2177C127.343 52.2177 127.343 52.2177 127.343 52.2112C127.343 52.2048 127.343 52.1984 127.336 52.192C127.336 52.1856 127.336 52.1792 127.33 52.1664V52.16C127.33 52.1536 127.33 52.1472 127.323 52.1407V52.1343C127.323 52.1279 127.323 52.1215 127.317 52.1151V52.1087C127.317 52.1023 127.317 52.0959 127.311 52.0895C127.311 52.0895 127.311 52.0895 127.311 52.0831C127.311 52.0766 127.311 52.0702 127.304 52.0638C127.304 52.0638 127.304 52.0638 127.304 52.0574C127.304 52.051 127.304 52.0446 127.298 52.0382C127.298 52.0382 127.298 52.0382 127.298 52.0318C127.298 52.0254 127.298 52.019 127.291 52.0126V52.0061C127.291 51.9997 127.291 51.9933 127.285 51.9869C127.285 51.9869 127.285 51.9869 127.285 51.9805C127.285 51.9741 127.285 51.9677 127.279 51.9613C127.279 51.9613 127.279 51.9613 127.279 51.9549C127.279 51.9485 127.279 51.942 127.272 51.9356C127.272 51.9356 127.272 51.9356 127.272 51.9292C127.272 51.9228 127.272 51.9164 127.266 51.91C127.266 51.91 127.266 51.91 127.266 51.9036C127.266 51.8972 127.266 51.8908 127.259 51.878C126.894 51.2498 126.759 50.6089 126.618 49.9744ZM122.298 37.2516L119.389 38.5976C120.279 40.5268 121.074 42.5202 121.76 44.5327L124.798 43.5008C124.279 41.969 123.702 40.4563 123.068 38.9758C123.061 38.9694 123.061 38.9629 123.055 38.9501C123.048 38.9437 123.048 38.9373 123.042 38.9245C123.036 38.9181 123.035 38.9117 123.029 38.8989C123.01 38.8604 122.997 38.8219 122.978 38.7771C122.978 38.7707 122.978 38.7771 122.978 38.7707C122.978 38.7643 122.971 38.7578 122.971 38.7514C122.971 38.7514 122.971 38.745 122.965 38.745C122.965 38.7386 122.959 38.7322 122.959 38.7322C122.959 38.7322 122.952 38.7258 122.952 38.7194C122.952 38.713 122.946 38.713 122.946 38.7066C122.946 38.7002 122.946 38.7002 122.939 38.6938C122.939 38.6873 122.933 38.6873 122.933 38.6809C122.933 38.6745 122.927 38.6745 122.927 38.6681C122.927 38.6617 122.927 38.6617 122.92 38.6553C122.92 38.6489 122.914 38.6489 122.914 38.6425C122.914 38.6361 122.914 38.6361 122.907 38.6297C122.907 38.6232 122.901 38.6168 122.901 38.6168C122.901 38.6168 122.901 38.6104 122.894 38.6104C122.894 38.604 122.888 38.604 122.888 38.5976V38.5912C122.888 38.5848 122.882 38.5784 122.882 38.572C122.702 38.1361 122.504 37.6939 122.298 37.2516ZM115.421 25.7146L112.857 27.6375C114.133 29.336 115.325 31.1242 116.415 32.9445L119.164 31.3037C118.011 29.3744 116.761 27.5093 115.421 25.7146ZM106.288 15.8569L104.179 18.2669C105.775 19.6641 107.32 21.1639 108.762 22.7214L111.114 20.5422C109.589 18.9014 107.98 17.3375 106.288 15.8569ZM95.3147 8.10793L93.7508 10.9024C95.6031 11.9408 97.4234 13.0817 99.1604 14.3123L101.006 11.6972C99.1732 10.4025 97.276 9.21036 95.3147 8.10793ZM82.9573 2.82656L82.0151 5.89027C84.0405 6.51198 86.0595 7.25548 88.0144 8.08871L89.277 5.14037C88.4438 4.78144 87.5977 4.44174 86.7517 4.12127C86.6876 4.09563 86.6235 4.06999 86.553 4.04435C86.5466 4.04435 86.5402 4.03794 86.5274 4.03794C86.521 4.03794 86.5145 4.03153 86.5017 4.03153C86.4953 4.03153 86.4889 4.02512 86.4825 4.02512C86.4761 4.02512 86.4697 4.01871 86.4633 4.01871H86.4569C86.4504 4.01871 86.444 4.01231 86.4376 4.01231C86.4376 4.01231 86.4376 4.01231 86.4312 4.01231C86.4248 4.01231 86.4184 4.0059 86.412 4.0059C86.412 4.0059 86.412 4.0059 86.4056 4.0059C86.3992 4.0059 86.3928 3.99949 86.3864 3.99949C86.3864 3.99949 86.3864 3.99949 86.38 3.99949C86.3735 3.99949 86.3671 3.99308 86.3607 3.99308H86.3543C86.3479 3.99308 86.3415 3.98667 86.3287 3.98667C86.303 3.98026 86.2774 3.96744 86.2582 3.96103H86.2518C86.2454 3.96103 86.2389 3.95462 86.2325 3.95462C86.2261 3.95462 86.2325 3.95462 86.2261 3.95462C86.2197 3.95462 86.2133 3.94821 86.2069 3.94821H86.2005C86.1941 3.94821 86.1877 3.9418 86.1813 3.9418H86.1748C86.1684 3.9418 86.162 3.93539 86.162 3.93539C86.1556 3.93539 86.1556 3.93539 86.1492 3.92898C86.1428 3.92898 86.1364 3.92257 86.1364 3.92257C86.13 3.92257 86.13 3.92257 86.13 3.92257C86.1236 3.92257 86.1172 3.91616 86.1172 3.91616C86.1108 3.91616 86.1107 3.91616 86.1107 3.91616C86.1043 3.91616 86.0979 3.90975 86.0979 3.90975C86.0915 3.90975 86.0915 3.90975 86.0915 3.90335C86.0851 3.90335 86.0851 3.89694 86.0787 3.89694C86.0787 3.89694 86.0723 3.89694 86.0659 3.89053C86.0595 3.89053 86.0595 3.88412 86.0531 3.88412C86.0531 3.88412 86.0467 3.88412 86.0467 3.87771C86.0402 3.87771 86.0402 3.8713 86.0338 3.8713C86.0274 3.8713 86.0274 3.8713 86.021 3.86489C86.0146 3.86489 86.0146 3.85848 86.0082 3.85848C86.0018 3.85848 86.0018 3.85848 85.9954 3.85207C85.989 3.85207 85.989 3.85207 85.9826 3.84566C85.9762 3.84566 85.9697 3.83925 85.9633 3.83925C85.9569 3.83925 85.9505 3.83284 85.9441 3.83284C85.9377 3.83284 85.9313 3.82643 85.9249 3.82643C85.9185 3.82643 85.9185 3.82643 85.9121 3.82002C85.9056 3.82002 85.9057 3.82002 85.8992 3.81361C85.8928 3.81361 85.8928 3.81361 85.8864 3.8072C85.88 3.8072 85.88 3.8072 85.8736 3.80079C85.8672 3.80079 85.8672 3.80079 85.8608 3.79438C85.8544 3.79438 85.8544 3.79438 85.848 3.78798C85.8416 3.78798 85.8416 3.78157 85.8352 3.78157C85.8287 3.78157 85.8287 3.78157 85.8223 3.77516C85.8159 3.77516 85.8095 3.76875 85.8095 3.76875C85.8031 3.76875 85.8031 3.76875 85.7967 3.76234C85.7903 3.76234 85.7839 3.75593 85.7839 3.75593H85.7775C85.771 3.75593 85.7646 3.74952 85.7646 3.74952C85.7646 3.74952 85.7582 3.74952 85.7582 3.74311C85.7518 3.74311 85.7454 3.7367 85.7454 3.7367H85.739C85.7326 3.7367 85.7262 3.73029 85.7198 3.73029H85.7134C85.707 3.73029 85.7005 3.72388 85.6941 3.72388C85.6941 3.72388 85.6941 3.72388 85.6877 3.72388C85.6365 3.70465 85.5852 3.68542 85.5275 3.6662C85.5211 3.6662 85.5147 3.65979 85.5083 3.65979C85.5019 3.65979 85.4954 3.65338 85.489 3.65338C85.489 3.65338 85.489 3.65338 85.4826 3.65338C85.4762 3.65338 85.4698 3.64697 85.4634 3.64697C85.457 3.64697 85.4506 3.64056 85.4442 3.64056C85.4378 3.64056 85.4314 3.63415 85.4249 3.63415C85.4185 3.63415 85.4121 3.62774 85.4057 3.62774C84.5789 3.33931 83.7713 3.07653 82.9573 2.82656ZM69.7731 0.249968L69.4911 3.44187C71.6126 3.62774 73.7405 3.92898 75.8172 4.33278L76.4325 1.18575C76.1954 1.14088 75.9582 1.09601 75.7147 1.05115H75.7082C75.7018 1.05115 75.6954 1.05115 75.689 1.04474H75.6826C75.6762 1.04474 75.6698 1.04474 75.6634 1.03833H75.657C75.6506 1.03833 75.6441 1.03833 75.6441 1.03833C75.6377 1.03833 75.6377 1.03833 75.6313 1.03833C75.6249 1.03833 75.6249 1.03833 75.6185 1.03833C75.6121 1.03833 75.6121 1.03833 75.6057 1.03833C75.5993 1.03833 75.5993 1.03833 75.5929 1.03833C75.5865 1.03833 75.5801 1.03833 75.5801 1.03833C75.5736 1.03833 75.5736 1.03833 75.5672 1.03833C75.5608 1.03833 75.5544 1.03833 75.548 1.03833H75.5416C75.5352 1.03833 75.5288 1.03833 75.5224 1.03833H75.516C75.5096 1.03833 75.5031 1.03833 75.4967 1.03192H75.4903C75.4839 1.03192 75.4775 1.03192 75.4711 1.02551H75.4647C75.4583 1.02551 75.4519 1.02551 75.4455 1.0191C75.439 1.0191 75.4326 1.0191 75.4198 1.01269C74.1379 0.781951 72.8432 0.596077 71.5421 0.442251C71.5421 0.442251 71.5421 0.442251 71.5357 0.442251C71.5293 0.442251 71.5229 0.442251 71.5165 0.442251H71.5101C71.5037 0.442251 71.5036 0.442251 71.4972 0.442251C71.4908 0.442251 71.4908 0.442251 71.4844 0.442251C71.478 0.442251 71.478 0.442251 71.4716 0.442251C71.4652 0.442251 71.4652 0.442251 71.4588 0.442251C71.4524 0.442251 71.4524 0.442251 71.446 0.442251C71.4396 0.442251 71.4396 0.442251 71.4331 0.442251C71.4267 0.442251 71.4267 0.442251 71.4203 0.442251C71.4139 0.442251 71.4139 0.442251 71.4075 0.442251C71.4011 0.442251 71.4011 0.442251 71.3947 0.442251C71.3883 0.442251 71.3819 0.442251 71.3819 0.442251C71.3755 0.442251 71.3755 0.442251 71.369 0.442251C71.3626 0.442251 71.3562 0.442251 71.3562 0.442251C71.3498 0.442251 71.3498 0.442251 71.3434 0.442251C71.337 0.442251 71.3306 0.442251 71.3242 0.442251H71.3178C71.3114 0.442251 71.305 0.442251 71.2985 0.442251C71.2921 0.442251 71.2985 0.442251 71.2921 0.442251C71.2857 0.442251 71.2793 0.442251 71.2729 0.442251H71.2665C71.2601 0.442251 71.2537 0.442251 71.2473 0.442251C71.2473 0.442251 71.2473 0.442251 71.2409 0.442251C71.2345 0.442251 71.2281 0.442251 71.2152 0.442251C71.2088 0.442251 71.196 0.442251 71.1896 0.442251C70.7217 0.3397 70.2474 0.288425 69.7731 0.249968Z" fill="white"/>
<defs>
<linearGradient id="paint0_linear_44_483" x1="0" y1="0" x2="150.5" y2="7.54511" gradientUnits="userSpaceOnUse">
<stop stop-color="#2B8F27"/>
<stop offset="1" stop-color="#2500FF"/>
</linearGradient>
</defs>
</svg>
