<svg width="129" height="130" viewBox="0 0 129 130" fill="none" xmlns="http://www.w3.org/2000/svg">
<path d="M64.0943 129.141C99.4927 129.141 128.189 100.445 128.189 65.047C128.189 29.6487 99.4927 0.952637 64.0943 0.952637C28.696 0.952637 0 29.6487 0 65.047C0 100.445 28.696 129.141 64.0943 129.141Z" fill="url(#paint0_linear_28_2398)"/>
<path d="M64.094 0.952637C64.0195 0.952637 64.0195 0.952637 64.094 0.952637C64.0195 0.952637 64.0195 0.952637 64.094 0.952637C64.0195 0.952637 64.0195 0.952637 64.0195 0.952637C63.8705 0.952637 63.7959 0.952637 63.6469 0.952637C63.6469 0.952637 63.6469 0.952637 63.5723 0.952637C63.5723 0.952637 63.5723 0.952637 63.4978 0.952637C62.2308 0.952637 60.9638 1.02717 59.6969 1.17622C59.6969 1.17622 59.6969 1.17622 59.6223 1.17622C59.3242 1.17622 59.0261 1.25075 58.6535 1.25075L58.9516 4.45547C61.0384 4.23188 63.1997 4.15735 65.361 4.15735V0.952637H64.094ZM50.7535 2.36867C49.4865 2.66679 48.294 2.9649 47.0271 3.26301C47.0271 3.26301 47.0271 3.26301 46.9525 3.26301C46.2072 3.4866 45.462 3.71018 44.7167 3.93377L45.6855 6.98943C47.6978 6.31867 49.7846 5.79698 51.8714 5.34981L50.7535 2.36867ZM37.9346 6.54226C35.8478 7.4366 33.9101 8.48 31.9723 9.59792L33.612 12.3555C35.4752 11.3121 37.3384 10.3432 39.2761 9.44886L37.9346 6.54226ZM26.3082 13.2498C25.9355 13.5479 25.5629 13.7715 25.1903 14.0696C25.1903 14.0696 25.1157 14.0696 25.1157 14.1441C25.1157 14.1441 25.0412 14.1441 25.0412 14.2187C24.9667 14.2932 24.9667 14.2932 24.8921 14.3677C23.7742 15.2621 22.7308 16.1564 21.6874 17.0508L23.8487 19.4357C25.4138 18.0196 27.128 16.6781 28.8421 15.4111L26.3082 13.2498ZM16.3959 22.2677C14.9054 23.9074 13.5638 25.6215 12.2969 27.3357C12.2969 27.3357 12.2969 27.3357 12.2969 27.4102L12.2223 27.4847L14.8308 29.3479C16.0978 27.6338 17.4393 25.9196 18.8554 24.3545L16.3959 22.2677ZM8.49592 33.1489C7.75063 34.4158 7.07988 35.7574 6.40912 37.1734C6.40912 37.2479 6.3346 37.2479 6.3346 37.3224V37.397C6.11101 37.8441 5.88743 38.2913 5.73837 38.7385L8.64497 40.0055C9.53931 38.0677 10.5082 36.13 11.5516 34.3413L8.49592 33.1489ZM3.05535 45.446C3.05535 45.5206 3.05535 45.5206 3.05535 45.446C3.05535 45.5206 3.05535 45.5206 3.05535 45.5206C2.98082 45.6696 2.98082 45.7441 2.98082 45.7441C2.98082 45.7441 2.98082 45.7441 2.98082 45.8187C2.3846 47.7564 1.8629 49.7687 1.41573 51.8555L4.47139 52.6007C4.91856 50.514 5.44026 48.4272 6.11101 46.4149L3.05535 45.446ZM0.297804 58.563C0.148747 59.6809 0.0742188 60.7989 0.0742188 61.9913C0.0742188 61.9913 0.0742188 61.9913 0.0742188 62.0658C0.0742188 62.0658 0.0742188 62.0658 0.0742188 62.1404C0.0742188 62.2149 0.0742188 62.364 0.0742188 62.4385C0.0742188 62.4385 0.0742188 62.4385 0.0742188 62.513C0.0742188 62.5875 0.0742188 62.5875 0.0742188 62.6621H3.27894V62.4385C3.27894 60.4262 3.35346 58.3394 3.57705 56.3272L0.297804 58.563ZM3.57705 71.68L0.372332 72.0526C0.372332 72.1272 0.372332 72.2762 0.372332 72.3508C0.521389 73.6177 0.744973 74.9592 0.968558 76.2262C0.968558 76.3008 0.968558 76.3007 0.968558 76.3753C1.04309 76.9715 1.19214 77.4932 1.3412 78.0894L4.47139 77.4187C4.09875 75.9281 3.80063 73.7668 3.57705 71.68ZM6.26007 84.1262L3.20441 85.1696C3.27894 85.3187 3.35346 85.5423 3.35346 85.6913C3.87516 87.3309 4.54592 88.896 5.21667 90.3866C5.2912 90.5357 5.2912 90.6102 5.36573 90.7592L8.27233 89.4177C7.67611 88.1507 6.93082 86.1385 6.26007 84.1262ZM11.5516 95.7526L8.79403 97.3923C9.16667 98.063 9.61384 98.7338 10.061 99.4045C10.061 99.4791 10.1355 99.479 10.1355 99.5536C10.1355 99.5536 10.1355 99.5536 10.1355 99.6281C10.1355 99.6281 10.1355 99.6281 10.1355 99.7026L10.2101 99.7772C10.2846 99.8517 10.2846 99.9262 10.3591 99.9262C10.3591 100.001 10.4337 100.001 10.4337 100.075C10.5082 100.15 10.5082 100.224 10.5827 100.299C10.6572 100.373 10.7318 100.448 10.7318 100.522C11.0299 100.97 11.4025 101.417 11.7006 101.864L14.3091 100.001C13.7874 99.4045 12.595 97.6158 11.5516 95.7526ZM19.0789 106.038L16.694 108.199C16.9921 108.497 17.2157 108.795 17.5138 109.093C17.5138 109.093 17.5138 109.093 17.5138 109.168C18.7063 110.435 19.9733 111.627 21.2403 112.745L23.4016 110.36C22.0601 109.168 20.495 107.603 19.0789 106.038ZM28.6186 114.534L26.7554 117.142C28.4695 118.409 30.2582 119.527 32.1214 120.571C32.1959 120.571 32.1959 120.645 32.2704 120.645L33.8355 117.888C32.1214 116.919 30.3327 115.801 28.6186 114.534ZM39.7233 120.869L38.4563 123.775C38.8289 123.924 39.2016 124.073 39.5742 124.222C41.1393 124.819 42.7044 125.415 44.2695 125.937L45.2384 122.881C43.6733 122.434 41.661 121.688 39.7233 120.869ZM51.8714 124.744L51.2006 127.874C52.7657 128.172 54.3308 128.471 55.8959 128.62C56.5667 128.694 57.1629 128.769 57.8337 128.843L58.1318 125.638C56.045 125.415 53.9582 125.117 51.8714 124.744ZM70.9506 125.564C68.8638 125.788 66.7025 125.937 64.5412 125.937V129.141C66.7771 129.141 69.0129 128.992 71.2487 128.769L70.9506 125.564ZM83.3969 122.806C81.3846 123.477 79.2978 124.073 77.211 124.521L77.8818 127.651H77.9563H78.0308C78.1054 127.651 78.1054 127.651 78.1799 127.651C78.2544 127.651 78.3289 127.576 78.478 127.576C79.5959 127.278 80.6393 126.98 81.6827 126.607C81.7572 126.607 81.7572 126.607 81.8318 126.533L83.3969 122.806ZM95.0233 117.515C93.1601 118.633 91.2969 119.602 89.3591 120.496L90.7006 123.403C92.4148 122.657 94.0544 121.763 95.694 120.869C95.694 120.869 95.694 120.869 95.7686 120.869C95.7686 120.869 95.7686 120.869 95.8431 120.869C95.9176 120.869 95.9176 120.794 95.9921 120.794C95.9921 120.794 95.9921 120.794 96.0667 120.794C96.0667 120.794 96.1412 120.794 96.1412 120.72C96.1412 120.72 96.1412 120.72 96.2157 120.72C96.2157 120.72 96.2903 120.72 96.2903 120.645L95.0233 117.515ZM105.308 109.913C103.743 111.329 102.103 112.745 100.389 114.012L102.327 116.621C104.116 115.279 105.83 113.863 107.544 112.298L105.308 109.913ZM113.73 100.299C112.463 102.013 111.196 103.727 109.78 105.292L112.165 107.379C113.357 105.963 114.55 104.547 115.668 103.056C115.668 102.982 115.742 102.982 115.742 102.907C115.742 102.907 115.742 102.907 115.742 102.833C115.742 102.833 115.742 102.758 115.817 102.758L113.73 100.299ZM119.99 89.1941C119.17 91.1319 118.202 93.0696 117.158 94.9328L119.916 96.4979C120.065 96.1998 120.214 95.9762 120.363 95.6781C121.183 94.113 122.003 92.5479 122.673 90.9083L119.99 89.1941ZM123.791 77.046C123.344 79.1328 122.822 81.2196 122.226 83.2319L125.282 84.2007C125.505 83.3809 125.803 82.5611 126.027 81.6668C126.325 80.5489 126.549 79.3564 126.847 78.2385L123.791 77.046ZM128.188 64.3017L124.984 64.3762C124.984 64.5998 124.984 64.8979 124.984 65.1215C124.984 66.9847 124.909 68.9224 124.76 70.7857L127.965 71.0838C128.039 70.0404 128.114 69.0715 128.188 68.0281C128.188 68.0281 128.188 68.0281 128.188 67.9536C128.188 67.8791 128.188 67.8045 128.188 67.8045C128.188 67.73 128.188 67.73 128.188 67.6555C128.188 67.5809 128.188 67.5809 128.188 67.5064V67.4319V67.3574C128.188 67.3574 128.188 67.3574 128.188 67.2828C128.188 67.2828 128.188 67.2828 128.188 67.2083C128.188 67.2083 128.188 67.2083 128.188 67.1338C128.188 64.6743 128.188 64.4507 128.188 64.3017ZM126.623 50.9611L123.493 51.6319C123.94 53.7187 124.313 55.8055 124.536 57.9668L127.741 57.5941V57.5196C127.592 56.1781 127.369 54.8366 127.145 53.4951C127.145 53.4206 127.145 53.4206 127.145 53.346C127.145 53.2715 127.145 53.2715 127.145 53.197C127.145 53.1224 127.145 53.1224 127.145 53.0479C126.698 51.1847 126.623 51.0357 126.623 50.9611ZM122.301 38.2168L119.394 39.5583C120.288 41.496 121.108 43.5083 121.779 45.5206L124.835 44.4772C124.313 42.8375 123.642 41.2724 122.971 39.7074V39.6328C122.971 39.6328 122.971 39.6328 122.971 39.5583C122.524 38.664 122.45 38.4404 122.301 38.2168ZM115.444 26.6649L112.91 28.6026C114.177 30.3168 115.37 32.1055 116.487 33.8941L119.245 32.2545C119.17 32.1055 119.021 31.9564 118.947 31.8074C118.947 31.7328 118.872 31.7328 118.872 31.6583C118.872 31.5838 118.798 31.5838 118.798 31.5838C118.798 31.5838 118.798 31.5838 118.798 31.5092C118.127 30.4658 117.456 29.4224 116.711 28.3791C116.711 28.3791 116.711 28.3045 116.636 28.3045C115.891 27.3357 115.668 26.963 115.444 26.6649ZM106.277 16.8272L104.19 19.2121C105.755 20.6281 107.32 22.1187 108.736 23.6838L111.121 21.5224C109.631 19.8828 107.991 18.3177 106.277 16.8272ZM95.3214 9.07622L93.7563 11.9083C95.6195 12.9517 97.4082 14.0696 99.1969 15.3366L101.06 12.7281C99.3459 11.5357 97.5572 10.4177 95.7686 9.37434C95.694 9.37434 95.694 9.29981 95.6195 9.29981C95.3959 9.07622 95.3959 9.07622 95.3214 9.07622C95.3959 9.07622 95.3959 9.07622 95.3214 9.07622C95.3959 9.07622 95.3959 9.07622 95.3214 9.07622C95.3959 9.07622 95.3959 9.07622 95.3214 9.07622ZM82.9497 3.78471L81.9808 6.84037C83.9931 7.4366 86.0054 8.18188 87.9431 9.07622L89.2101 6.09509C87.9431 5.57339 86.6761 5.05169 85.4091 4.60452H85.3346C85.3346 4.60452 85.2601 4.60452 85.2601 4.53C84.1422 4.15735 83.5459 3.93377 82.9497 3.78471ZM69.7582 1.17622L69.4601 4.38094C71.5469 4.60452 73.7082 4.90264 75.795 5.27528L76.3912 2.14509C75.1242 1.9215 73.8572 1.69792 72.5903 1.54886C72.5903 1.54886 72.5903 1.54886 72.5157 1.54886C72.5157 1.54886 72.5157 1.54886 72.4412 1.54886C71.1742 1.32528 70.5035 1.25075 69.7582 1.17622Z" fill="white"/>
<g clip-path="url(#clip0_28_2398)">
<path d="M58.8582 100.032C58.0561 99.7111 57.1938 99.8281 56.3683 99.7713C52.408 99.5106 48.4878 98.9558 44.5909 98.2172C44.4439 98.1905 44.3035 98.1404 44.1565 98.1036C43.8022 98.02 43.5449 97.8195 43.5816 97.4352C43.6217 97.0107 43.9292 96.8604 44.3269 96.8704C47.5453 96.9573 50.7637 97.0575 53.9821 97.121C56.2046 97.1645 58.427 97.1611 60.6495 97.1745C64.3692 97.1946 68.0889 97.0776 71.802 96.867C76.3973 96.6097 80.8489 95.7341 85.0165 93.6921C85.9589 93.2309 86.8579 92.6928 87.66 92.0043C87.9207 91.7804 88.2048 91.5131 88.5858 91.7704C88.9735 92.0344 88.9167 92.4254 88.793 92.783C88.1781 94.561 86.8613 95.714 85.2939 96.6264C82.8976 98.02 80.2407 98.5648 77.5403 98.9659C74.5324 99.417 71.5112 99.7546 68.4699 99.8782C68.3429 99.8849 68.2193 99.8916 68.1491 100.022H58.8481L58.8582 100.032Z" fill="white"/>
<path d="M71.0446 30.4373C71.0814 33.6456 69.7178 36.2625 67.619 38.5752C65.6138 40.7876 63.2677 42.6191 60.9884 44.5241C60.0125 45.3395 59.0801 46.2085 58.1175 47.044C56.393 48.5379 55.855 50.386 56.2259 52.6285C56.8442 56.3516 58.0941 59.8574 59.6749 63.2596C59.7919 63.5069 59.9289 63.7476 60.0292 64.0016C60.1529 64.3157 60.2097 64.6399 59.9055 64.8939C59.5914 65.1579 59.2772 65.0242 59.0266 64.8103C55.5976 61.9161 52.5296 58.7378 50.9187 54.4299C49.7223 51.2382 50.2303 48.2839 52.1052 45.4732C53.7829 42.96 55.9552 40.9681 58.3515 39.1801C60.4102 37.6428 62.5825 36.2591 64.5243 34.5647C66.6498 32.7065 67.4586 30.2401 67.853 27.5698C68.0134 26.4769 68.01 25.3807 67.853 24.2845C67.7928 23.8701 67.7728 23.4423 68.2674 23.292C68.7152 23.1583 68.9358 23.4992 69.133 23.8367C70.3294 25.8754 71.0179 28.0611 71.0379 30.4406L71.0446 30.4373Z" fill="white"/>
<path d="M38.3446 90.3669C39.5176 91.0387 40.7876 91.2392 42.0275 91.4564C45.5668 92.0747 49.1361 92.4056 52.7288 92.5727C56.6758 92.7565 60.6194 92.7565 64.5597 92.5159C70.161 92.1716 75.7389 91.5868 81.1864 90.133C81.8582 89.9525 82.5166 89.7152 83.1683 89.4612C83.6261 89.2841 83.9436 88.9933 83.6763 88.4219C83.5292 88.111 83.6094 87.8069 83.9002 87.6365C84.1776 87.4727 84.4683 87.5429 84.739 87.7367C85.989 88.6291 86.1193 90.1296 85.0331 91.2192C84.2344 92.0213 83.195 92.419 82.179 92.82C79.5488 93.8627 76.7983 94.4643 74.0144 94.9255C69.282 95.7075 64.5129 96.0351 59.7204 96.1855C55.9706 96.3058 52.2275 96.2256 48.4877 96.0852C44.5775 95.9348 40.664 95.6674 36.864 94.618C35.6576 94.2872 34.4845 93.846 33.5588 92.9503C32.1116 91.55 32.3656 89.8355 34.1403 88.9131C35.9951 87.9473 38.0271 87.6866 40.0557 87.446C41.3925 87.2856 42.7394 87.2254 44.0829 87.1218C44.504 87.0884 44.9485 87.1118 45.0153 87.6298C45.0788 88.1211 44.7112 88.2882 44.2701 88.3818C42.6124 88.7394 40.9514 89.0802 39.3773 89.7386C39.033 89.8823 38.6821 90.006 38.3513 90.3636L38.3446 90.3669Z" fill="white"/>
<path d="M45.326 68.2925C46.9903 68.7905 48.5945 68.8506 50.1786 68.9576C54.52 69.2483 58.8647 69.1848 63.2026 68.9576C67.3836 68.737 71.5645 68.4496 75.6552 67.4636C76.0696 67.3634 76.4305 67.4068 76.6143 67.8012C76.8148 68.2323 76.504 68.4997 76.1799 68.7169C73.7468 70.3679 71.0064 71.2703 68.1857 71.9721C63.5001 73.1385 58.7276 73.3691 53.9284 73.3423C50.1786 73.3223 46.4489 73.1351 42.8127 72.1225C41.6063 71.7883 40.4332 71.3404 39.5141 70.4381C38.2943 69.2416 38.448 67.6976 39.8617 66.7518C41.2954 65.796 42.9498 65.5152 44.5974 65.2378C46.7664 64.8736 48.9554 64.7399 51.1579 64.7566C51.5856 64.7566 52.0803 64.6864 52.1672 65.2646C52.2607 65.8929 51.716 65.9698 51.2915 66.0633C49.6606 66.431 48.0464 66.8587 46.5091 67.5238C46.108 67.6976 45.6903 67.8547 45.326 68.2891V68.2925Z" fill="white"/>
<path d="M63.8155 66.9891C63.8523 66.8956 63.9425 66.665 64.0428 66.441C64.4973 65.4083 64.7881 64.3255 64.9485 63.2093C65.0721 62.3437 64.7881 61.6017 64.2567 60.9166C63.3443 59.7335 62.3617 58.5972 61.6666 57.2504C60.6406 55.2685 60.186 53.1564 60.3732 50.9539C60.5236 49.1793 61.573 47.8091 62.7728 46.5758C64.9451 44.3433 67.5987 42.7993 70.3192 41.3622C71.7529 40.6036 73.2401 39.9586 74.734 39.3303C75.1418 39.1598 75.5562 38.9894 75.8369 39.5074C76.1009 39.9953 75.7233 40.2426 75.4125 40.49C72.7923 42.5754 70.1554 44.6475 67.9229 47.164C67.1242 48.0664 66.4323 49.0456 66.1984 50.2655C65.9879 51.3617 66.3254 52.3275 66.8969 53.2499C67.6455 54.4564 68.4877 55.6027 69.0759 56.9128C70.0986 59.1821 69.9816 61.3711 68.7016 63.4933C67.7224 65.1176 66.4357 66.4711 64.9251 67.6108C64.6711 67.8013 64.397 67.9249 64.0929 67.7779C63.8456 67.6576 63.762 67.4203 63.8122 66.9925L63.8155 66.9891Z" fill="white"/>
<path d="M59.903 84.1438C62.6034 84.0502 65.3673 83.4988 68.1412 83.0142C68.6158 82.9307 69.0034 82.9574 69.4179 83.2181C70.4706 83.8898 71.5468 84.5215 72.6129 85.1765C72.9304 85.3704 73.2913 85.5408 73.2713 86.002C73.2479 86.4833 72.8535 86.5668 72.5093 86.7072C69.6685 87.8635 66.7108 88.5052 63.6628 88.806C59.3081 89.2338 54.9969 88.9698 50.7291 88.0206C49.4825 87.7432 48.2827 87.3255 47.2767 86.4766C45.7728 85.2066 45.9198 83.3518 47.6443 82.4093C48.53 81.9247 49.5059 81.6941 50.5252 81.7208C51.1569 81.7375 51.4108 82.0918 51.1067 82.6499C50.8293 83.1546 51.1067 83.1613 51.4543 83.2548C53.0284 83.6826 54.646 83.813 56.2568 83.9634C57.4232 84.0703 58.5996 84.0803 59.8997 84.1405L59.903 84.1438Z" fill="white"/>
<path d="M58.0203 80.7083C53.3013 80.6983 49.9426 80.3574 46.7142 79.1576C46.1026 78.9304 45.5277 78.6196 45.0064 78.2352C43.8099 77.3529 43.7832 76.0997 44.9362 75.1639C46.019 74.2849 47.3558 74.0142 48.6492 73.6499C48.9767 73.5563 49.2407 73.7402 49.3644 74.0543C49.478 74.3551 49.3377 74.5857 49.0937 74.7662C49.0736 74.7795 49.0536 74.7929 49.0302 74.8096C48.7394 75.0235 48.188 75.1204 48.2716 75.5248C48.3584 75.9392 48.9199 75.9325 49.2909 75.9994C53.2245 76.6979 57.1781 76.6912 61.1485 76.3804C64.2867 76.1364 67.3848 75.6384 70.4428 74.9099C70.8037 74.823 71.0744 74.9299 71.3485 75.1204C72.2074 75.722 73.0629 76.3303 73.9252 76.9285C74.2427 77.1491 74.5568 77.3763 74.4599 77.8275C74.3597 78.2887 73.9386 78.3288 73.5843 78.409C71.0042 78.9805 68.4175 79.5152 65.804 79.8962C62.7928 80.3374 59.7749 80.7317 58.0237 80.7083H58.0203Z" fill="white"/>
<path d="M83.3565 63.7206C86.6551 63.7006 88.7171 65.542 89.449 69.1314C89.8668 71.1734 89.2752 72.9313 87.9418 74.4587C85.9867 76.6978 83.3765 77.8843 80.6594 78.8668C79.6769 79.2211 78.6609 79.4851 77.6583 79.7792C77.2639 79.8928 76.8328 79.9731 76.6155 79.5018C76.3983 79.0339 76.7358 78.7766 77.0801 78.5326C79.082 77.1156 81.0003 75.605 82.6379 73.7669C83.3197 73.0015 83.9547 72.1994 84.3658 71.2469C84.9707 69.8466 84.5596 68.4998 83.2829 67.6643C81.8325 66.7151 80.1848 66.4711 78.5138 66.3141C78.1094 66.2773 77.7485 66.2105 77.6649 65.7526C77.5847 65.3148 77.9323 65.151 78.2465 64.9873C79.5632 64.2955 81.8525 63.7273 83.3598 63.7173L83.3565 63.7206Z" fill="white"/>
</g>
<defs>
<linearGradient id="paint0_linear_28_2398" x1="0" y1="0.952637" x2="150.5" y2="8.49774" gradientUnits="userSpaceOnUse">
<stop stop-color="#2B8F27"/>
<stop offset="1" stop-color="#2500FF"/>
</linearGradient>
<clipPath id="clip0_28_2398">
<rect width="56.9654" height="76.7704" fill="white" transform="translate(32.6133 23.2617)"/>
</clipPath>
</defs>
</svg>
