<svg width="129" height="129" viewBox="0 0 129 129" fill="none" xmlns="http://www.w3.org/2000/svg">
<path d="M64.0943 128.189C99.4927 128.189 128.189 99.4927 128.189 64.0943C128.189 28.696 99.4927 0 64.0943 0C28.696 0 0 28.696 0 64.0943C0 99.4927 28.696 128.189 64.0943 128.189Z" fill="url(#paint0_linear_44_469)"/>
<path d="M64.094 0C64.0195 0 64.0195 0 64.094 0C64.0195 0 64.0195 0 64.094 0C64.0195 0 64.0195 0 64.0195 0C63.8705 0 63.7959 0 63.6469 0C63.6469 0 63.6469 0 63.5723 0C63.5723 0 63.5723 0 63.4978 0C62.2308 0 60.9638 0.0745283 59.6969 0.223585C59.6969 0.223585 59.6969 0.223585 59.6223 0.223585C59.3242 0.223585 59.0261 0.298113 58.6535 0.298113L58.9516 3.50283C61.0384 3.27925 63.1997 3.20472 65.361 3.20472V0H64.094ZM50.7535 1.41604C49.4865 1.71415 48.294 2.01226 47.0271 2.31038C47.0271 2.31038 47.0271 2.31038 46.9525 2.31038C46.2072 2.53396 45.462 2.75755 44.7167 2.98113L45.6855 6.03679C47.6978 5.36604 49.7846 4.84434 51.8714 4.39717L50.7535 1.41604ZM37.9346 5.58962C35.8478 6.48396 33.9101 7.52736 31.9723 8.64528L33.612 11.4028C35.4752 10.3594 37.3384 9.39057 39.2761 8.49623L37.9346 5.58962ZM26.3082 12.2972C25.9355 12.5953 25.5629 12.8189 25.1903 13.117C25.1903 13.117 25.1157 13.117 25.1157 13.1915C25.1157 13.1915 25.0412 13.1915 25.0412 13.266C24.9667 13.3406 24.9667 13.3406 24.8921 13.4151C23.7742 14.3094 22.7308 15.2038 21.6874 16.0981L23.8487 18.483C25.4138 17.067 27.128 15.7255 28.8421 14.4585L26.3082 12.2972ZM16.3959 21.3151C14.9054 22.9547 13.5638 24.6689 12.2969 26.383C12.2969 26.383 12.2969 26.383 12.2969 26.4575L12.2223 26.5321L14.8308 28.3953C16.0978 26.6811 17.4393 24.967 18.8554 23.4019L16.3959 21.3151ZM8.49592 32.1962C7.75063 33.4632 7.07988 34.8047 6.40912 36.2208C6.40912 36.2953 6.3346 36.2953 6.3346 36.3698V36.4443C6.11101 36.8915 5.88743 37.3387 5.73837 37.7859L8.64497 39.0528C9.53931 37.1151 10.5082 35.1774 11.5516 33.3887L8.49592 32.1962ZM3.05535 44.4934C3.05535 44.5679 3.05535 44.5679 3.05535 44.4934C3.05535 44.5679 3.05535 44.5679 3.05535 44.5679C2.98082 44.717 2.98082 44.7915 2.98082 44.7915C2.98082 44.7915 2.98082 44.7915 2.98082 44.866C2.3846 46.8038 1.8629 48.816 1.41573 50.9028L4.47139 51.6481C4.91856 49.5613 5.44026 47.4745 6.11101 45.4623L3.05535 44.4934ZM0.297804 57.6104C0.148747 58.7283 0.0742188 59.8462 0.0742188 61.0387C0.0742188 61.0387 0.0742188 61.0387 0.0742188 61.1132C0.0742188 61.1132 0.0742188 61.1132 0.0742188 61.1877C0.0742188 61.2623 0.0742188 61.4113 0.0742188 61.4858C0.0742188 61.4858 0.0742188 61.4858 0.0742188 61.5604C0.0742188 61.6349 0.0742188 61.6349 0.0742188 61.7094H3.27894V61.4858C3.27894 59.4736 3.35346 57.3868 3.57705 55.3745L0.297804 57.6104ZM3.57705 70.7274L0.372332 71.1C0.372332 71.1745 0.372332 71.3236 0.372332 71.3981C0.521389 72.6651 0.744973 74.0066 0.968558 75.2736C0.968558 75.3481 0.968558 75.3481 0.968558 75.4226C1.04309 76.0189 1.19214 76.5406 1.3412 77.1368L4.47139 76.466C4.09875 74.9755 3.80063 72.8141 3.57705 70.7274ZM6.26007 83.1736L3.20441 84.217C3.27894 84.366 3.35346 84.5896 3.35346 84.7387C3.87516 86.3783 4.54592 87.9434 5.21667 89.434C5.2912 89.583 5.2912 89.6575 5.36573 89.8066L8.27233 88.4651C7.67611 87.1981 6.93082 85.1858 6.26007 83.1736ZM11.5516 94.8L8.79403 96.4396C9.16667 97.1104 9.61384 97.7811 10.061 98.4519C10.061 98.5264 10.1355 98.5264 10.1355 98.6009C10.1355 98.6009 10.1355 98.6009 10.1355 98.6755C10.1355 98.6755 10.1355 98.6755 10.1355 98.75L10.2101 98.8245C10.2846 98.8991 10.2846 98.9736 10.3591 98.9736C10.3591 99.0481 10.4337 99.0481 10.4337 99.1226C10.5082 99.1972 10.5082 99.2717 10.5827 99.3462C10.6572 99.4208 10.7318 99.4953 10.7318 99.5698C11.0299 100.017 11.4025 100.464 11.7006 100.911L14.3091 99.0481C13.7874 98.4519 12.595 96.6632 11.5516 94.8ZM19.0789 105.085L16.694 107.246C16.9921 107.544 17.2157 107.842 17.5138 108.141C17.5138 108.141 17.5138 108.141 17.5138 108.215C18.7063 109.482 19.9733 110.675 21.2403 111.792L23.4016 109.408C22.0601 108.215 20.495 106.65 19.0789 105.085ZM28.6186 113.581L26.7554 116.19C28.4695 117.457 30.2582 118.575 32.1214 119.618C32.1959 119.618 32.1959 119.692 32.2704 119.692L33.8355 116.935C32.1214 115.966 30.3327 114.848 28.6186 113.581ZM39.7233 119.916L38.4563 122.823C38.8289 122.972 39.2016 123.121 39.5742 123.27C41.1393 123.866 42.7044 124.462 44.2695 124.984L45.2384 121.928C43.6733 121.481 41.661 120.736 39.7233 119.916ZM51.8714 123.792L51.2006 126.922C52.7657 127.22 54.3308 127.518 55.8959 127.667C56.5667 127.742 57.1629 127.816 57.8337 127.891L58.1318 124.686C56.045 124.462 53.9582 124.164 51.8714 123.792ZM70.9506 124.611C68.8638 124.835 66.7025 124.984 64.5412 124.984V128.189C66.7771 128.189 69.0129 128.04 71.2487 127.816L70.9506 124.611ZM83.3969 121.854C81.3846 122.525 79.2978 123.121 77.211 123.568L77.8818 126.698H77.9563H78.0308C78.1054 126.698 78.1054 126.698 78.1799 126.698C78.2544 126.698 78.3289 126.624 78.478 126.624C79.5959 126.325 80.6393 126.027 81.6827 125.655C81.7572 125.655 81.7572 125.655 81.8318 125.58L83.3969 121.854ZM95.0233 116.562C93.1601 117.68 91.2969 118.649 89.3591 119.543L90.7006 122.45C92.4148 121.705 94.0544 120.81 95.694 119.916C95.694 119.916 95.694 119.916 95.7686 119.916C95.7686 119.916 95.7686 119.916 95.8431 119.916C95.9176 119.916 95.9176 119.842 95.9921 119.842C95.9921 119.842 95.9921 119.842 96.0667 119.842C96.0667 119.842 96.1412 119.842 96.1412 119.767C96.1412 119.767 96.1412 119.767 96.2157 119.767C96.2157 119.767 96.2903 119.767 96.2903 119.692L95.0233 116.562ZM105.308 108.96C103.743 110.376 102.103 111.792 100.389 113.059L102.327 115.668C104.116 114.326 105.83 112.91 107.544 111.345L105.308 108.96ZM113.73 99.3462C112.463 101.06 111.196 102.775 109.78 104.34L112.165 106.426C113.357 105.01 114.55 103.594 115.668 102.104C115.668 102.029 115.742 102.029 115.742 101.955C115.742 101.955 115.742 101.955 115.742 101.88C115.742 101.88 115.742 101.806 115.817 101.806L113.73 99.3462ZM119.99 88.2415C119.17 90.1792 118.202 92.117 117.158 93.9802L119.916 95.5453C120.065 95.2472 120.214 95.0236 120.363 94.7255C121.183 93.1604 122.003 91.5953 122.673 89.9557L119.99 88.2415ZM123.791 76.0934C123.344 78.1802 122.822 80.267 122.226 82.2792L125.282 83.2481C125.505 82.4283 125.803 81.6085 126.027 80.7141C126.325 79.5962 126.549 78.4038 126.847 77.2858L123.791 76.0934ZM128.188 63.3491L124.984 63.4236C124.984 63.6472 124.984 63.9453 124.984 64.1689C124.984 66.0321 124.909 67.9698 124.76 69.833L127.965 70.1311C128.039 69.0877 128.114 68.1189 128.188 67.0755C128.188 67.0755 128.188 67.0755 128.188 67.0009C128.188 66.9264 128.188 66.8519 128.188 66.8519C128.188 66.7774 128.188 66.7774 128.188 66.7028C128.188 66.6283 128.188 66.6283 128.188 66.5538V66.4792V66.4047C128.188 66.4047 128.188 66.4047 128.188 66.3302C128.188 66.3302 128.188 66.3302 128.188 66.2557C128.188 66.2557 128.188 66.2557 128.188 66.1811C128.188 63.7217 128.188 63.4981 128.188 63.3491ZM126.623 50.0085L123.493 50.6792C123.94 52.766 124.313 54.8528 124.536 57.0141L127.741 56.6415V56.567C127.592 55.2255 127.369 53.884 127.145 52.5425C127.145 52.4679 127.145 52.4679 127.145 52.3934C127.145 52.3189 127.145 52.3189 127.145 52.2443C127.145 52.1698 127.145 52.1698 127.145 52.0953C126.698 50.2321 126.623 50.083 126.623 50.0085ZM122.301 37.2641L119.394 38.6057C120.288 40.5434 121.108 42.5557 121.779 44.5679L124.835 43.5245C124.313 41.8849 123.642 40.3198 122.971 38.7547V38.6802C122.971 38.6802 122.971 38.6802 122.971 38.6057C122.524 37.7113 122.45 37.4877 122.301 37.2641ZM115.444 25.7123L112.91 27.65C114.177 29.3641 115.37 31.1528 116.487 32.9415L119.245 31.3019C119.17 31.1528 119.021 31.0038 118.947 30.8547C118.947 30.7802 118.872 30.7802 118.872 30.7057C118.872 30.6311 118.798 30.6311 118.798 30.6311C118.798 30.6311 118.798 30.6311 118.798 30.5566C118.127 29.5132 117.456 28.4698 116.711 27.4264C116.711 27.4264 116.711 27.3519 116.636 27.3519C115.891 26.383 115.668 26.0104 115.444 25.7123ZM106.277 15.8745L104.19 18.2594C105.755 19.6755 107.32 21.166 108.736 22.7311L111.121 20.5698C109.631 18.9302 107.991 17.3651 106.277 15.8745ZM95.3214 8.12358L93.7563 10.9557C95.6195 11.9991 97.4082 13.117 99.1969 14.384L101.06 11.7755C99.3459 10.583 97.5572 9.46509 95.7686 8.4217C95.694 8.4217 95.694 8.34717 95.6195 8.34717C95.3959 8.12358 95.3959 8.12358 95.3214 8.12358C95.3959 8.12358 95.3959 8.12358 95.3214 8.12358C95.3959 8.12358 95.3959 8.12358 95.3214 8.12358C95.3959 8.12358 95.3959 8.12358 95.3214 8.12358ZM82.9497 2.83208L81.9808 5.88774C83.9931 6.48396 86.0054 7.22924 87.9431 8.12358L89.2101 5.14245C87.9431 4.62075 86.6761 4.09906 85.4091 3.65189H85.3346C85.3346 3.65189 85.2601 3.65189 85.2601 3.57736C84.1422 3.20472 83.5459 2.98113 82.9497 2.83208ZM69.7582 0.223585L69.4601 3.4283C71.5469 3.65189 73.7082 3.95 75.795 4.32264L76.3912 1.19245C75.1242 0.968868 73.8572 0.745283 72.5903 0.596226C72.5903 0.596226 72.5903 0.596226 72.5157 0.596226C72.5157 0.596226 72.5157 0.596226 72.4412 0.596226C71.1742 0.372642 70.5035 0.298113 69.7582 0.223585Z" fill="white"/>
<path d="M32.083 84.1388C33.4065 83.4049 34.6653 82.705 35.9249 82.0076C38.6142 80.5188 41.3083 79.0364 43.9895 77.533C44.2576 77.3832 44.4431 77.4059 44.687 77.5411C48.6107 79.7209 52.5385 81.895 56.4655 84.0708C56.5952 84.1428 56.7215 84.2222 56.856 84.2846C57.3477 84.513 57.8353 84.2425 57.8912 83.7046C57.9123 83.5045 57.9001 83.3004 57.9001 83.0979C57.9001 77.9008 57.8952 72.7037 57.905 67.5057C57.9066 66.7816 57.6271 66.2955 56.9832 65.9416C52.9654 63.7359 48.959 61.5083 44.9494 59.288C44.124 58.8312 43.3018 58.3686 42.4764 57.9126C41.7636 57.5197 41.2516 57.8219 41.2516 58.6384C41.25 63.053 41.2476 67.4668 41.2589 71.8815C41.2589 72.1812 41.1617 72.3262 40.9058 72.4671C37.0201 74.6056 33.14 76.7554 29.2592 78.9028C29.2017 78.9352 29.1418 78.9643 29.0373 79.0194C29.0251 78.8793 29.0081 78.7691 29.0081 78.659C29.0065 67.1169 29.0073 55.5749 29 44.0328C29 43.7695 29.0745 43.627 29.3078 43.4982C34.8913 40.4177 40.4708 37.3298 46.0494 34.2396C50.5791 31.7309 55.1055 29.2174 59.6336 26.7072C60.0426 26.4803 60.4541 26.2584 60.9264 26V26.456C60.9264 30.7087 60.9231 34.9605 60.9345 39.2131C60.9345 39.4886 60.834 39.6182 60.6104 39.7421C56.6211 41.9454 52.6366 44.1559 48.6488 46.3624C48.3701 46.5163 48.0939 46.667 48.0883 47.0364C48.0826 47.4147 48.3345 47.6018 48.6334 47.767C53.4344 50.4215 58.2363 53.0751 63.0284 55.7458C63.6821 56.1103 64.2677 56.1346 64.9287 55.7668C69.7467 53.0832 74.5737 50.4158 79.399 47.7468C79.6704 47.5961 79.9077 47.4349 79.9053 47.0817C79.9028 46.7197 79.672 46.5431 79.3828 46.3827C75.3829 44.1737 71.387 41.9575 67.3887 39.7461C67.1903 39.636 67.0591 39.5323 67.0599 39.2609C67.0696 34.9411 67.0664 30.6212 67.0672 26.3013C67.0672 26.2244 67.0793 26.1474 67.0898 26.0105C67.9136 26.4658 68.7002 26.8991 69.4867 27.3349C75.8073 30.835 82.128 34.3352 88.4486 37.8353C91.8564 39.7226 95.2634 41.6116 98.6768 43.4901C98.9263 43.627 99 43.7833 99 44.0571C98.9935 55.5854 98.9943 67.1145 98.9943 78.6428C98.9943 78.7594 98.9943 78.8761 98.9943 79.0567C98.0839 78.552 97.2277 78.0774 96.3707 77.6035C93.3152 75.913 90.2631 74.2184 87.2012 72.5408C86.8666 72.3578 86.737 72.1658 86.7386 71.7689C86.7565 67.4085 86.7516 63.0482 86.7451 58.6878C86.7451 58.4788 86.7216 58.2439 86.6236 58.0681C86.4195 57.6987 86.0145 57.6526 85.5609 57.9037C83.7796 58.8903 82 59.8793 80.2187 60.8659C77.1641 62.5581 74.1128 64.2583 71.0501 65.9351C70.4109 66.285 70.1104 66.7605 70.1121 67.4895C70.121 72.8349 70.1153 78.1811 70.1161 83.5264C70.1161 84.2903 70.6353 84.5884 71.3093 84.2149C75.3076 82.0003 79.3058 79.7857 83.3017 77.5687C83.5188 77.4488 83.6913 77.3556 83.9635 77.5071C87.8597 79.682 91.764 81.8416 95.6667 84.0051C95.7243 84.0367 95.7777 84.0764 95.8968 84.1526C95.4059 84.428 94.9555 84.6831 94.5027 84.9342C85.8816 89.7102 77.2597 94.4861 68.6386 99.2612C67.2 100.058 65.7557 100.846 64.3252 101.657C64.0774 101.797 63.9 101.783 63.6651 101.652C58.6218 98.8497 53.5746 96.0543 48.5273 93.2581C43.2095 90.3112 37.8917 87.3651 32.5738 84.4183C32.4345 84.3413 32.2968 84.2595 32.0862 84.138L32.083 84.1388Z" fill="white"/>
<defs>
<linearGradient id="paint0_linear_44_469" x1="0" y1="0" x2="150.5" y2="7.54511" gradientUnits="userSpaceOnUse">
<stop stop-color="#2B8F27"/>
<stop offset="1" stop-color="#2500FF"/>
</linearGradient>
</defs>
</svg>
