<svg width="83" height="76" viewBox="0 0 83 76" fill="none" xmlns="http://www.w3.org/2000/svg">
<path d="M48.4824 9.71655C51.5637 6.82233 56.3812 6.11347 60.1508 8.00491L71.8088 13.8348H83V6.91915H73.4412L63.246 1.81883C56.938 -1.33819 48.8835 -0.165976 43.7375 4.68192L41.6003 6.69439L39.1795 4.48828C36.0013 1.59407 31.8858 0 27.4557 0C24.7893 0 22.1299 0.629328 19.754 1.81537L9.55538 6.91569H0V13.8314H11.1912L22.8527 8.00146C26.3871 6.22412 31.3533 6.70476 34.5211 9.59898L36.5511 11.4489L27.4004 20.0659C23.6896 23.7727 23.0982 29.6337 26.024 33.6829C27.8223 36.1829 30.8622 38.0363 34.4761 38.0363C37.2186 38.0363 39.8504 36.9575 41.7525 35.0522L45.2315 31.7223L67.1678 48.1713L41.5 67.3623L11.5266 44.952H0V51.8677H9.22338L41.5 76L73.7766 51.8677H83V44.952H74.3991L50.2945 26.8778L56.1322 21.29L51.3493 16.2934L36.9177 30.1075C36.1984 30.8267 35.2197 31.1967 34.1925 31.1102C33.162 31.0273 32.2559 30.5051 31.6368 29.6407C30.6892 28.3267 30.9797 26.2693 32.2178 25.0279L48.4824 9.71655Z" fill="url(#paint0_linear_78_284)"/>
<defs>
<linearGradient id="paint0_linear_78_284" x1="0" y1="0" x2="97.399" y2="5.33272" gradientUnits="userSpaceOnUse">
<stop stop-color="#2B8F27"/>
<stop offset="1" stop-color="#2500FF"/>
</linearGradient>
</defs>
</svg>
