<svg width="75" height="76" viewBox="0 0 75 76" fill="none" xmlns="http://www.w3.org/2000/svg">
<path d="M37.5 0C30.0832 0 22.833 2.22866 16.6661 6.40415C10.4993 10.5796 5.69282 16.5144 2.85453 23.458C0.0162482 30.4016 -0.726377 38.0421 0.720569 45.4134C2.16751 52.7847 5.73904 59.5557 10.9835 64.87C16.228 70.1844 22.9098 73.8036 30.1841 75.2698C37.4584 76.7361 44.9984 75.9835 51.8506 73.1074C58.7029 70.2313 64.5596 65.3607 68.6801 59.1117C72.8007 52.8626 75 45.5157 75 38C74.9893 27.9251 71.0349 18.266 64.0046 11.142C56.9743 4.01796 47.4423 0.0108968 37.5 0ZM40.625 69.5052V60.1667H34.375V69.5052C27.2068 68.7656 20.51 65.5423 15.415 60.3794C10.3201 55.2166 7.13926 48.4305 6.40939 41.1667H15.625V34.8333H6.40939C7.13926 27.5695 10.3201 20.7834 15.415 15.6206C20.51 10.4577 27.2068 7.23444 34.375 6.49483V15.8333H40.625V6.49483C47.7932 7.23444 54.4901 10.4577 59.585 15.6206C64.6799 20.7834 67.8608 27.5695 68.5906 34.8333H59.375V41.1667H68.5906C67.8608 48.4305 64.6799 55.2166 59.585 60.3794C54.4901 65.5423 47.7932 68.7656 40.625 69.5052ZM40.625 34.8333H46.875V41.1667H40.625V47.5H34.375V41.1667H28.125V34.8333H34.375V28.5H40.625V34.8333Z" fill="url(#paint0_linear_78_290)"/>
<defs>
<linearGradient id="paint0_linear_78_290" x1="0" y1="0" x2="88.0594" y2="4.35665" gradientUnits="userSpaceOnUse">
<stop stop-color="#2B8F27"/>
<stop offset="1" stop-color="#2500FF"/>
</linearGradient>
</defs>
</svg>
