<svg width="76" height="76" viewBox="0 0 76 76" fill="none" xmlns="http://www.w3.org/2000/svg">
<path d="M25.3312 44.4723H18.996V38.1191C18.996 32.865 23.2596 28.5893 28.4988 28.5893H47.5044C52.7435 28.5893 57.0071 32.865 57.0071 38.1191V44.4723H50.6719V38.1191C50.6719 36.3688 49.2529 34.9425 47.5044 34.9425H28.4988C26.7535 34.9425 25.3312 36.3688 25.3312 38.1191V44.4723ZM25.3312 12.7064C25.3312 5.69881 31.0139 0 38.0016 0C44.9893 0 50.6719 5.69881 50.6719 12.7064C50.6719 19.7139 44.9893 25.4127 38.0016 25.4127C31.0139 25.4127 25.3312 19.7139 25.3312 12.7064ZM31.6664 12.7064C31.6664 16.2102 34.5077 19.0596 38.0016 19.0596C41.4954 19.0596 44.3368 16.2102 44.3368 12.7064C44.3368 9.20259 41.4954 6.35319 38.0016 6.35319C34.5077 6.35319 31.6664 9.20259 31.6664 12.7064ZM39.0501 50.8255H36.9975L34.5141 60.3553H25.3312V62.3089L32.3379 66.2193L29.5853 74.8501L31.1057 76L38.0206 70.6411L44.9038 75.9778L46.5034 74.8691L43.7032 66.3368L50.6624 62.293V60.3521H41.5303L39.0469 50.8223L39.0501 50.8255ZM25.3312 52.7664V50.8255H16.1991L13.7157 41.2957H11.6631L9.17968 50.8255H0V52.7791L7.00671 56.6895L4.25407 65.3203L5.77452 66.4702L12.6894 61.1113L19.5725 66.448L21.169 65.3394L18.3689 56.807L25.3281 52.7632L25.3312 52.7664ZM76 50.8255H66.8678L64.3844 41.2957H62.3318L59.8485 50.8255H50.6656V52.7791L57.6723 56.6895L54.9197 65.3203L56.4401 66.4702L63.355 61.1113L70.2382 66.448L71.8378 65.3394L69.0376 56.807L75.9968 52.7632V50.8223L76 50.8255Z" fill="url(#paint0_linear_201_316)"/>
<defs>
<linearGradient id="paint0_linear_201_316" x1="0" y1="0" x2="89.2277" y2="4.47331" gradientUnits="userSpaceOnUse">
<stop stop-color="#2B8F27"/>
<stop offset="1" stop-color="#2500FF"/>
</linearGradient>
</defs>
</svg>
