<svg width="76" height="76" viewBox="0 0 76 76" fill="none" xmlns="http://www.w3.org/2000/svg">
<path d="M76 22.1667V15.8333H69.6667C69.6667 10.5957 65.4043 6.33333 60.1667 6.33333V0H53.8333V6.33333H47.5V0H41.1667V6.33333H34.8333V0H28.5V6.33333H22.1667V0H15.8333V6.33333C10.5957 6.33333 6.33333 10.5957 6.33333 15.8333H0V22.1667H6.33333V28.5H0V34.8333H6.33333V41.1667H0V47.5H6.33333V53.8333H0V60.1667H6.33333V69.6667H15.8333V76H22.1667V69.6667H28.5V76H34.8333V69.6667H41.1667V76H47.5V69.6667H53.8333V76H60.1667V69.6667H69.6667V60.1667H76V53.8333H69.6667V47.5H76V41.1667H69.6667V34.8333H76V28.5H69.6667V22.1667H76ZM63.3333 63.3333H12.6667V15.8333C12.6667 14.0853 14.0885 12.6667 15.8333 12.6667H60.1667C61.9115 12.6667 63.3333 14.0853 63.3333 15.8333V63.3333Z" fill="url(#paint0_linear_201_329)"/>
<path d="M38 22C34.8355 22 31.7421 22.9384 29.1109 24.6965C26.4797 26.4546 24.4289 28.9534 23.2179 31.8771C22.0069 34.8007 21.6901 38.0177 22.3074 41.1214C22.9248 44.2251 24.4487 47.0761 26.6863 49.3137C28.9239 51.5513 31.7749 53.0752 34.8786 53.6926C37.9823 54.3099 41.1993 53.9931 44.1229 52.7821C47.0466 51.5711 49.5454 49.5203 51.3035 46.8891C53.0616 44.2579 54 41.1645 54 38C53.9954 33.7579 52.3082 29.6909 49.3086 26.6914C46.3091 23.6918 42.2421 22.0046 38 22ZM49.5293 31.3333H45.2347C44.2733 29.1053 43.0074 27.0214 41.4733 25.1413C44.8686 26.0652 47.7631 28.29 49.5293 31.3333ZM44 38C43.9891 39.3575 43.7751 40.7058 43.3653 42H32.6347C32.2249 40.7058 32.011 39.3575 32 38C32.011 36.6425 32.2249 35.2942 32.6347 34H43.3653C43.7751 35.2942 43.9891 36.6425 44 38ZM33.704 44.6667H42.296C41.1643 46.901 39.7175 48.9611 38 50.784C36.2818 48.9616 34.835 46.9014 33.704 44.6667ZM33.704 31.3333C34.8357 29.099 36.2825 27.0389 38 25.216C39.7182 27.0384 41.165 29.0986 42.296 31.3333H33.704ZM34.5333 25.1413C32.9969 27.021 31.7288 29.1049 30.7653 31.3333H26.4707C28.2385 28.2886 31.1355 26.0637 34.5333 25.1413ZM25.2813 34H29.8667C29.521 35.3055 29.3418 36.6495 29.3333 38C29.3418 39.3505 29.521 40.6945 29.8667 42H25.2813C24.4618 39.3963 24.4618 36.6037 25.2813 34ZM26.4707 44.6667H30.7653C31.7288 46.8951 32.9969 48.9789 34.5333 50.8587C31.1355 49.9363 28.2385 47.7114 26.4707 44.6667ZM41.4733 50.8587C43.0074 48.9785 44.2733 46.8947 45.2347 44.6667H49.5293C47.7631 47.71 44.8686 49.9348 41.4733 50.8587ZM50.7187 42H46.1333C46.479 40.6945 46.6582 39.3505 46.6667 38C46.6582 36.6495 46.479 35.3055 46.1333 34H50.716C51.5355 36.6037 51.5355 39.3963 50.716 42H50.7187Z" fill="url(#paint1_linear_201_329)"/>
<defs>
<linearGradient id="paint0_linear_201_329" x1="0" y1="0" x2="89.2277" y2="4.47331" gradientUnits="userSpaceOnUse">
<stop stop-color="#2B8F27"/>
<stop offset="1" stop-color="#2500FF"/>
</linearGradient>
<linearGradient id="paint1_linear_201_329" x1="22" y1="22" x2="59.5696" y2="23.8835" gradientUnits="userSpaceOnUse">
<stop stop-color="#2B8F27"/>
<stop offset="1" stop-color="#2500FF"/>
</linearGradient>
</defs>
</svg>
