<svg width="69" height="76" viewBox="0 0 69 76" fill="none" xmlns="http://www.w3.org/2000/svg">
<path d="M42.4695 17.328C46.2206 14.098 50.1818 9.25933 50.1818 3.16667V0H18.8182V3.16667C18.8182 9.25933 22.7794 14.0948 26.5305 17.328C11.7739 22.6385 0 41.5593 0 57C0 67.4785 8.43995 76 18.8182 76H50.1818C60.56 76 69 67.4785 69 57C69 41.5593 57.2261 22.6385 42.4695 17.328ZM25.7401 6.33333H43.2505C41.6164 10.3107 37.3227 13.6483 34.522 15.3647C32.1634 13.908 27.462 10.5767 25.7433 6.33333H25.7401ZM50.1818 69.6667H18.8182C11.8994 69.6667 6.27273 63.9857 6.27273 57C6.27273 40.6568 20.6686 22.2205 34.4937 22.2205C48.3188 22.2205 62.7273 40.66 62.7273 57C62.7273 63.9857 57.1006 69.6667 50.1818 69.6667ZM28.2273 41.1667C28.2273 42.3637 29.0772 43.377 30.2471 43.5733L39.7879 45.1788C43.9938 45.885 47.0486 49.5267 47.0486 53.8333C47.0486 59.071 42.827 63.3333 37.6395 63.3333V66.5H31.3668V63.3333C26.1792 63.3333 21.9577 59.071 21.9577 53.8333H28.2304C28.2304 55.5782 29.6386 57 31.3668 57H37.6395C39.3676 57 40.7759 55.5782 40.7759 53.8333C40.7759 52.6363 39.9259 51.623 38.756 51.4267L29.2152 49.8212C25.0094 49.115 21.9545 45.4733 21.9545 41.1667C21.9545 35.929 26.1761 31.6667 31.3636 31.6667V28.5H37.6364V31.6667C42.8239 31.6667 47.0455 35.929 47.0455 41.1667H40.7727C40.7727 39.4218 39.3645 38 37.6364 38H31.3636C29.6355 38 28.2273 39.4218 28.2273 41.1667Z" fill="url(#paint0_linear_78_286)"/>
<defs>
<linearGradient id="paint0_linear_78_286" x1="0" y1="0" x2="81.0451" y2="3.68886" gradientUnits="userSpaceOnUse">
<stop stop-color="#2B8F27"/>
<stop offset="1" stop-color="#2500FF"/>
</linearGradient>
</defs>
</svg>
