<svg width="76" height="76" viewBox="0 0 76 76" fill="none" xmlns="http://www.w3.org/2000/svg">
<path d="M56.2902 67.5577C54.5041 72.6085 49.6875 76 44.3167 76H12.681C8.97589 76 5.46397 74.385 3.04141 71.573C0.656854 68.8022 -0.400838 65.1605 0.137508 61.5727C1.42004 53.029 6.10682 45.1123 14.0743 38C6.10682 30.8877 1.42004 22.971 0.137508 14.4273C-0.400838 10.8427 0.656854 7.19783 3.04141 4.43017C5.46397 1.615 8.97589 0 12.681 0H44.3167C49.6875 0 54.5041 3.3915 56.2902 8.44233C56.876 10.0922 56.0115 11.9003 54.3648 12.483C52.7149 13.0752 50.9067 12.2043 50.3241 10.5577C49.4279 8.03067 47.0148 6.33333 44.3199 6.33333H12.681C10.8221 6.33333 9.05506 7.14717 7.84219 8.5595C6.64516 9.94967 6.13532 11.6977 6.40449 13.4837C7.59202 21.3972 12.491 28.8103 20.9652 35.5173C21.7252 36.1158 22.1685 37.0342 22.1685 38C22.1685 38.9658 21.7252 39.8842 20.9652 40.4827C12.491 47.1897 7.59202 54.5997 6.40449 62.5132C6.13532 64.2992 6.64516 66.0503 7.84219 67.4405C9.05822 68.8528 10.8221 69.6667 12.681 69.6667H44.3167C47.0148 69.6667 49.4247 67.9693 50.3209 65.4455C50.9067 63.7957 52.7213 62.9248 54.3616 63.5202C56.0115 64.1028 56.8729 65.9142 56.287 67.5608L56.2902 67.5577ZM30.4812 44.156L32.0899 45.4385C35.8014 48.3898 40.7257 53.1367 43.0912 58.976C43.4871 59.9545 43.3699 61.0628 42.7809 61.9368C42.1919 62.8077 41.2102 63.3333 40.1556 63.3333H16.8421C15.7907 63.3333 14.8059 62.8077 14.2168 61.9368C13.6278 61.066 13.5107 59.9577 13.9033 58.9823C16.2657 53.1145 21.1868 48.3867 24.8983 45.4512L26.545 44.1497C27.6977 43.2345 29.3285 43.2377 30.4812 44.156ZM28.4957 50.6793C26.4975 52.2912 24.1541 54.4603 22.273 57H34.712C32.831 54.473 30.4939 52.3007 28.4957 50.6793ZM76 38.0032C76 48.4817 67.4783 57.0032 56.9995 57.0032C46.5208 57.0032 37.9991 48.4817 37.9991 38.0032C37.9991 27.5247 46.5208 19.0032 56.9995 19.0032C67.4783 19.0032 76 27.5247 76 38.0032ZM69.6665 38.0032C69.6665 31.0175 63.9854 25.3365 56.9995 25.3365C50.0137 25.3365 44.3326 31.0175 44.3326 38.0032C44.3326 44.9888 50.0137 50.6698 56.9995 50.6698C63.9854 50.6698 69.6665 44.9888 69.6665 38.0032ZM60.1663 36.6922V31.6698C60.1663 29.9218 58.7508 28.5032 56.9995 28.5032C55.2483 28.5032 53.8328 29.9218 53.8328 31.6698V38.0032C53.8328 38.8423 54.1653 39.6498 54.7607 40.242L57.9274 43.4087C58.5449 44.0262 59.3556 44.3365 60.1663 44.3365C60.977 44.3365 61.7877 44.0262 62.4052 43.4087C63.6434 42.1705 63.6434 40.1692 62.4052 38.931L60.1663 36.6922Z" fill="url(#paint0_linear_201_312)"/>
<defs>
<linearGradient id="paint0_linear_201_312" x1="0" y1="0" x2="89.2277" y2="4.47331" gradientUnits="userSpaceOnUse">
<stop stop-color="#2B8F27"/>
<stop offset="1" stop-color="#2500FF"/>
</linearGradient>
</defs>
</svg>
