<svg width="460" height="189" viewBox="0 0 460 189" fill="none" xmlns="http://www.w3.org/2000/svg">
<path d="M286.958 79.928C286.958 69.3762 286.985 58.8158 286.941 48.264C286.932 45.0594 286.099 42.0371 284.466 39.2407C282.165 35.2979 278.595 33.2917 274.209 32.8314C271.422 32.5448 268.573 32.4406 265.82 33.4741C260.366 35.5323 257.057 39.4752 255.546 45.0159C254.904 47.3521 254.799 49.7664 254.791 52.1634C254.747 64.4608 254.756 76.7582 254.747 89.0556C254.747 91.4612 254.747 91.3743 252.394 91.5828C248.39 91.9388 244.387 91.7044 240.383 91.7738C239.818 91.7825 239.254 91.713 238.689 91.6696C237.595 91.5915 237.126 91.0183 237.144 89.9153C237.178 87.5618 237.152 85.1996 237.152 82.8461C237.152 77.3835 237.17 71.9121 237.126 66.4495C237.1 63.3404 236.857 60.24 236.926 57.131C237.178 45.2591 237.152 33.3959 237.187 21.5241C237.187 18.8232 237.474 18.5105 240.227 18.6061C244.56 18.7537 248.885 19.0055 253.219 18.6669C254.617 18.554 254.704 19.6656 254.617 20.6035C254.469 22.1146 254.495 23.6171 254.478 25.1195C254.478 25.4756 254.374 25.9532 254.791 26.1269C255.216 26.3006 255.459 25.8838 255.729 25.6406C258.239 23.3392 260.913 21.2983 264.022 19.8219C269.563 17.1818 275.347 16.9473 281.287 17.781C285.161 18.3282 288.782 19.5266 292.161 21.5328C295.834 23.7213 298.5 26.787 300.593 30.4605C303.555 35.6539 304.597 41.3684 304.718 47.1697C304.944 58.0949 304.918 69.0376 304.718 79.9628C304.597 86.3199 304.553 92.677 304.597 99.0342C304.623 103.316 304.91 107.589 304.649 111.879C304.536 113.772 304.927 114.085 306.829 114.085C310.416 114.093 313.994 114.137 317.58 114.085C319.647 114.085 319.309 113.781 319.309 115.804C319.248 119.903 319.239 124.002 319.291 128.102C319.291 130.134 319.552 129.951 317.45 129.951C313.82 129.925 310.19 129.951 306.56 129.96C304.771 129.96 304.545 130.186 304.545 132.018C304.536 139.93 304.415 147.85 304.597 155.762C304.658 158.558 304.58 161.407 305.24 164.195C306.047 167.608 308.105 169.388 311.571 169.84C313.724 170.118 315.904 169.918 318.049 170.309C318.987 170.482 319.326 170.882 319.317 171.802C319.283 176.275 319.283 180.756 319.283 185.229C319.283 186.08 319.092 186.749 318.067 186.757C311.631 186.818 305.222 186.575 299.169 184.074C293.95 181.92 290.736 177.873 289.164 172.515C287.949 168.381 287.462 164.143 287.236 159.835C286.759 150.56 287.08 141.276 286.967 132.001C286.941 130.064 286.846 129.951 284.848 129.943C282.304 129.934 279.759 129.943 277.214 129.943C274.67 129.943 274.817 130.255 274.817 127.607C274.817 123.794 274.817 119.973 274.835 116.16C274.835 113.772 274.453 114.102 276.936 114.102C279.577 114.093 282.217 114.119 284.857 114.102C286.811 114.102 286.958 113.946 286.958 112.009C286.958 101.31 286.958 90.6188 286.958 79.9194H286.985L286.958 79.928Z" fill="#2500FF"/>
<path d="M20.2991 121.363C21.845 120.016 23.2172 118.766 24.7022 117.619C28.9316 114.354 33.7777 112.912 39.0318 112.704C44.2252 112.496 49.297 113.086 53.9954 115.535C57.5648 117.394 60.6044 119.86 62.845 123.256C63.8264 124.758 63.8785 124.758 64.9988 123.256C68.3163 118.792 72.702 115.691 77.9562 114.12C86.5279 111.558 95.0475 112.044 103.124 116.065C110.237 119.608 114.075 125.766 115.908 133.304C116.75 136.752 117.028 140.26 117.028 143.804C117.028 157.369 117.028 170.943 117.037 184.508C117.037 186.593 117.028 186.584 114.901 186.601C110.376 186.627 105.851 186.662 101.326 186.705C99.659 186.723 99.4159 186.506 99.4159 184.734C99.3985 171.212 99.3898 157.69 99.3638 144.168C99.3638 141.606 98.9469 139.105 98.0785 136.691C96.1418 131.272 92.0861 128.467 86.554 127.815C82.5851 127.346 78.8073 127.998 75.3595 130.316C72.0594 132.54 70.2964 135.675 69.289 139.357C68.7505 141.32 68.5942 143.335 68.5942 145.375C68.6116 158.428 68.6116 171.473 68.6116 184.526C68.6116 186.601 68.5334 186.653 66.4665 186.636C62.0373 186.593 57.6082 186.558 53.1791 186.749C51.364 186.827 51.2684 186.671 51.2684 184.838C51.2598 171.881 51.3205 158.923 51.2076 145.966C51.1816 142.701 51.0861 139.374 49.8355 136.248C47.8988 131.385 44.2947 128.588 39.1621 127.893C33.1697 127.086 27.9677 128.632 23.9814 133.469C22.1403 135.71 21.3587 138.341 20.9244 141.103C20.4815 143.899 20.2991 146.704 20.3078 149.544C20.3426 161.277 20.3078 173.01 20.3078 184.743C20.3078 186.671 20.1602 186.853 18.1975 186.758C13.7249 186.523 9.24365 186.567 4.77108 186.688C3.35549 186.732 3.19916 185.976 3.19916 184.83C3.21653 172.202 3.27733 159.575 3.16443 146.947C3.0689 136.917 2.99073 126.886 3.01679 116.847C3.01679 114.163 3.06021 114.128 5.65691 114.128C9.9471 114.128 14.2373 114.163 18.5275 114.12C19.8475 114.102 20.412 114.545 20.3426 115.926C20.2557 117.732 20.3165 119.547 20.3165 121.363H20.2991Z" fill="black"/>
<path d="M67.6153 40.5439C74.8756 40.5439 82.136 40.5787 89.3963 40.5179C90.8032 40.5092 91.2895 40.926 91.2982 42.359C91.2982 48.5859 91.1593 54.7954 89.3181 60.8225C84.0032 78.2612 72.5047 89.0127 54.4321 92.0002C40.6496 94.2842 27.8485 91.2707 16.8451 82.4732C7.03153 74.631 1.70787 64.1487 0.335702 51.6949C-0.480651 44.2957 0.144641 37.0006 2.73265 29.9921C6.09359 20.8733 11.5649 13.3351 19.7545 7.86376C25.9379 3.71252 32.7206 1.08108 40.0851 0.325523C49.4124 -0.629783 58.5052 0.447107 67.129 4.49413C75.2491 8.30667 81.7017 13.943 86.4088 21.5767C87.4944 23.331 87.477 23.331 85.7488 24.3645C81.7104 26.7875 77.6634 29.1931 73.6424 31.6509C72.6177 32.2762 72.0532 32.4759 71.2802 31.1211C67.8064 25.0158 62.9256 20.3175 56.1082 18.294C44.879 14.9504 34.6572 16.861 26.0334 25.1895C20.0497 30.9648 17.1751 38.1557 17.2099 46.3626C17.2707 61.3262 27.3101 73.198 42.3518 75.5602C47.9186 76.4374 53.416 75.8816 58.5312 73.5194C65.34 70.3842 69.8299 65.0519 72.1313 57.9044C72.3484 57.227 72.3571 56.8883 71.4365 56.897C63.0038 56.9665 54.5797 57.0012 46.147 57.036C44.0366 57.036 43.9758 56.9839 43.9671 54.9343C43.9671 50.8352 43.9585 46.736 43.9671 42.6369C43.9671 40.5787 43.9845 40.5613 45.9907 40.5613C53.1989 40.5613 60.4158 40.5613 67.624 40.5613L67.6153 40.5439Z" fill="black"/>
<path d="M371.8 26.57C371.8 24.1991 371.8 22.1408 371.8 20.0739C371.8 14.0468 371.835 8.01099 371.774 1.98388C371.757 0.594344 372.121 0.0558993 373.589 0.0819531C378.253 0.160114 382.925 0.142745 387.589 0.0819531C388.822 0.0645839 389.23 0.47276 389.23 1.70597C389.195 31.1034 389.187 60.5007 389.221 89.9068C389.221 91.3919 388.466 91.7132 387.328 91.7219C383.698 91.7479 380.068 91.7479 376.438 91.6785C375.63 91.6611 374.84 91.7219 374.049 91.7653C372.504 91.8435 372.104 91.47 372.095 89.9328C372.078 87.6835 372.095 85.4342 372.095 82.8983C370.819 84.0447 369.785 85.0347 368.691 85.9553C363.836 90.011 358.209 92.3559 351.93 92.6859C336.897 93.4762 325.529 87.3014 317.929 74.2571C314.933 69.1159 313.761 63.5403 313.466 57.6609C313.162 51.4253 313.674 45.3287 316.097 39.5361C319.475 31.4681 324.964 25.2499 332.841 21.3071C338.191 18.6236 343.914 17.2514 349.889 17.4338C357.818 17.6683 364.957 20.1173 370.775 25.7536C371.01 25.9794 371.279 26.1531 371.809 26.57H371.8ZM372.686 54.9686C372.834 52.5109 372.382 50.0532 371.583 47.5954C367.519 35.1156 353.536 29.8788 342.255 35.3675C329.879 41.3859 327.552 55.7242 332.876 65.7028C338.008 75.3253 348.916 79.4245 358.791 75.8812C367.041 72.9197 373.198 63.9833 372.695 54.9773L372.686 54.9686Z" fill="black"/>
<path d="M208.026 26.6838C208.026 24.365 208.07 22.3501 208.009 20.344C207.974 19.1716 208.426 18.7808 209.589 18.7981C214.253 18.8416 218.917 18.8502 223.589 18.7981C224.892 18.7894 225.404 19.1716 225.404 20.5698C225.361 43.6969 225.361 66.824 225.378 89.9424C225.378 91.0888 225.013 91.4969 223.858 91.5664C219.29 91.853 214.722 91.7488 210.154 91.7835C208.33 91.7922 208.052 91.5056 208.044 89.6297C208.035 87.8841 208.044 86.1472 208.026 84.4016C208.026 84.0542 208.2 83.5592 207.748 83.4029C207.401 83.2813 207.192 83.6721 206.967 83.9066C202.425 88.7266 196.754 91.4275 190.301 92.4349C180.105 94.0155 170.926 91.358 162.936 84.9661C154.477 78.2008 150.3 69.1254 149.466 58.4347C148.771 49.5329 150.534 41.1697 155.389 33.6141C161.702 23.7918 170.891 18.7026 182.441 17.6344C190.57 16.8875 197.935 18.8502 204.5 23.7049C205.629 24.5387 206.663 25.5113 208.044 26.6751L208.026 26.6838ZM166.462 54.9087C166.575 63.7149 170.187 70.5063 178.073 74.753C185.368 78.6872 195.59 77.4366 201.339 72.0434C208.2 65.6081 210.458 57.7659 208.052 48.7774C205.282 38.408 195.737 31.7035 184.083 33.5446C174.443 35.0644 166.192 43.3756 166.453 54.9087H166.462Z" fill="black"/>
<path d="M182.297 122.197C181.993 119.826 182.088 117.846 182.028 115.874C181.984 114.494 182.618 114.103 183.921 114.12C188.402 114.181 192.875 114.146 197.356 114.155C199.275 114.155 199.353 114.233 199.353 116.135C199.353 137.056 199.353 157.969 199.353 178.89C199.353 180.965 199.31 183.041 199.371 185.108C199.397 186.202 198.997 186.61 197.894 186.602C193.083 186.567 188.281 186.576 183.469 186.602C182.488 186.602 182.158 186.246 182.184 185.264C182.245 182.928 182.201 180.592 182.201 178.047C179.553 180.644 176.965 182.92 173.821 184.526C164.91 189.068 155.791 189.146 146.586 185.725C138.101 182.572 131.822 176.806 127.653 168.781C125.1 163.874 123.754 158.646 123.389 153.105C122.894 145.541 124.136 138.315 127.74 131.68C134.462 119.331 145.057 113.052 159.1 112.704C168.028 112.487 175.627 115.753 182.297 122.197ZM161.827 172.081C173.734 172.646 183.139 161.833 183.096 150.031C183.052 138.046 173.456 128.276 161.567 128.398C150.303 128.51 139.899 137.577 140.411 151.308C140.837 162.858 150.416 172.715 161.827 172.09V172.081Z" fill="black"/>
<path d="M371.61 156.623C362.7 156.623 353.789 156.623 344.888 156.623C344.367 156.623 343.846 156.615 343.333 156.684C342.699 156.771 342.499 157.092 342.708 157.779C345.313 166.255 352.061 171.7 360.911 172.664C366.087 173.22 370.95 172.56 375.449 169.815C378.662 167.853 381.129 165.204 382.952 161.921C383.951 160.123 383.942 160.132 385.697 161.139C389.04 163.067 392.393 164.987 395.753 166.889C398.176 168.261 398.176 168.252 396.77 170.597C392.974 176.919 387.703 181.67 381.024 184.727C374.19 187.853 366.964 188.557 359.487 187.845C352.435 187.176 346.104 184.848 340.415 180.723C333.876 175.981 329.742 169.511 327.406 161.878C324.132 151.17 325.426 140.922 330.932 131.221C333.98 125.837 338.175 121.512 343.524 118.324C354.545 111.75 366.104 110.873 378.002 115.372C387.729 119.045 394.39 125.958 398.255 135.624C399.827 139.558 400.556 143.605 400.808 147.809C400.947 150.11 400.921 152.411 401.042 154.713C401.121 156.163 400.591 156.623 399.201 156.615C393.122 156.58 387.043 156.615 380.964 156.615C377.854 156.615 374.745 156.615 371.628 156.615V156.632L371.61 156.623ZM363.221 142.068V142.085C369.352 142.085 375.475 142.085 381.606 142.085C383.126 142.085 383.222 141.955 382.761 140.566C381.189 135.806 378.184 132.22 373.642 130.118C363.49 125.411 349.213 128.042 343.932 140.574C343.325 142.025 343.281 142.068 344.836 142.068C350.967 142.077 357.09 142.068 363.221 142.068Z" fill="black"/>
<path d="M238.31 112.617C244.494 112.583 249.8 113.225 254.794 115.483C260.291 117.976 264.677 121.797 268.151 126.704C268.75 127.546 268.585 128.015 267.699 128.449C263.478 130.542 259.275 132.653 255.063 134.78C254.307 135.163 253.804 135.058 253.291 134.32C249.097 128.337 243.208 126.356 236.156 127.112C233.907 127.355 231.797 127.946 230.086 129.492C226.708 132.549 226.421 137.429 231.858 139.288C236.46 140.86 241.228 141.78 245.944 142.901C251.823 144.299 257.694 145.749 262.566 149.631C266.77 152.975 269.288 157.265 269.445 162.684C269.731 172.706 264.729 179.619 256.261 184.344C249.461 188.139 242.071 188.399 234.55 187.8C230.251 187.453 226.056 186.688 222.113 184.856C215.887 181.964 211.153 177.474 207.836 171.464C207.324 170.535 207.506 169.988 208.427 169.562C210.007 168.833 211.596 168.112 213.16 167.348C215.913 166.01 218.648 164.647 221.384 163.275C222.478 162.728 223.234 162.641 223.989 163.987C228.705 172.428 238.831 174.808 246.665 172.124C249.114 171.282 250.755 169.441 251.832 167.165C252.996 164.69 252.145 162.319 249.757 160.886C246.917 159.193 243.755 158.446 240.568 157.769C235.549 156.709 230.459 155.919 225.596 154.225C219.89 152.237 214.792 149.301 212.144 143.552C208.644 135.97 209.833 128.805 214.914 122.361C219.074 117.081 224.893 114.493 231.354 113.208C233.898 112.704 236.486 112.522 238.328 112.609L238.31 112.617Z" fill="black"/>
<path d="M411.36 150.465C411.36 139.062 411.36 127.659 411.36 116.256C411.36 114.337 411.36 114.346 413.332 114.32C417.718 114.267 422.095 114.189 426.48 114.146C428.643 114.128 428.747 114.259 428.747 116.352C428.747 118.141 428.73 119.93 428.738 121.719C428.738 122.031 428.634 122.457 429.034 122.579C429.416 122.683 429.589 122.309 429.772 122.04C434.47 115.145 441.444 113.833 449.078 114.233C452.265 114.398 455.287 115.31 458.188 116.612C459.656 117.264 459.725 117.602 459.108 119.096C457.337 123.456 455.574 127.824 453.889 132.218C453.429 133.417 452.986 133.556 451.857 132.931C447.323 130.412 442.512 130.247 437.614 131.593C433.228 132.8 430.823 135.935 429.633 140.156C428.921 142.666 428.704 145.245 428.704 147.842C428.704 160.096 428.704 172.341 428.686 184.595C428.686 186.575 428.678 186.584 426.758 186.601C422.19 186.628 417.622 186.619 413.054 186.68C411.664 186.697 411.343 186.115 411.352 184.812C411.395 173.366 411.378 161.911 411.378 150.465H411.352H411.36Z" fill="black"/>
<path d="M116.753 28.0468C120.444 21.9502 125.968 19.5533 132.663 19.0409C137.066 18.7022 141.27 19.3361 145.343 21.0036C145.864 21.2207 146.368 21.4726 146.88 21.7244C147.566 22.0631 147.809 22.506 147.479 23.3137C145.577 27.9773 143.71 32.6583 141.869 37.3393C141.504 38.2773 141.261 38.5117 140.193 37.9212C134.374 34.6471 128.417 34.4474 122.615 37.8865C118.507 40.3181 117.3 44.5128 117.066 48.9159C116.371 61.9515 116.918 75.0044 116.762 88.0487C116.718 91.7831 116.762 91.7831 112.941 91.7918C109.172 91.7918 105.394 91.8092 101.625 91.7918C99.8443 91.7918 99.6532 91.6007 99.6532 89.8638C99.6532 66.7801 99.6706 43.6965 99.6445 20.6041C99.6445 19.284 100.001 18.763 101.39 18.789C105.915 18.8585 110.439 18.8585 114.964 18.8064C116.302 18.789 116.814 19.2319 116.771 20.6041C116.684 23.0879 116.745 25.5717 116.745 28.0555L116.753 28.0468Z" fill="black"/>
</svg>
