<svg width="16" height="12" viewBox="0 0 16 12" fill="none" xmlns="http://www.w3.org/2000/svg">
<path d="M13.9753 11.8516C14.3162 11.8516 14.626 11.7298 14.8739 11.5165L10.5358 7.25098C10.4428 7.31191 10.3189 7.40332 10.2259 7.46425C9.88507 7.708 9.63718 7.8908 9.42027 8.01267C9.20336 8.13455 8.95547 8.28688 8.61461 8.40876C8.27376 8.5611 7.96389 8.62203 7.68501 8.62203C7.40613 8.62203 7.06528 8.5611 6.75541 8.40876C6.41456 8.25642 6.13568 8.13455 5.94976 8.01267C5.73285 7.8908 5.48495 7.708 5.1441 7.46425C5.05114 7.40332 4.95818 7.31191 4.83423 7.25098L0.496094 11.5165C0.743987 11.7298 1.05386 11.8516 1.39472 11.8516H13.9753Z" fill="white"/>
<path d="M0.867621 4.53967C0.526769 4.3264 0.247893 4.08265 0 3.80844V10.3286L3.84234 6.55055C3.06767 6.0326 2.0761 5.3623 0.867621 4.53967Z" fill="white"/>
<path d="M14.5021 4.53967C13.3246 5.30137 12.333 5.97166 11.5273 6.55055L15.3697 10.3286V3.80844C15.0908 4.08265 14.8119 4.3264 14.5021 4.53967Z" fill="white"/>
<path d="M13.975 0H1.36341C0.929598 0 0.588739 0.152339 0.340846 0.426551C0.0929525 0.731229 0 1.09684 0 1.5234C0 1.88901 0.154933 2.25462 0.4648 2.68117C0.774667 3.10773 1.11551 3.4124 1.45637 3.65615C1.64229 3.77802 2.23104 4.20457 3.22261 4.8444C3.74939 5.21001 4.21419 5.51469 4.61701 5.7889C4.95787 6.03264 5.23674 6.21545 5.48464 6.39826C5.51562 6.42873 5.54661 6.45919 5.60858 6.48966C5.67055 6.52013 5.76352 6.58107 5.85648 6.642C6.0424 6.76387 6.19733 6.88575 6.32128 6.97715C6.44523 7.06855 6.60016 7.15996 6.75509 7.25136C6.94101 7.34276 7.09595 7.43417 7.25088 7.46464C7.40581 7.52557 7.56075 7.52557 7.68469 7.52557C7.80864 7.52557 7.96357 7.4951 8.1185 7.46464C8.27344 7.4037 8.42837 7.34276 8.61429 7.25136C8.80021 7.15996 8.92416 7.06855 9.0481 6.97715C9.17205 6.88575 9.32698 6.79434 9.51291 6.642C9.60586 6.58107 9.69883 6.52013 9.7608 6.48966C9.82278 6.45919 9.85376 6.42873 9.88475 6.39826C10.0707 6.27639 10.3495 6.06311 10.7524 5.81937C11.4651 5.33188 12.5186 4.63112 13.882 3.68662C14.2849 3.4124 14.6567 3.04679 14.9356 2.65071C15.2145 2.25462 15.3694 1.82807 15.3694 1.37106C15.3694 1.00544 15.2454 0.670294 14.9666 0.426551C14.6567 0.121871 14.3468 0 13.975 0Z" fill="white"/>
</svg>
