<svg width="15" height="15" viewBox="0 0 15 15" fill="none" xmlns="http://www.w3.org/2000/svg">
<path d="M14.5154 10.778L12.4393 8.73667C11.6956 8.00544 10.4251 8.31012 10.1153 9.25462C9.89838 9.92492 9.15469 10.2905 8.47299 10.1382C6.98563 9.77258 4.97149 7.8531 4.59965 6.32971C4.38275 5.65941 4.81656 4.92818 5.49827 4.71491C6.45885 4.41023 6.76872 3.19151 6.02504 2.42981L3.94893 0.388466C3.36018 -0.129489 2.46157 -0.129489 1.9348 0.388466L0.50941 1.78999C-0.88499 3.22198 0.664344 7.12187 4.16584 10.5647C7.66733 14.0076 11.6026 15.6224 13.09 14.16L14.5154 12.7584C15.0422 12.1795 15.0422 11.296 14.5154 10.778Z" fill="white"/>
</svg>
