<svg width="15" height="15" viewBox="0 0 15 15" fill="none" xmlns="http://www.w3.org/2000/svg">
<path fill-rule="evenodd" clip-rule="evenodd" d="M12.3327 2.07182C10.9693 0.731229 9.17205 0 7.25088 0C3.28458 0 0.0619724 3.16866 0.0619724 7.06855C0.0619724 8.31774 0.402828 9.53645 1.02256 10.6028L0 14.259L3.81136 13.284C4.86491 13.8324 6.0424 14.1371 7.25088 14.1371C11.2172 14.1371 14.4398 10.9684 14.4398 7.06855C14.4398 5.17954 13.6961 3.41241 12.3327 2.07182ZM7.25088 12.9489C6.16634 12.9489 5.1128 12.6746 4.21418 12.1262L3.99728 12.0044L1.73525 12.5832L2.324 10.42L2.16907 10.2067C1.58032 9.26224 1.27045 8.19587 1.27045 7.09902C1.27045 3.86942 3.9353 1.21872 7.25088 1.21872C8.8312 1.21872 10.3495 1.82807 11.4651 2.92492C12.5806 4.02176 13.2003 5.51469 13.2003 7.06855C13.2003 10.3286 10.5355 12.9489 7.25088 12.9489ZM10.5355 8.56148C10.3495 8.47008 9.48192 8.04353 9.296 7.98259C9.14107 7.92166 9.01712 7.89119 8.89317 8.07399C8.76922 8.2568 8.42837 8.65288 8.33541 8.77476C8.24245 8.89663 8.1185 8.89663 7.93258 8.80522C7.74666 8.71382 7.1889 8.53101 6.47621 7.92165C5.94944 7.46464 5.5776 6.88575 5.48464 6.70294C5.39168 6.52013 5.48464 6.42873 5.5776 6.33732C5.76352 6.09358 5.98042 5.84984 6.01141 5.72797C6.07338 5.60609 6.0424 5.51469 6.01141 5.42329C5.98042 5.33188 5.60858 4.47878 5.45365 4.11317C5.29872 3.77802 5.17477 3.80849 5.05083 3.80849C4.95787 3.80849 4.83392 3.80849 4.70997 3.80849C4.58602 3.80849 4.4001 3.83896 4.24517 4.02176C4.09024 4.20457 3.62544 4.63112 3.62544 5.48422C3.62544 6.33732 4.27616 7.19043 4.36912 7.3123C4.46208 7.43417 5.63957 9.20131 7.4368 9.96301C7.87061 10.1458 8.21147 10.2677 8.45936 10.3286C8.89317 10.4505 9.26501 10.4505 9.57488 10.3896C9.91573 10.3286 10.6284 9.963 10.7834 9.53645C10.9383 9.1099 10.9383 8.77476 10.8763 8.68335C10.8143 8.68335 10.6904 8.65288 10.5355 8.56148Z" fill="white"/>
</svg>
